<svg xmlns="http://www.w3.org/2000/svg" width="32" height="32" fill="none" viewBox="0 0 32 32"><title>Small air cooler</title><path stroke="currentColor" stroke-linecap="round" stroke-linejoin="round" stroke-width="1.5" d="M27 1H5a4 4 0 0 0-4 4v6a4 4 0 0 0 4 4h22a4 4 0 0 0 4-4V5a4 4 0 0 0-4-4ZM7 5h18"></path><path stroke="currentColor" stroke-linecap="round" stroke-linejoin="round" stroke-width="1.5" d="M5 15v-2a2 2 0 0 1 2-2h18a2 2 0 0 1 2 2v2M5.172 29.98a4 4 0 0 0 0-5.656 4 4 0 0 1-.022-5.635M15.839 29.98a4 4 0 0 0 0-5.656 4 4 0 0 1-.024-5.634M26.505 29.98a4 4 0 0 0 0-5.656 3.998 3.998 0 0 1-.02-5.637"></path></svg>