<svg xmlns="http://www.w3.org/2000/svg" width="24" height="24" fill="none" viewBox="0 0 24 24"><title>Small air cooler</title><path stroke="currentColor" stroke-linecap="round" stroke-linejoin="round" stroke-width="1.5" d="M20.25.75H3.75a3 3 0 0 0-3 3v4.5a3 3 0 0 0 3 3h16.5a3 3 0 0 0 3-3v-4.5a3 3 0 0 0-3-3ZM5.25 3.75h13.5"></path><path stroke="currentColor" stroke-linecap="round" stroke-linejoin="round" stroke-width="1.5" d="M3.75 11.25v-1.5a1.5 1.5 0 0 1 1.5-1.5h13.5a1.5 1.5 0 0 1 1.5 1.5v1.5M3.879 22.485a3 3 0 0 0 0-4.242 3 3 0 0 1-.033-4.21M11.879 22.485a3 3 0 0 0 0-4.242 3 3 0 0 1-.033-4.21M19.879 22.485a3 3 0 0 0 0-4.242 3 3 0 0 1-.023-4.22"></path></svg>