<svg xmlns="http://www.w3.org/2000/svg" width="42" height="28" fill="none" viewBox="0 0 42 28"><title>Flight and hotel</title><path stroke="currentColor" stroke-linecap="round" stroke-linejoin="round" stroke-width="2" d="M28 9.5h-1.838c-.407.012-.81-.09-1.171-.297a2.452 2.452 0 0 1-.886-.881L21 2h2.318l3.246 2.509h11.927a2.496 2.496 0 1 1 0 4.991H35"></path><path stroke="currentColor" stroke-linecap="round" stroke-linejoin="round" stroke-width="2" d="M29.5 8 28 9.5l1.5 1.5H35V8h-5.5ZM41 27H1M3 27V4a2 2 0 0 1 2-2h10a2 2 0 0 1 2 2v23M17 16h6a2 2 0 0 1 2 2v9M8 22h4M8 17h4M8 12h4M8 7h4M22.5 22H25M35.035 18.028 37.5 20l2.465-1.972M35.052 22.041 37.5 24l2.449-1.959M37.5 26.5V16"></path></svg>