<svg xmlns="http://www.w3.org/2000/svg" width="16" height="16" fill="none" viewBox="0 0 16 16"><title>Red octagon with white exclamation point</title><path fill="currentColor" d="M4.1.586A2 2 0 0 1 5.516 0h4.97A2 2 0 0 1 11.9.586L15.413 4.1A2 2 0 0 1 16 5.514v4.97a2 2 0 0 1-.586 1.415L11.9 15.413a2 2 0 0 1-1.415.586h-4.97a2 2 0 0 1-1.414-.586L.586 11.9A2 2 0 0 1 0 10.485v-4.97A2 2 0 0 1 .586 4.1L4.1.586Z"></path><path fill="#fff" fill-rule="evenodd" d="M8 3.25a.75.75 0 0 1 .75.75v5a.75.75 0 1 1-1.5 0V4A.75.75 0 0 1 8 3.25Z" clip-rule="evenodd"></path><path fill="#fff" d="M8.8 11.8a.8.8 0 1 1-1.6 0 .8.8 0 0 1 1.6 0Z"></path></svg>