<svg xmlns="http://www.w3.org/2000/svg" width="32" height="32" fill="none" viewBox="0 0 32 32"><title>All-wheel drive</title><path stroke="currentColor" stroke-linecap="round" stroke-linejoin="round" stroke-width="1.5" d="M1.333 2.667c0-.737.597-1.334 1.334-1.334h2.667c.736 0 1.333.597 1.333 1.334v6.666c0 .737-.597 1.334-1.333 1.334H2.667a1.333 1.333 0 0 1-1.333-1.334V2.667ZM1.333 22.667c0-.737.597-1.334 1.334-1.334h2.667c.736 0 1.333.597 1.333 1.334v6.666c0 .737-.597 1.334-1.333 1.334H2.667a1.333 1.333 0 0 1-1.333-1.334v-6.666ZM25.334 2.667c0-.737.596-1.334 1.333-1.334h2.666c.737 0 1.334.597 1.334 1.334v6.666c0 .737-.597 1.334-1.334 1.334h-2.666a1.333 1.333 0 0 1-1.334-1.334V2.667ZM25.334 22.667c0-.737.596-1.334 1.333-1.334h2.666c.737 0 1.334.597 1.334 1.334v6.666c0 .737-.597 1.334-1.334 1.334h-2.666a1.333 1.333 0 0 1-1.334-1.334v-6.666ZM25.334 26H6.667M13.334 2.667h5.333M13.334 29.333h5.333M16 6v20M25.334 6H6.667"></path></svg>