<svg xmlns="http://www.w3.org/2000/svg" width="16" height="16" fill="none" viewBox="0 0 16 16"><title>Paperclip</title><path stroke="currentColor" stroke-linecap="round" stroke-linejoin="round" stroke-width="1.5" d="M9.82 3.911 4.21 9.674a1.458 1.458 0 0 0-.393 1.011c.004.377.15.738.41 1.004.26.267.611.418.978.421.367.003.721-.142.985-.404l5.61-5.763a2.88 2.88 0 0 0 .627-.933 2.943 2.943 0 0 0 .019-2.224 2.882 2.882 0 0 0-.612-.944 2.795 2.795 0 0 0-.92-.628 2.736 2.736 0 0 0-2.165.02 2.8 2.8 0 0 0-.909.644l-5.61 5.76A4.372 4.372 0 0 0 1 10.688c0 1.143.442 2.24 1.23 3.049A4.145 4.145 0 0 0 5.2 15a4.145 4.145 0 0 0 2.97-1.263L15 6.759"></path></svg>