<svg xmlns="http://www.w3.org/2000/svg" width="42" height="28" fill="none" viewBox="0 0 42 28"><title>AutovexDark logo</title><path fill="#061F40" stroke="#fff" d="M10.786 1.5h20.428c1.21 0 2.286 1.076 2.286 2.286v20.428c0 1.22-.994 2.286-2.286 2.286H10.786A2.294 2.294 0 0 1 8.5 24.214V3.786c0-1.21 1.076-2.286 2.286-2.286Z"></path><path fill="#fff" d="m15.522 9.079-3.529 9.843h2.043l.65-1.858h3.9l.65 1.858h2.043l-3.436-9.843h-2.321Zm-.279 6.407 1.393-4.086 1.393 4.086h-2.786Zm12.628-6.407-2.693 7.8-2.693-7.8H20.35l3.621 9.843h2.414l3.622-9.843H27.87Z"></path></svg>