<svg xmlns="http://www.w3.org/2000/svg" width="42" height="28" fill="none" viewBox="0 0 42 28"><title>AutovexLight logo</title><path fill="#061F40" d="M31.214 1H10.786C9.3 1 8 2.3 8 3.786v20.428C8 25.793 9.3 27 10.786 27h20.428C32.793 27 34 25.7 34 24.214V3.786C34 2.3 32.7 1 31.214 1Z"></path><path fill="#fff" d="m15.522 9.079-3.529 9.843h2.043l.65-1.858h3.9l.65 1.858h2.043l-3.436-9.843h-2.321Zm-.279 6.407 1.393-4.086 1.393 4.086h-2.786Zm12.628-6.407-2.693 7.8-2.693-7.8H20.35l3.621 9.843h2.414l3.622-9.843H27.87Z"></path></svg>