<svg xmlns="http://www.w3.org/2000/svg" width="42" height="28" fill="none" viewBox="0 0 42 28"><title>Baby onesie</title><g stroke="currentColor" stroke-linecap="round" stroke-linejoin="round" stroke-width="2"><path d="M29.125 9.938h2.438a1.625 1.625 0 0 0 1.625-1.626V5.377a1.625 1.625 0 0 0-1.057-1.522c-1.841-.688-5.444-2.03-5.445-2.042h-1.625a4.062 4.062 0 1 1-8.125 0h-1.625c.002.012-3.6 1.354-5.442 2.042a1.625 1.625 0 0 0-1.056 1.522v2.936a1.625 1.625 0 0 0 1.624 1.624h2.438v13.407a2.844 2.844 0 1 0 5.688 0v-3.657a2.438 2.438 0 1 1 4.875 0v3.657a2.844 2.844 0 1 0 5.687 0V9.937Z"></path><path d="M21 13.188a.406.406 0 0 1 .406.406M20.594 13.594a.407.407 0 0 1 .406-.406M21 14a.406.406 0 0 1-.406-.406"></path><path d="M21.406 13.594A.407.407 0 0 1 21 14M21 9.125a.406.406 0 0 1 .406.406M20.594 9.531A.407.407 0 0 1 21 9.125M21 9.938a.406.406 0 0 1-.406-.407M21.406 9.531a.407.407 0 0 1-.406.406"></path></g></svg>