<svg xmlns="http://www.w3.org/2000/svg" width="32" height="32" fill="none" viewBox="0 0 32 32"><title>Rear-wheel drive</title><path stroke="currentColor" stroke-linecap="round" stroke-linejoin="round" stroke-width="1.5" d="M25 22.667c0-.737.597-1.334 1.334-1.334H29c.737 0 1.334.597 1.334 1.334v6.666c0 .737-.597 1.334-1.334 1.334h-2.666A1.333 1.333 0 0 1 25 29.333v-6.666ZM1.667 22.667c0-.737.596-1.334 1.333-1.334h2.667c.736 0 1.333.597 1.333 1.334v6.666c0 .737-.597 1.334-1.333 1.334H3a1.333 1.333 0 0 1-1.333-1.334v-6.666Z"></path><path stroke="currentColor" stroke-linecap="round" stroke-linejoin="round" stroke-width="1.5" d="M25 22.667c0-.737.597-1.334 1.334-1.334H29c.737 0 1.334.597 1.334 1.334v6.666c0 .737-.597 1.334-1.334 1.334h-2.666A1.333 1.333 0 0 1 25 29.333v-6.666ZM13.334 2.5h5.333M25.334 6H6.667M1.667 22.667c0-.737.596-1.334 1.333-1.334h2.667c.736 0 1.333.597 1.333 1.334v6.666c0 .737-.597 1.334-1.333 1.334H3a1.333 1.333 0 0 1-1.333-1.334v-6.666ZM13.334 29.5h5.333M25 26H7"></path></svg>