<svg xmlns="http://www.w3.org/2000/svg" width="32" height="32" fill="none" viewBox="0 0 32 32"><title>Handbag</title><path stroke="currentColor" stroke-linecap="round" stroke-linejoin="round" stroke-width="1.5" d="M28.086 16.867a3.529 3.529 0 0 0-1.292-2.059A3.85 3.85 0 0 0 24.423 14H7.577a3.85 3.85 0 0 0-2.37.808 3.529 3.529 0 0 0-1.293 2.059L2.07 25.756a3.39 3.39 0 0 0 .042 1.556c.134.51.386.984.736 1.39.35.406.79.733 1.29.957A3.89 3.89 0 0 0 5.732 30h20.534a3.89 3.89 0 0 0 1.595-.34 3.713 3.713 0 0 0 1.289-.958c.35-.406.602-.88.736-1.39a3.39 3.39 0 0 0 .042-1.556l-1.843-8.889Z"></path><path stroke="currentColor" stroke-linecap="round" stroke-linejoin="round" stroke-width="1.5" d="M22 30V7c0-1.326-.632-2.598-1.757-3.536C19.117 2.527 17.59 2 16 2c-1.591 0-3.117.527-4.243 1.464C10.632 4.402 10 5.674 10 7v23"></path></svg>