<svg xmlns="http://www.w3.org/2000/svg" width="32" height="32" fill="none" viewBox="0 0 32 32"><title>Shield with checkmark</title><path stroke="currentColor" stroke-linecap="round" stroke-linejoin="round" stroke-width="1.5" d="M6.34 21.411A28.303 28.303 0 0 1 2.69 8.67a1.387 1.387 0 0 1 .75-1.282l11.892-6.274c.417-.22.916-.22 1.333 0L28.56 7.387c.474.25.772.746.748 1.282a28.304 28.304 0 0 1-3.648 12.742c-2.2 3.87-5.277 7.098-8.949 9.397a1.34 1.34 0 0 1-1.423 0c-3.67-2.3-6.747-5.527-8.948-9.397Z"></path><path stroke="currentColor" stroke-linecap="round" stroke-linejoin="round" stroke-width="1.5" d="M10.666 16.667 14 20l8-8"></path></svg>