<svg xmlns="http://www.w3.org/2000/svg" width="32" height="32" fill="none" viewBox="0 0 32 32"><title>Beach umbrella</title><path stroke="currentColor" stroke-linecap="round" stroke-linejoin="round" stroke-width="1.5" d="M12 24.961a10.548 10.548 0 0 1 6.305-2.294h12.629M29.384 9.68a1.305 1.305 0 0 0 .589-2.047A13.048 13.048 0 0 0 6.738 15.72a1.306 1.306 0 0 0 1.734 1.238L29.384 9.68ZM18.928 13.319l3.738 9.348M1 29.667a7.348 7.348 0 0 0 6-2 6.063 6.063 0 0 0 9 0 6.063 6.063 0 0 0 9 0 7.35 7.35 0 0 0 5.976 2.003M15.498 3.464 14.642 1"></path></svg>