<svg xmlns="http://www.w3.org/2000/svg" width="24" height="24" fill="none" viewBox="0 0 24 24"><title>Beach umbrella</title><path stroke="currentColor" stroke-linecap="round" stroke-linejoin="round" stroke-width="1.5" d="M9 18.721a7.91 7.91 0 0 1 4.729-1.72h9.462M22.038 7.26a.979.979 0 0 0 .442-1.535A9.786 9.786 0 0 0 5.054 11.79a.98.98 0 0 0 1.3.93L22.038 7.26ZM14.196 9.99 17 17M.75 22.25a5.51 5.51 0 0 0 4.5-1.5 4.548 4.548 0 0 0 6.75 0 4.548 4.548 0 0 0 6.75 0 5.51 5.51 0 0 0 4.451 1.506M11.623 2.598 10.98.75"></path></svg>