<svg xmlns="http://www.w3.org/2000/svg" width="32" height="32" fill="none" viewBox="0 0 32 32"><title>Bell</title><path fill="currentColor" fill-rule="evenodd" d="M9.423 27.128a1 1 0 0 1 .884-.186l5.133 1.376a1 1 0 0 1 .586 1.5 3.81 3.81 0 0 1-4.177 1.633 3.81 3.81 0 0 1-2.8-3.502 1 1 0 0 1 .374-.822ZM20.848 1.77a1 1 0 1 0-1.932-.518l-.53 1.977c-5.563-.944-11.07 2.676-12.535 8.145-1.09 4.07-2.263 6.548-3.134 7.987-.436.719-.796 1.178-1.033 1.447a3.948 3.948 0 0 1-.307.314l-.003.002a1 1 0 0 0 .36 1.751l23.182 6.212a1 1 0 0 0 1.101-1.505l-.002-.005a1.536 1.536 0 0 1-.08-.217c-.075-.246-.176-.71-.207-1.479-.063-1.541.154-4.263 1.373-8.813 1.475-5.505-1.456-11.355-6.783-13.322l.53-1.976Z" clip-rule="evenodd"></path></svg>