<svg xmlns="http://www.w3.org/2000/svg" width="16" height="16" fill="none" viewBox="0 0 16 16"><title>Bell</title><path fill="currentColor" fill-rule="evenodd" d="M4.712 13.564a.5.5 0 0 1 .442-.093l2.566.688a.5.5 0 0 1 .293.75 1.905 1.905 0 0 1-2.088.817 1.905 1.905 0 0 1-1.4-1.752.5.5 0 0 1 .187-.41ZM10.424.885a.5.5 0 0 0-.966-.259l-.265.989c-2.781-.472-5.535 1.337-6.267 4.072C2.38 7.722 1.794 8.961 1.359 9.68c-.218.36-.398.59-.517.724a1.962 1.962 0 0 1-.153.157H.687a.5.5 0 0 0 .18.877l11.591 3.105a.5.5 0 0 0 .55-.752v-.002a.762.762 0 0 1-.04-.109 3.032 3.032 0 0 1-.104-.74c-.031-.77.077-2.131.687-4.406.737-2.753-.728-5.678-3.392-6.661l.265-.988Z" clip-rule="evenodd"></path></svg>