<svg xmlns="http://www.w3.org/2000/svg" width="24" height="24" fill="none" viewBox="0 0 24 24"><title>Dotted square with a highlighted house</title><path stroke="currentColor" stroke-linecap="round" stroke-linejoin="round" stroke-width="1.5" d="M7 2h1.5M11.5 2H13M20 13h1.5M20 17h1.5M15 17h1.5M16 2h1.5M20.5 2H22v1.5M2 20.5V22h1.5M2 17.5V16M20 9V7M2 13v-1.5M2 8.5V7M4 2H2v2M22 22V9.5a.5.5 0 0 0-.5-.5h-7a.5.5 0 0 0-.5.5V13"></path><path stroke="currentColor" stroke-linecap="round" stroke-linejoin="round" stroke-width="1.5" d="M17 22v-8.5a.5.5 0 0 0-.5-.5h-6a.5.5 0 0 0-.5.5V22M6.5 22H22"></path></svg>