<svg xmlns="http://www.w3.org/2000/svg" width="32" height="32" fill="none" viewBox="0 0 32 32"><title>Dotted square with a highlighted house</title><path stroke="currentColor" stroke-linecap="round" stroke-linejoin="round" stroke-width="1.5" d="M9 2h2M15 2h2M27.5 17H30M27.5 23H30M20.5 23H23M21 2h2M27 2h3v3M2 27.5V30h2.5M2 23v-2M26.5 11V8M2 17v-2M2 11V9M4.5 2H2v3M30 30V11.667a.667.667 0 0 0-.667-.667h-9.666a.667.667 0 0 0-.667.667V17"></path><path stroke="currentColor" stroke-linecap="round" stroke-linejoin="round" stroke-width="1.5" d="M23 30V17.667a.667.667 0 0 0-.667-.667h-8.666a.667.667 0 0 0-.667.667V30M8.666 30H30"></path></svg>