<svg xmlns="http://www.w3.org/2000/svg" width="42" height="28" fill="none" viewBox="0 0 42 28"><title>Bulldozer</title><path stroke="currentColor" stroke-linecap="round" stroke-linejoin="round" stroke-width="2" d="M2 23a4 4 0 0 1 4-4h20M40 15V1h-6l-9 11h-6.5L17 9.5M40 19.5V15h-7l2 4.5h5Z"></path><path stroke="currentColor" stroke-linecap="round" stroke-width="2" d="M9 12V4a1 1 0 0 1 1-1h10.788a1 1 0 0 1 .923.615L25 11.5V19"></path><path stroke="currentColor" stroke-linecap="round" stroke-width="2" d="M12 12H4.5a.5.5 0 0 0-.5.5v2.644a1 1 0 0 0 .225.632L6.857 19"></path></svg>