<svg xmlns="http://www.w3.org/2000/svg" width="32" height="32" fill="none" viewBox="0 0 32 32"><title>Bus</title><path stroke="currentColor" stroke-linecap="round" stroke-linejoin="round" stroke-width="1.5" d="M7 26.865v2.086a2 2 0 0 0 4 0v-1.873M25 26.865v2.086a2 2 0 0 1-4 0v-1.889M1 12.95v-4a2 2 0 0 1 2-2h1.938M31 12.95v-4a2 2 0 0 0-2-2h-1.922"></path><path stroke="currentColor" stroke-linecap="round" stroke-linejoin="round" stroke-width="1.5" d="M24.333.95H7.667A2.667 2.667 0 0 0 5 3.618v20.667a2.667 2.667 0 0 0 2.667 2.667h16.666A2.667 2.667 0 0 0 27 24.284V3.617A2.667 2.667 0 0 0 24.333.951ZM27 18.95H5M19 22.95h4M9 22.95h4M13 4.95h6"></path></svg>