<svg xmlns="http://www.w3.org/2000/svg" width="24" height="25" fill="none" viewBox="0 0 24 25"><title>Bus</title><path stroke="currentColor" stroke-linecap="round" stroke-linejoin="round" stroke-width="1.5" d="M8.25 20.25v1.5a1.5 1.5 0 0 1-3 0v-1.385M15.75 20.25v1.5a1.5 1.5 0 1 0 3 0v-1.5M.75 9.75v-3a1.5 1.5 0 0 1 1.5-1.5h1.36M23.25 9.75v-3a1.5 1.5 0 0 0-1.5-1.5h-1.375M18.25.75H5.75a2 2 0 0 0-2 2v15.5a2 2 0 0 0 2 2h12.5a2 2 0 0 0 2-2V2.75a2 2 0 0 0-2-2ZM20.25 14.25H3.75M14.25 17.25h3M6.75 17.25h3M9.75 3.75h4.5"></path></svg>