<svg xmlns="http://www.w3.org/2000/svg" width="32" height="32" fill="none" viewBox="0 0 32 32"><title>Cabin with garden</title><path stroke="currentColor" stroke-linecap="round" stroke-linejoin="round" stroke-width="1.5" d="M5 13 1 24h8L5 13ZM5 24v6.667"></path><path stroke="currentColor" stroke-linecap="round" stroke-linejoin="round" stroke-width="1.531" d="M29 31V16.52M13 31V16.52"></path><path stroke="currentColor" stroke-linecap="round" stroke-width="1.5" d="M18 31v-7.333c0-.369.299-.667.667-.667h4.666c.369 0 .667.299.667.667V31M11 18l9.584-7.667a.667.667 0 0 1 .832 0L31 18M19 16h4M2 31h27"></path><path stroke="currentColor" stroke-linecap="round" stroke-linejoin="round" stroke-width="1.5" d="M13.522 9a3.32 3.32 0 0 0 2.429-.995A3.665 3.665 0 0 0 17 5.499a3.76 3.76 0 0 0-.965-2.367 3.428 3.428 0 0 0-2.209-1.117 3.37 3.37 0 0 0-2.364.683 3.684 3.684 0 0 0-1.353 2.147 2.143 2.143 0 0 0-.935-.221 2.079 2.079 0 0 0-1.517.622c-.407.41-.644.973-.657 1.565.013.593.25 1.156.657 1.566.407.41.953.634 1.517.622h4.348Z"></path></svg>