<svg xmlns="http://www.w3.org/2000/svg" width="24" height="24" fill="none" viewBox="0 0 24 24"><title>Cabin with garden</title><path stroke="currentColor" stroke-linecap="round" stroke-linejoin="round" stroke-width="1.5" d="m4 10-3 8h6l-3-8ZM4 18v5M10 12.5V23h12V12.5"></path><path stroke="currentColor" stroke-linecap="round" stroke-width="1.5" d="M14 23v-5.5a.5.5 0 0 1 .5-.5h3a.5.5 0 0 1 .5.5V23M9 13l6.675-5.721a.5.5 0 0 1 .65 0L23 13M15 12h2M1 23h9"></path><path stroke="currentColor" stroke-linecap="round" stroke-linejoin="round" stroke-width="1.5" d="M9.565 7a2.3 2.3 0 0 0 1.7-.71c.457-.47.721-1.114.735-1.791a2.715 2.715 0 0 0-.675-1.69 2.384 2.384 0 0 0-1.547-.798 2.326 2.326 0 0 0-1.654.488 2.638 2.638 0 0 0-.947 1.533 1.476 1.476 0 0 0-1.717.287c-.285.292-.45.694-.46 1.118.01.423.174.825.46 1.118a1.44 1.44 0 0 0 1.062.444h3.043Z"></path></svg>