<svg xmlns="http://www.w3.org/2000/svg" width="24" height="24" fill="none" viewBox="0 0 24 24"><title>Calculator</title><path stroke="currentColor" stroke-linecap="round" stroke-linejoin="round" stroke-width="1.5" d="M18.75.75H5.25a1.5 1.5 0 0 0-1.5 1.5v19.5a1.5 1.5 0 0 0 1.5 1.5h13.5a1.5 1.5 0 0 0 1.5-1.5V2.25a1.5 1.5 0 0 0-1.5-1.5Z"></path><path stroke="currentColor" stroke-linecap="round" stroke-linejoin="round" stroke-width="1.5" d="M16.286 4H7.714C7.32 4 7 4.298 7 4.667v2.666c0 .369.32.667.714.667h8.572c.394 0 .714-.298.714-.667V4.667c0-.369-.32-.667-.714-.667ZM8 12H7M12.5 12h-1M17 12h-1M8 15H7M12.5 15h-1M17 15h-1M8 18H7M12.5 18h-1M17 18h-1"></path></svg>