<svg xmlns="http://www.w3.org/2000/svg" width="32" height="32" fill="none" viewBox="0 0 32 32"><title>Calculator</title><path stroke="currentColor" stroke-linecap="round" stroke-linejoin="round" stroke-width="1.5" d="M25 1H7a2 2 0 0 0-2 2v26a2 2 0 0 0 2 2h18a2 2 0 0 0 2-2V3a2 2 0 0 0-2-2Z"></path><path stroke="currentColor" stroke-linecap="round" stroke-linejoin="round" stroke-width="1.5" d="M22 5H10a1 1 0 0 0-1 1v4a1 1 0 0 0 1 1h12a1 1 0 0 0 1-1V6a1 1 0 0 0-1-1ZM11.25 17H9M17.25 17H15M23.25 17H21M11.25 21H9M17.25 21H15M23.25 21H21M11.25 25H9M17.25 25H15M23.25 25H21"></path></svg>