<svg xmlns="http://www.w3.org/2000/svg" width="16" height="16" fill="none" viewBox="0 0 16 16"><title>Calendar</title><path fill="currentColor" fill-rule="evenodd" d="M4 .25a.75.75 0 0 1 .75.75v.25h6.5V1a.75.75 0 0 1 1.5 0v.25h1.317c.977 0 1.683.833 1.683 1.75v11c0 .917-.706 1.75-1.683 1.75H1.933C.956 15.75.25 14.917.25 14V3c0-.917.706-1.75 1.683-1.75H3.25V1A.75.75 0 0 1 4 .25Zm7.25 2.5v.75a.75.75 0 0 0 1.5 0v-.75h1.317c.033 0 .072.013.111.055.04.042.072.11.072.195v2.25H1.75V3c0-.086.032-.153.072-.195a.152.152 0 0 1 .111-.055H3.25v.75a.75.75 0 0 0 1.5 0v-.75h6.5Zm3 4V14a.284.284 0 0 1-.072.195.151.151 0 0 1-.111.055H1.933a.151.151 0 0 1-.111-.055A.285.285 0 0 1 1.75 14V6.75h12.5Z" clip-rule="evenodd"></path><path stroke="currentColor" stroke-linecap="round" stroke-linejoin="round" stroke-width="1.5" d="M8 12V9M9 12H7M8 9H7"></path></svg>