<svg xmlns="http://www.w3.org/2000/svg" width="16" height="16" fill="none" viewBox="0 0 16 16"><title>Camera</title><path stroke="currentColor" stroke-linecap="round" stroke-linejoin="round" d="M10.695 2.46 11.68 4h2.82a1 1 0 0 1 1 1v8a1 1 0 0 1-1 1h-13a1 1 0 0 1-1-1V5a1 1 0 0 1 1-1h2.82l.985-1.54A1 1 0 0 1 6.147 2h3.705a1 1 0 0 1 .843.46ZM2.667 4V3"></path><path stroke="currentColor" stroke-linecap="round" stroke-linejoin="round" d="M8 11.333A2.667 2.667 0 1 0 8 6a2.667 2.667 0 0 0 0 5.333Z"></path></svg>