<svg xmlns="http://www.w3.org/2000/svg" width="24" height="24" fill="none" viewBox="0 0 24 24"><title>Camera</title><path stroke="currentColor" stroke-linecap="round" stroke-linejoin="round" stroke-width="1.5" d="M16.043 3.691 17.52 6h4.23a1.5 1.5 0 0 1 1.5 1.5v12a1.5 1.5 0 0 1-1.5 1.5H2.25a1.5 1.5 0 0 1-1.5-1.5v-12A1.5 1.5 0 0 1 2.25 6h4.23l1.478-2.309A1.5 1.5 0 0 1 9.221 3h5.558a1.5 1.5 0 0 1 1.264.691ZM4 6V4.5"></path><path stroke="currentColor" stroke-linecap="round" stroke-linejoin="round" stroke-width="1.5" d="M12 17a4 4 0 1 0 0-8 4 4 0 0 0 0 8Z"></path></svg>