<svg xmlns="http://www.w3.org/2000/svg" width="42" height="28" fill="none" viewBox="0 0 42 28"><title>Camper</title><path stroke="currentColor" stroke-linecap="round" stroke-width="2" d="M41 25v-3.5M27 23h14"></path><path fill="currentColor" d="M26 23a3 3 0 0 1-3 3v2a5 5 0 0 0 5-5h-2Zm-3 3a3 3 0 0 1-3-3h-2a5 5 0 0 0 5 5v-2Zm-3-3a3 3 0 0 1 3-3v-2a5 5 0 0 0-5 5h2Zm3-3a3 3 0 0 1 3 3h2a5 5 0 0 0-5-5v2Z"></path><path stroke="currentColor" stroke-width="2" d="M21.5 11.5v-3A1.5 1.5 0 0 1 23 7h7.5A1.5 1.5 0 0 1 32 8.5v3a1.5 1.5 0 0 1-1.5 1.5H23a1.5 1.5 0 0 1-1.5-1.5Z"></path><path stroke="currentColor" stroke-linejoin="round" stroke-width="2" d="M7 23h7V7H7v16Z"></path><path stroke="currentColor" stroke-linecap="round" stroke-linejoin="round" stroke-width="2" d="M19 23H3a2 2 0 0 1-2-2V8a6 6 0 0 1 6-6h26a4 4 0 0 1 4 4v17"></path></svg>