<svg xmlns="http://www.w3.org/2000/svg" width="42" height="28" fill="none" viewBox="0 0 42 28"><title>Car front view</title><path stroke="currentColor" stroke-linecap="round" stroke-linejoin="round" stroke-width="2" d="M31.563 20.77a1.625 1.625 0 0 0 1.625-1.624V14.27a1.96 1.96 0 0 0-.575-1.386l-2.675-2.677H12.063l-2.676 2.676a1.96 1.96 0 0 0-.575 1.387v4.875a1.625 1.625 0 0 0 1.626 1.625h21.124Z"></path><path stroke="currentColor" stroke-linecap="round" stroke-linejoin="round" stroke-width="2" d="m12.063 10.208 1.866-4.983a2.346 2.346 0 0 1 2.196-1.517h9.75a2.347 2.347 0 0 1 2.196 1.517l1.866 4.983H12.063Zm0 .002-1.626-1.626H8.813m21.125 1.626 1.625-1.626h1.625M10.438 20.77v1.626a1.625 1.625 0 1 0 3.25 0V20.77h-3.25Zm21.125 0v1.626a1.625 1.625 0 1 1-3.25 0V20.77h3.25Zm1.448-7.312h-4.698l-1.964 3.274a1.626 1.626 0 0 1-1.394.789h-7.909a1.624 1.624 0 0 1-1.395-.79l-1.963-3.273H8.989m17.36 3.25h6.839m-17.536 0h-6.84m19.501-3.25H13.688"></path></svg>