<svg xmlns="http://www.w3.org/2000/svg" width="24" height="24" fill="none" viewBox="0 0 24 24"><title>Car key</title><path stroke="currentColor" stroke-linecap="round" stroke-linejoin="round" stroke-width="1.5" d="m5 8-2 4.75M1.5 19.468V21a1.5 1.5 0 0 0 3 0v-1.358M22.5 19.468V21a1.5 1.5 0 1 1-3 0v-1.428"></path><path stroke="currentColor" stroke-linecap="round" stroke-linejoin="round" stroke-width="1.5" d="M2.75 12.75h18.5a2 2 0 0 1 2 2v3.75a1 1 0 0 1-1 1H1.75a1 1 0 0 1-1-1v-3.75a2 2 0 0 1 2-2v0ZM12.5 4.25a2.25 2.25 0 1 0 4.5 0 2.25 2.25 0 0 0-4.5 0ZM12.5 4.25H7v1.478M14.25 16.5h-4.5M23.25 16.125h-3M.75 16.125h3M9.25 4.25v1.607M21 12.75 19 8"></path></svg>