<svg xmlns="http://www.w3.org/2000/svg" width="24" height="24" fill="none" viewBox="0 0 24 24"><title>Car and star</title><path stroke="currentColor" stroke-width="1.5" d="M.777 15.643a3 3 0 0 1 3-3h16.446a3 3 0 0 1 3 3v2.64a1 1 0 0 1-1 1H1.777a1 1 0 0 1-1-1v-2.64Z"></path><path stroke="currentColor" stroke-linecap="round" stroke-linejoin="round" stroke-width="1.5" d="M4 16h2M20 16h-2"></path><path stroke="currentColor" stroke-width="1.5" d="M1.525 19.283v1.454a1.496 1.496 0 1 0 2.993 0v-1.454M19.482 19.283v1.454a1.496 1.496 0 1 0 2.993 0v-1.454"></path><path stroke="currentColor" stroke-linecap="round" stroke-width="1.5" d="m3.021 12.643 1.871-4.795M20.979 12.643l-1.871-4.795"></path><path stroke="currentColor" stroke-width="1.5" d="M11.118 1.75a1 1 0 0 1 1.764 0l.556 1.04a1 1 0 0 0 .78.524l1.038.106c.891.091 1.222 1.218.522 1.777l-.554.442a1 1 0 0 0-.35 1.006l.176.767a1 1 0 0 1-1.41 1.125l-1.205-.583a1 1 0 0 0-.87 0l-1.206.583a1 1 0 0 1-1.41-1.125l.177-.767a1 1 0 0 0-.35-1.006l-.555-.442c-.7-.559-.369-1.686.522-1.777l1.039-.106a1 1 0 0 0 .78-.523l.556-1.04Z"></path></svg>