<svg xmlns="http://www.w3.org/2000/svg" width="32" height="32" fill="none" viewBox="0 0 32 32"><title>Car and star</title><path stroke="currentColor" stroke-width="1.5" d="M1 20a3 3 0 0 1 3-3h24a3 3 0 0 1 3 3v5a1 1 0 0 1-1 1H2a1 1 0 0 1-1-1v-5Z"></path><path stroke="currentColor" stroke-linecap="round" stroke-linejoin="round" stroke-width="1.5" d="M5 21h3l-1 2M27 21h-3l1 2"></path><path stroke="currentColor" stroke-width="1.5" d="M2 26v2a2 2 0 1 0 4 0v-2M26 26v2a2 2 0 1 0 4 0v-2"></path><path stroke="currentColor" stroke-linecap="round" stroke-width="1.5" d="m4 17 2.5-6.5M28 17l-2.5-6.5"></path><path stroke="currentColor" stroke-width="1.5" d="M15.115 1.678a1 1 0 0 1 1.77 0l1.123 2.13a1 1 0 0 0 .781.529l2.412.25c.887.092 1.22 1.211.526 1.772l-1.59 1.288a1 1 0 0 0-.347.998l.45 1.979a1 1 0 0 1-1.416 1.12l-2.384-1.169a1 1 0 0 0-.88 0l-2.384 1.168a1 1 0 0 1-1.415-1.12l.45-1.978a1 1 0 0 0-.347-.998l-1.591-1.288c-.693-.56-.361-1.68.526-1.772l2.412-.25a1 1 0 0 0 .781-.528l1.123-2.13Z"></path></svg>