<svg xmlns="http://www.w3.org/2000/svg" width="32" height="32" fill="none" viewBox="0 0 32 32"><title>Car key</title><path stroke="currentColor" stroke-linecap="round" stroke-linejoin="round" stroke-width="1.5" d="M6.667 10.667 4 17M2 25.957V28a2 2 0 1 0 4 0v-1.827M30 25.957V28a2 2 0 1 1-4 0v-1.882"></path><path stroke="currentColor" stroke-linecap="round" stroke-linejoin="round" stroke-width="1.5" d="M3.667 17h24.666A2.667 2.667 0 0 1 31 19.667v5A1.334 1.334 0 0 1 29.667 26H2.333A1.334 1.334 0 0 1 1 24.667v-5A2.667 2.667 0 0 1 3.667 17v0ZM16.667 5.667a3 3 0 1 0 6 0 3 3 0 0 0-6 0ZM16.667 5.667H9.334v1.97M19 22h-6"></path><path stroke="currentColor" stroke-linecap="round" stroke-linejoin="round" stroke-width="1.5" d="M31 21.5h-4l-1 1M1 21.5h4l1 1M12.334 5.667v2.142M28 17l-2.667-6.333"></path></svg>