<svg xmlns="http://www.w3.org/2000/svg" width="42" height="28" fill="none" viewBox="0 0 42 28"><title>Car part</title><g stroke="currentColor" stroke-linecap="round" stroke-linejoin="round" stroke-width="2"><path d="M27.07 21a1.75 1.75 0 1 0 0-3.5 1.75 1.75 0 0 0 0 3.5Z"></path><path d="m28.556 12.48.515 1.694a1.16 1.16 0 0 0 1.37.796l1.717-.4a1.562 1.562 0 0 1 1.487 2.59l-1.202 1.296a1.167 1.167 0 0 0 0 1.589l1.202 1.296a1.56 1.56 0 0 1-1.487 2.587l-1.717-.397a1.159 1.159 0 0 0-1.37.794l-.515 1.694a1.552 1.552 0 0 1-2.973 0l-.517-1.694a1.158 1.158 0 0 0-1.368-.794l-1.719.397a1.562 1.562 0 0 1-1.486-2.587l1.202-1.296a1.167 1.167 0 0 0 0-1.59l-1.202-1.296a1.562 1.562 0 0 1 1.486-2.588l1.719.399a1.159 1.159 0 0 0 1.368-.796l.517-1.694a1.551 1.551 0 0 1 2.973 0ZM10.383 8.876l2.043-4.55a2.624 2.624 0 0 1 2.458-1.703h10.363a2.622 2.622 0 0 1 2.457 1.703l2.046 4.549M8.694 16.39v1.984a1.75 1.75 0 0 0 3.5 0v-1.75m-.437-4.374a.438.438 0 0 0-.438.438m.875 0a.437.437 0 0 0-.437-.438m0 .875a.437.437 0 0 0 .437-.437m-.877 0a.438.438 0 0 0 .437.437"></path><path d="M31.85 10.499a3.5 3.5 0 0 0-3.033-1.75h-17.5a3.5 3.5 0 0 0-3.5 3.5v2.625a1.75 1.75 0 0 0 1.75 1.75h7"></path></g></svg>