<svg xmlns="http://www.w3.org/2000/svg" width="42" height="28" fill="none" viewBox="0 0 42 28"><title>Car and checklist</title><path stroke="currentColor" stroke-linecap="round" stroke-linejoin="round" stroke-width="2" d="m16 12.5 1.5 1.5 3.5-4M14 9h-2M16 5h-4M19.5 7V2a1 1 0 0 0-1-1h-9a1 1 0 0 0-1 1v10a1 1 0 0 0 1 1H13M35 12h-6"></path><path fill="currentColor" d="m31.4 7.2-.8.6.8-.6ZM35 12l-.8.6a1 1 0 0 0 .245.232L35 12Zm6 4h1v-.535l-.445-.297L41 16Zm0 7v1a1 1 0 0 0 1-1h-1Zm-5-1a1 1 0 1 0 0 2v-2ZM23 3a1 1 0 1 0 0 2V3Zm7.6 4.8 3.6 4.8 1.6-1.2-3.6-4.8-1.6 1.2ZM40 16v7h2v-7h-2Zm1.555-.832-6-4-1.11 1.664 6 4 1.11-1.664ZM32.2 6.6A9 9 0 0 0 25 3v2a7 7 0 0 1 5.6 2.8l1.6-1.2ZM41 22h-5v2h5v-2ZM25 3h-2v2h2V3Z"></path><path stroke="currentColor" stroke-linecap="round" stroke-width="2" d="M36 22.5a4.5 4.5 0 1 1-9 0 4.5 4.5 0 0 1 9 0Z"></path><path stroke="currentColor" stroke-linecap="round" stroke-linejoin="round" stroke-width="2" d="M27 23H14"></path><path stroke="currentColor" stroke-linecap="round" stroke-width="2" d="M14 22.5a4.5 4.5 0 1 1-9 0 4.5 4.5 0 0 1 9 0Z"></path><path stroke="currentColor" stroke-linecap="round" stroke-linejoin="round" stroke-width="2" d="M5 23H3a2 2 0 0 1-2-2v-8l2.5-6.5L2 4h3"></path></svg>