<svg xmlns="http://www.w3.org/2000/svg" width="42" height="28" fill="none" viewBox="0 0 42 28"><title>Car</title><path stroke="currentColor" stroke-width="2" d="M15 21.714h11.304"></path><path stroke="currentColor" stroke-linecap="round" stroke-width="2" d="M3.857 13.143h3.429"></path><path fill="currentColor" d="M33 13.286a1 1 0 1 0 0-2v2Zm-7.714-1-.8.6.3.4h.5v-1Zm-2.572-3.429.8-.6a1 1 0 0 0-.8-.4v1Zm-6.857-1a1 1 0 1 0 0 2v-2ZM33 11.286h-7.714v2H33v-2Zm-6.914.4-2.571-3.429-1.6 1.2 2.57 3.429 1.6-1.2Zm-3.371-3.829h-6.858v2h6.858v-2Z"></path><path fill="currentColor" d="m33 12.286-.8.6c.068.09.151.169.246.232l.554-.832Zm5.143 3.428h1v-.535l-.445-.297-.555.832Zm0 6v1a1 1 0 0 0 1-1h-1Zm-30.857 1a1 1 0 1 0 0-2v2Zm26.571-2a1 1 0 1 0 0 2v-2ZM4.715 5.43v-1a1 1 0 0 0-.858 1.514l.858-.514ZM6 7.572l.934.359a1 1 0 0 0-.076-.874L6 7.572Zm-2.143 5.571-.933-.359a1 1 0 0 0-.067.359h1Zm25.258-4.371 3.085 4.114 1.6-1.2-3.085-4.114-1.6 1.2Zm8.028 6.942v6h2v-6h-2Zm-31.571 7h1.714v-2H5.572v2Zm33.126-7.832-5.143-3.428-1.11 1.664 5.143 3.429 1.11-1.665ZM3.858 5.943l1.285 2.143 1.715-1.029-1.286-2.143-1.715 1.03Zm1.209 1.27-2.143 5.571 1.867.718 2.143-5.571-1.867-.718ZM2.857 20c0 1.5 1.216 2.714 2.715 2.714v-2A.714.714 0 0 1 4.857 20h-2ZM30.715 7.572a7.857 7.857 0 0 0-6.286-3.143v2c1.843 0 3.58.868 4.686 2.343l1.6-1.2ZM2.857 13.143V20h2v-6.857h-2Zm35.286 7.571h-4.286v2h4.286v-2ZM24.43 4.43H4.715v2h19.714v-2Z"></path><path stroke="currentColor" stroke-width="2" d="M33.857 21.285a3.857 3.857 0 1 1-7.714 0 3.857 3.857 0 0 1 7.714 0Zm-18.857 0a3.857 3.857 0 1 1-7.714 0 3.857 3.857 0 0 1 7.714 0Z"></path></svg>