<svg xmlns="http://www.w3.org/2000/svg" width="32" height="32" fill="none" viewBox="0 0 32 32"><title>Car</title><path stroke="currentColor" stroke-linecap="round" stroke-linejoin="round" stroke-width="1.5" d="M30.5 11.5 29 12l-1 2-2.359-7.862A3 3 0 0 0 22.768 4H9.232A3 3 0 0 0 6.36 6.138L4 14l-1-2-1.5-.5M2 25.957V28a2 2 0 1 0 4 0v-1.938M30 25.957V28a2 2 0 1 1-4 0v-1.938"></path><path stroke="currentColor" stroke-linecap="round" stroke-linejoin="round" stroke-width="1.5" d="M3.667 14h24.666a2.56 2.56 0 0 1 1.886.852c.5.546.781 1.286.781 2.057v7.637c0 .385-.14.755-.39 1.028a1.28 1.28 0 0 1-.943.426H2.333a1.28 1.28 0 0 1-.942-.426A1.524 1.524 0 0 1 1 24.545V16.91c0-.771.281-1.511.781-2.057A2.559 2.559 0 0 1 3.667 14Z"></path><path stroke="currentColor" stroke-linecap="round" stroke-linejoin="round" stroke-width="1.5" d="M1 19h6.5L9 22M19 22h-6M31 19h-6.5L23 22"></path></svg>