<svg xmlns="http://www.w3.org/2000/svg" width="24" height="24" fill="none" viewBox="0 0 24 24"><title>Car</title><path stroke="currentColor" stroke-linecap="round" stroke-linejoin="round" stroke-width="1.5" d="M22.875 8.625 21.75 9 21 10.5l-1.822-6.075A2 2 0 0 0 17.262 3H6.738a2 2 0 0 0-1.916 1.425L3 10.5 2.25 9l-1.125-.375M1.5 19.468V21a1.5 1.5 0 0 0 3 0v-1.445M22.5 19.468V21a1.5 1.5 0 1 1-3 0v-1.423"></path><path stroke="currentColor" stroke-linecap="round" stroke-linejoin="round" stroke-width="1.5" d="M2.75 10.5h18.5c.53 0 1.04.23 1.414.639.375.41.586.964.586 1.543v5.727c0 .29-.105.567-.293.771a.96.96 0 0 1-.707.32H1.75a.96.96 0 0 1-.707-.32 1.143 1.143 0 0 1-.293-.77v-5.728c0-.579.21-1.134.586-1.543A1.92 1.92 0 0 1 2.75 10.5Z"></path><path stroke="currentColor" stroke-linecap="round" stroke-linejoin="round" stroke-width="1.5" d="M.75 14.25H5l1.125 2.25M14.25 16.5h-4.5M23.25 14.25H19l-1.125 2.25"></path></svg>