<svg xmlns="http://www.w3.org/2000/svg" width="42" height="28" fill="none" viewBox="0 0 42 28"><title>Shopping cart</title><path stroke="currentColor" stroke-linecap="round" stroke-width="2" d="M8 23.5a3.5 3.5 0 1 0 7 0 3.5 3.5 0 0 0-7 0ZM27 23.5a3.5 3.5 0 1 0 7 0 3.5 3.5 0 0 0-7 0Z"></path><path stroke="currentColor" stroke-linecap="round" stroke-linejoin="round" stroke-width="2" d="M9 5h28.316a.5.5 0 0 1 .477.652l-2.406 7.56A4 4 0 0 1 31.575 16H13.5M12.5 20l1-4L7.261 1.602A1 1 0 0 0 6.343 1H4M27 22H15"></path></svg>