<svg xmlns="http://www.w3.org/2000/svg" width="42" height="28" fill="none" viewBox="0 0 42 28"><title>Chainsaw</title><path stroke="currentColor" stroke-linecap="round" stroke-linejoin="round" stroke-width="2" d="M15 13h8M15 5h20a4 4 0 0 1 4 4v0a4 4 0 0 1-4 4h-1"></path><path stroke="currentColor" stroke-linecap="round" stroke-width="2" d="M14 2H7.5a3 3 0 0 0-3 3v3l-2.207 2.207a1 1 0 0 0-.293.707V15a1 1 0 0 0 1 1h11a1 1 0 0 0 1-1V3a1 1 0 0 0-1-1ZM11.5 6H8M18 23l-3 3M17 19l-1 1M21.5 9H15"></path><circle cx="28.5" cy="18.5" r="7.5" stroke="currentColor" stroke-linecap="round" stroke-linejoin="round" stroke-width="2"></circle><path stroke="currentColor" stroke-linecap="round" stroke-linejoin="round" stroke-width="2" d="M32 19a4 4 0 0 0-4-4M19 4v1M19 13v1M24 4v1M29 4v1M34 4v1M38.606 12.58l-.5-.58M38.106 5.849l.505-.584M40 9h-1"></path></svg>