<svg xmlns="http://www.w3.org/2000/svg" width="42" height="28" fill="none" viewBox="0 0 42 28"><title>Chair</title><path stroke="currentColor" stroke-linecap="round" stroke-linejoin="round" stroke-width="2" d="M26.2 24.746H15.8a7.761 7.761 0 0 1-5.513-2.315A7.952 7.952 0 0 1 8 16.85c0-.698.274-1.367.762-1.861a2.584 2.584 0 0 1 1.838-.77c.69 0 1.35.276 1.838.77.488.493.762 1.163.762 1.86 0 .699.275 1.368.762 1.86a2.584 2.584 0 0 0 1.838.772h10.4c.69 0 1.35-.278 1.838-.771a2.65 2.65 0 0 0 .762-1.86c0-.698.274-1.367.761-1.861a2.584 2.584 0 0 1 1.839-.77c.69 0 1.35.276 1.839.77.487.493.761 1.163.761 1.86a7.951 7.951 0 0 1-2.287 5.58 7.761 7.761 0 0 1-5.513 2.316ZM11.467 26.5l1.197-2.422m17.87 2.422-1.198-2.422"></path><path stroke="currentColor" stroke-linecap="round" stroke-linejoin="round" stroke-width="2" d="m30.18 14.528-.925-10.053a3.52 3.52 0 0 0-1.17-2.13 3.442 3.442 0 0 0-2.257-.845h-9.654c-.828 0-1.628.3-2.257.846a3.52 3.52 0 0 0-1.169 2.13l-.924 10.052"></path><path stroke="currentColor" stroke-linecap="round" stroke-linejoin="round" stroke-width="2" d="M25.333 15.974v-1.755c0-.465-.182-.911-.507-1.24a1.723 1.723 0 0 0-1.226-.514h-5.2c-.46 0-.9.185-1.226.514a1.765 1.765 0 0 0-.508 1.24v1.755"></path></svg>