<svg xmlns="http://www.w3.org/2000/svg" width="24" height="24" fill="none" viewBox="0 0 24 24"><title>Charging cable</title><path stroke="currentColor" stroke-linecap="round" stroke-linejoin="round" stroke-width="1.5" d="M9 15.75a6 6 0 0 1-6-6v-3a1.5 1.5 0 0 1 1.5-1.5h9a1.5 1.5 0 0 1 1.5 1.5v3a6 6 0 0 1-6 6ZM6 5.25V.75M12 5.25V.75"></path><path stroke="currentColor" stroke-linecap="round" stroke-linejoin="round" stroke-width="1.5" d="M21 23.25v-4.5a3 3 0 0 0-6 0 3 3 0 0 1-6 0v-2.969M7.5 8.25h3"></path></svg>