<svg xmlns="http://www.w3.org/2000/svg" width="32" height="32" fill="none" viewBox="0 0 32 32"><title>Suitcase</title><path stroke="currentColor" stroke-linecap="round" stroke-linejoin="round" stroke-width="1.5" d="M26.995 12v-1.003a4 4 0 0 0-4-4h-18a4 4 0 0 0-4 4v12a4 4 0 0 0 4 4h6.978M7.995 6.997v20M19.995 6.997V12M10 6.997v-4a2 2 0 0 1 2-2h4a2 2 0 0 1 2 2v3.94"></path><path stroke="currentColor" stroke-linecap="round" stroke-linejoin="round" stroke-width="1.5" d="M22.995 30.997a8 8 0 1 0 0-16 8 8 0 0 0 0 16Z"></path><path stroke="currentColor" stroke-linecap="round" stroke-linejoin="round" stroke-width="1.5" d="M15.577 26H18a2 2 0 0 0 2-2v-1.003l2.4-1.797a2.002 2.002 0 0 0 .4-2.8L20.6 15.463M27.212 29.796l-.828-3.241a2 2 0 0 1 1.047-2.275l3.438-1.73"></path></svg>