<svg xmlns="http://www.w3.org/2000/svg" width="25" height="25" fill="none" viewBox="0 0 25 25"><title>Suitcase</title><path stroke="currentColor" stroke-linecap="round" stroke-linejoin="round" stroke-width="1.5" d="M21.09 9.376v-.784a3.125 3.125 0 0 0-3.124-3.124H3.906A3.124 3.124 0 0 0 .78 8.592v9.374a3.125 3.125 0 0 0 3.125 3.124h5.476M6.249 5.468V21.09M15.623 5.468v3.907"></path><path stroke="currentColor" stroke-linecap="round" stroke-linejoin="round" stroke-width="1.5" d="M7.815 5.468V2.343A1.562 1.562 0 0 1 9.378.781h3.124a1.563 1.563 0 0 1 1.562 1.562V5.34M17.966 24.215a6.249 6.249 0 1 0 0-12.498 6.249 6.249 0 0 0 0 12.498Z"></path><path stroke="currentColor" stroke-linecap="round" stroke-linejoin="round" stroke-width="1.5" d="M12.172 20.311h1.892a1.562 1.562 0 0 0 1.563-1.562v-.783l1.874-1.404a1.562 1.562 0 0 0 .313-2.187l-1.729-2.309M21.26 23.276l-.647-2.532a1.562 1.562 0 0 1 .818-1.776l2.739-1.379"></path></svg>