<svg xmlns="http://www.w3.org/2000/svg" width="32" height="32" fill="none" viewBox="0 0 32 32"><title>Speech bubbles with smiley faces</title><path stroke="currentColor" stroke-linecap="round" stroke-linejoin="round" stroke-width="1.5" d="M12.102 24.923 7.795 28v-6.154H3.487a2.21 2.21 0 0 1-1.523-.6 2.003 2.003 0 0 1-.631-1.451V3.385c0-.544.227-1.066.63-1.45a2.21 2.21 0 0 1 1.524-.602h25.025c.572 0 1.12.216 1.523.601.404.385.631.907.631 1.45V9.5"></path><path stroke="currentColor" stroke-linecap="round" stroke-linejoin="round" stroke-width="1.5" d="M7.99 14.267c1.261.667 2.611 1.15 4.01 1.432M10.666 6.667v2M21.333 6.667v2M30.666 25.778c0 .736-.597 1.333-1.333 1.333h-2v3.556l-5-3.556h-3.667a1.333 1.333 0 0 1-1.333-1.333v-7.111c0-.737.597-1.334 1.333-1.334h10.667c.736 0 1.333.597 1.333 1.334v7.11Z"></path></svg>