<svg xmlns="http://www.w3.org/2000/svg" width="24" height="24" fill="none" viewBox="0 0 24 24"><title>Speech bubble next to a person</title><path stroke="currentColor" stroke-linecap="round" stroke-linejoin="round" stroke-width="1.5" d="m8.5 17.5-3 2.5v-4.5H2.462A1.462 1.462 0 0 1 1 14.039V2.462A1.462 1.462 0 0 1 2.462 1h16.076A1.461 1.461 0 0 1 20 2.462v4.35M5 5h11M5 9h5"></path><path stroke="currentColor" stroke-linecap="round" stroke-linejoin="round" stroke-width="1.5" d="M17 19a4 4 0 1 0 0-8 4 4 0 0 0 0 8ZM22 22c-.483-.604-1.204-1.11-2.084-1.462A7.922 7.922 0 0 0 17 20a7.922 7.922 0 0 0-2.915.538c-.881.353-1.602.858-2.085 1.462"></path></svg>