<svg xmlns="http://www.w3.org/2000/svg" width="32" height="32" fill="none" viewBox="0 0 32 32"><title>Speech bubble next to a person</title><path stroke="currentColor" stroke-linecap="round" stroke-linejoin="round" stroke-width="1.5" d="M11.737 23.421 8 27v-6H3.897A1.898 1.898 0 0 1 2 19.103V3.897A1.897 1.897 0 0 1 3.897 2h21.206A1.898 1.898 0 0 1 27 3.897v5.648M6.667 6.667h14.666M6.667 12h6.666"></path><path stroke="currentColor" stroke-linecap="round" stroke-linejoin="round" stroke-width="1.5" d="M22.667 25.667a5.333 5.333 0 1 0 0-10.667 5.333 5.333 0 0 0 0 10.667ZM29.333 29.667c-.644-.806-1.605-1.48-2.779-1.95-1.174-.469-2.518-.717-3.887-.717-1.37 0-2.713.248-3.888.718-1.174.47-2.135 1.143-2.779 1.949"></path></svg>