<svg xmlns="http://www.w3.org/2000/svg" width="24" height="24" fill="none" viewBox="0 0 24 24"><title>Speech bubbles with smiley faces</title><path stroke="currentColor" stroke-linecap="round" stroke-linejoin="round" stroke-width="1.5" d="M9.077 18.692 5.847 21v-4.615H2.614c-.428 0-.839-.163-1.142-.451A1.502 1.502 0 0 1 1 14.846V2.538c0-.408.17-.799.473-1.087C1.776 1.162 2.187 1 2.615 1h18.77c.428 0 .839.162 1.142.45.303.29.473.68.473 1.088v4.567"></path><path stroke="currentColor" stroke-linecap="round" stroke-linejoin="round" stroke-width="1.5" d="M5.993 10.7c.946.5 1.958.862 3.007 1.074M8 5v1.5M16 5v1.5M23 19.333a1 1 0 0 1-1 1h-1.5V23l-3.75-2.667H14a1 1 0 0 1-1-1V14a1 1 0 0 1 1-1h8a1 1 0 0 1 1 1v5.333Z"></path></svg>