<svg xmlns="http://www.w3.org/2000/svg" width="32" height="32" fill="none" viewBox="0 0 32 32"><title>Checklist</title><path stroke="currentColor" stroke-linecap="round" stroke-width="1.5" d="M26 10V6.658a1.5 1.5 0 0 0-.484-1.104l-4.377-4.026A2 2 0 0 0 19.785 1H2.5A1.5 1.5 0 0 0 1 2.5v23A1.5 1.5 0 0 0 2.5 27h8.283M6 7h14M6 14h7M6 21h3"></path><circle cx="23" cy="23" r="8" stroke="currentColor" stroke-width="1.5"></circle><path stroke="currentColor" stroke-linecap="round" stroke-linejoin="round" stroke-width="1.5" d="m19.5 24 2.114 1.691a.5.5 0 0 0 .7-.074L26.5 20.5"></path></svg>