<svg xmlns="http://www.w3.org/2000/svg" width="16" height="16" fill="none" viewBox="0 0 16 16"><title>Person in a circle</title><path fill="currentColor" fill-rule="evenodd" d="M0 8a8 8 0 1 1 16 0A8 8 0 0 1 0 8Zm8 7a6.97 6.97 0 0 1-4.216-1.412 6.077 6.077 0 0 1 1.889-1.275 5.932 5.932 0 0 1 4.669 0c.698.299 1.336.73 1.882 1.27A6.97 6.97 0 0 1 8 15ZM8 2.667a4 4 0 1 0 0 8 4 4 0 0 0 0-8ZM5.27 5.42a3 3 0 1 0 5.722 1.027 7.12 7.12 0 0 1-1.763.22 7.07 7.07 0 0 1-2.279-.374 6.193 6.193 0 0 1-1.68-.873Z" clip-rule="evenodd"></path></svg>