<svg xmlns="http://www.w3.org/2000/svg" width="32" height="32" fill="none" viewBox="0 0 32 32"><title>Person in a circle</title><path fill="currentColor" fill-rule="evenodd" d="M0 16C0 7.163 7.163 0 16 0s16 7.163 16 16-7.163 16-16 16S0 24.837 0 16Zm16 14c-3.166 0-6.087-1.05-8.432-2.823a12.153 12.153 0 0 1 3.778-2.551c1.48-.634 3.067-.96 4.668-.96 1.602 0 3.189.326 4.67.96a12.151 12.151 0 0 1 3.764 2.538A13.938 13.938 0 0 1 16 30Zm0-24.667a8 8 0 1 0 0 16 8 8 0 0 0 0-16Zm-5.459 5.507a6 6 0 1 0 11.443 2.054c-1.14.291-2.33.44-3.527.44-1.561 0-3.11-.254-4.556-.748a12.386 12.386 0 0 1-3.36-1.746Z" clip-rule="evenodd"></path></svg>