<svg xmlns="http://www.w3.org/2000/svg" width="24" height="24" fill="none" viewBox="0 0 24 24"><title>Person in a circle</title><path fill="currentColor" fill-rule="evenodd" d="M0 12C0 5.373 5.373 0 12 0s12 5.373 12 12-5.373 12-12 12S0 18.627 0 12Zm12 10.5c-2.375 0-4.565-.788-6.324-2.117a9.115 9.115 0 0 1 2.833-1.914 8.898 8.898 0 0 1 7.003 0 9.113 9.113 0 0 1 2.824 1.904A10.454 10.454 0 0 1 12 22.5ZM12 4a6 6 0 1 0 0 12 6 6 0 0 0 0-12ZM7.906 8.13a4.5 4.5 0 1 0 8.582 1.54 10.69 10.69 0 0 1-2.645.33 10.61 10.61 0 0 1-3.417-.56 9.29 9.29 0 0 1-2.52-1.31Z" clip-rule="evenodd"></path></svg>