<svg xmlns="http://www.w3.org/2000/svg" width="32" height="32" fill="none" viewBox="0 0 32 32"><title>Circle with user profile</title><path stroke="currentColor" stroke-linecap="round" stroke-linejoin="round" stroke-width="2" d="M16 20a7 7 0 1 0 0-14 7 7 0 0 0 0 14Z"></path><path stroke="currentColor" stroke-linecap="round" stroke-linejoin="round" stroke-width="2" d="M16 31c8.284 0 15-6.716 15-15 0-8.284-6.716-15-15-15C7.714 1 1 7.716 1 16c0 8.284 6.715 15 15 15Z"></path><path stroke="currentColor" stroke-linecap="round" stroke-linejoin="round" stroke-width="2" d="M6.782 27.834a12.994 12.994 0 0 1 18.38-.055M9.967 9.445a11.613 11.613 0 0 0 3.82 2.63c1.68.676 2.671.892 4.546.925 1.581 0 3.147-.322 4.6-.947"></path></svg>