<svg xmlns="http://www.w3.org/2000/svg" width="32" height="32" fill="none" viewBox="0 0 32 32"><title>Gear</title><path stroke="currentColor" stroke-linecap="round" stroke-linejoin="round" stroke-width="1.5" d="M14.061 3.25a2.61 2.61 0 0 0 3.878 0l1.26-1.383a2.612 2.612 0 0 1 4.548 1.884l-.095 1.866a2.61 2.61 0 0 0 2.735 2.739l1.866-.095a2.612 2.612 0 0 1 1.88 4.547l-1.39 1.253a2.614 2.614 0 0 0 0 3.879l1.39 1.253a2.612 2.612 0 0 1-1.884 4.547l-1.866-.095a2.61 2.61 0 0 0-2.742 2.742l.095 1.866a2.612 2.612 0 0 1-4.536 1.88l-1.255-1.388a2.613 2.613 0 0 0-3.877 0l-1.26 1.388a2.612 2.612 0 0 1-4.541-1.877l.096-1.867a2.61 2.61 0 0 0-2.742-2.741l-1.866.095A2.61 2.61 0 0 1 1.867 19.2l1.388-1.253a2.613 2.613 0 0 0 0-3.879l-1.388-1.26a2.61 2.61 0 0 1 1.878-4.541l1.867.094a2.61 2.61 0 0 0 2.744-2.746l-.09-1.868a2.612 2.612 0 0 1 4.542-1.88L14.06 3.25Z"></path><path stroke="currentColor" stroke-linecap="round" stroke-linejoin="round" stroke-width="1.5" d="M16 21.333a5.333 5.333 0 1 0 0-10.666 5.333 5.333 0 0 0 0 10.666Z"></path></svg>