<svg xmlns="http://www.w3.org/2000/svg" width="16" height="16" fill="none" viewBox="0 0 16 16"><title>Gear</title><circle cx="7.953" cy="7.953" r="2" stroke="currentColor" stroke-width="1.5"></circle><path stroke="currentColor" stroke-width="1.5" d="M7.035 1.534c.268-.983 1.662-.983 1.93 0l.34 1.248a1 1 0 0 0 1.461.605l1.124-.642c.884-.505 1.87.48 1.365 1.365l-.642 1.124a1 1 0 0 0 .605 1.46l1.248.341c.983.268.983 1.662 0 1.93l-1.248.34a1 1 0 0 0-.605 1.461l.642 1.124c.504.884-.48 1.87-1.365 1.365l-1.124-.642a1 1 0 0 0-1.46.605l-.341 1.248c-.268.983-1.662.983-1.93 0l-.34-1.248a1 1 0 0 0-1.461-.605l-1.124.642c-.884.504-1.87-.48-1.365-1.365l.642-1.124a1 1 0 0 0-.605-1.46l-1.248-.341c-.983-.268-.983-1.662 0-1.93l1.248-.34a1 1 0 0 0 .605-1.461L2.745 4.11c-.505-.884.48-1.87 1.365-1.365l1.124.642a1 1 0 0 0 1.46-.605l.341-1.248Z"></path></svg>