<svg xmlns="http://www.w3.org/2000/svg" width="32" height="32" fill="none" viewBox="0 0 32 32"><title>Color palette</title><path stroke="currentColor" stroke-linecap="round" stroke-linejoin="round" stroke-width="1.5" d="M10 1H4a2 2 0 0 0-2 2v26a2 2 0 0 0 2 2h6a2 2 0 0 0 2-2V3a2 2 0 0 0-2-2ZM15.687 1.152l5.545 2.29a2 2 0 0 1 1.085 2.611L12 29"></path><path stroke="currentColor" stroke-linecap="round" stroke-linejoin="round" stroke-width="1.5" d="m25.441 7.72 4.039 4.437a2 2 0 0 1-.134 2.826L11.767 29.94M2 7h10M2 13h10M2 19h10"></path></svg>