<svg xmlns="http://www.w3.org/2000/svg" width="24" height="24" fill="none" viewBox="0 0 24 24"><title>Color palette</title><path stroke="currentColor" stroke-linecap="round" stroke-linejoin="round" stroke-width="1.5" d="M7.5.75H3a1.5 1.5 0 0 0-1.5 1.5v19.5a1.5 1.5 0 0 0 1.5 1.5h4.5a1.5 1.5 0 0 0 1.5-1.5V2.25A1.5 1.5 0 0 0 7.5.75ZM9 21.75l7.738-17.21a1.5 1.5 0 0 0-.814-1.959L11.833.892"></path><path stroke="currentColor" stroke-linecap="round" stroke-linejoin="round" stroke-width="1.5" d="M8.824 22.455 22.01 11.237a1.5 1.5 0 0 0 .1-2.119L19.14 5.853M1.5 5.25H9M1.5 9.75H9M1.5 14.25H9"></path></svg>