<svg xmlns="http://www.w3.org/2000/svg" width="24" height="24" fill="none" viewBox="0 0 24 24"><title>Percentage sign</title><path stroke="currentColor" stroke-linecap="round" stroke-linejoin="round" stroke-width="1.5" d="M22.125 12a3.491 3.491 0 0 0-2.356-3.338 3.6 3.6 0 0 0-.61-4.087 3.286 3.286 0 0 0-3.941-.632 3.341 3.341 0 0 0-6.436 0 3.288 3.288 0 0 0-3.942.632 3.6 3.6 0 0 0-.61 4.087 3.542 3.542 0 0 0 0 6.675 3.6 3.6 0 0 0 .61 4.087 3.288 3.288 0 0 0 3.942.633 3.34 3.34 0 0 0 6.436 0 3.286 3.286 0 0 0 3.94-.633 3.6 3.6 0 0 0 .61-4.087A3.49 3.49 0 0 0 22.126 12v0ZM8.625 15.75l7.5-7.5"></path><path stroke="currentColor" stroke-linecap="round" stroke-linejoin="round" stroke-width="1.5" d="M9.375 10.5a1.5 1.5 0 1 0 0-3 1.5 1.5 0 0 0 0 3ZM15.375 16.5a1.5 1.5 0 1 0 0-3 1.5 1.5 0 0 0 0 3Z"></path></svg>