<svg xmlns="http://www.w3.org/2000/svg" width="32" height="32" fill="none" viewBox="0 0 32 32"><title>Percentage sign</title><path stroke="currentColor" stroke-linecap="round" stroke-linejoin="round" stroke-width="1.5" d="M29.5 16a4.656 4.656 0 0 0-3.142-4.45 4.8 4.8 0 0 0-.813-5.45 4.382 4.382 0 0 0-5.255-.843 4.455 4.455 0 0 0-8.58 0 4.384 4.384 0 0 0-5.257.843 4.8 4.8 0 0 0-.812 5.45 4.723 4.723 0 0 0 0 8.9 4.8 4.8 0 0 0 .812 5.449 4.384 4.384 0 0 0 5.256.844 4.455 4.455 0 0 0 8.582 0 4.38 4.38 0 0 0 5.254-.844 4.8 4.8 0 0 0 .813-5.45A4.653 4.653 0 0 0 29.5 16v0ZM11.5 21l10-10"></path><path stroke="currentColor" stroke-linecap="round" stroke-linejoin="round" stroke-width="1.5" d="M12.5 14a2 2 0 1 0 0-4 2 2 0 0 0 0 4ZM20.5 22a2 2 0 1 0 0-4 2 2 0 0 0 0 4Z"></path></svg>