<svg xmlns="http://www.w3.org/2000/svg" width="16" height="16" fill="none" viewBox="0 0 16 16"><title>Door</title><path stroke="currentColor" stroke-linecap="round" stroke-linejoin="round" d="M10.711 2h2.955a1 1 0 0 1 1 1v10a1 1 0 0 1-1 1h-2.955m-2.642 1.329-6.286-.839a.534.534 0 0 1-.322-.163.47.47 0 0 1-.128-.32V2.604c0-.112.041-.22.116-.308a.53.53 0 0 1 .298-.17L8.033.677a.56.56 0 0 1 .439.098c.06.045.11.103.143.17a.462.462 0 0 1 .051.21v13.689c0 .07-.016.139-.047.203a.492.492 0 0 1-.133.166.56.56 0 0 1-.417.115ZM5.667 8h1"></path></svg>