<svg xmlns="http://www.w3.org/2000/svg" width="32" height="32" fill="none" viewBox="0 0 32 32"><title>Door</title><path stroke="currentColor" stroke-linecap="round" stroke-linejoin="round" stroke-width="2" d="M21.4 4h5.934a2 2 0 0 1 2 2v20a2 2 0 0 1-2 2H21.4m-5.262 2.657L3.567 28.98a1.069 1.069 0 0 1-.644-.327.94.94 0 0 1-.256-.64V5.207c0-.224.082-.44.233-.615.15-.174.36-.295.595-.342l12.572-2.895a1.12 1.12 0 0 1 .463.005c.152.034.294.1.415.191.122.092.22.208.287.34a.924.924 0 0 1 .102.42V29.69c0 .14-.033.279-.095.406a.986.986 0 0 1-.267.333 1.07 1.07 0 0 1-.39.199 1.12 1.12 0 0 1-.444.03ZM11.334 16h2"></path></svg>