<svg xmlns="http://www.w3.org/2000/svg" width="24" height="24" fill="none" viewBox="0 0 24 24"><title>Door</title><path stroke="currentColor" stroke-linecap="round" stroke-linejoin="round" stroke-width="1.5" d="M16.068 3H20.5A1.5 1.5 0 0 1 22 4.5v15a1.5 1.5 0 0 1-1.5 1.5h-4.432m-3.965 1.993-9.428-1.258a.802.802 0 0 1-.483-.245.704.704 0 0 1-.192-.48V3.906c0-.168.061-.331.175-.462a.796.796 0 0 1 .446-.256l9.429-2.172a.84.84 0 0 1 .659.147.743.743 0 0 1 .215.255.7.7 0 0 1 .076.316v20.533a.693.693 0 0 1-.071.305.738.738 0 0 1-.2.249.84.84 0 0 1-.626.172ZM8.5 12H10"></path></svg>