<svg xmlns="http://www.w3.org/2000/svg" width="32" height="32" fill="none" viewBox="0 0 32 32"><title>Double bed</title><path stroke="currentColor" stroke-linecap="round" stroke-linejoin="round" stroke-width="1.5" d="M28 1H4a2 2 0 0 0-2 2v26a2 2 0 0 0 2 2h24a2 2 0 0 0 2-2V3a2 2 0 0 0-2-2Z"></path><path stroke="currentColor" stroke-linecap="round" stroke-linejoin="round" stroke-width="1.5" d="M12 5H8a2 2 0 0 0-2 2v2a2 2 0 0 0 2 2h4a2 2 0 0 0 2-2V7a2 2 0 0 0-2-2ZM24 5h-4a2 2 0 0 0-2 2v2a2 2 0 0 0 2 2h4a2 2 0 0 0 2-2V7a2 2 0 0 0-2-2ZM2 11h28M2 17h28"></path></svg>