<svg xmlns="http://www.w3.org/2000/svg" width="24" height="24" fill="none" viewBox="0 0 24 24"><title>Double bed</title><path stroke="currentColor" stroke-linecap="round" stroke-linejoin="round" stroke-width="1.5" d="M21 .75H3a1.5 1.5 0 0 0-1.5 1.5v19.5a1.5 1.5 0 0 0 1.5 1.5h18a1.5 1.5 0 0 0 1.5-1.5V2.25A1.5 1.5 0 0 0 21 .75Z"></path><path stroke="currentColor" stroke-linecap="round" stroke-linejoin="round" stroke-width="1.5" d="M9 3.75H6a1.5 1.5 0 0 0-1.5 1.5v1.5A1.5 1.5 0 0 0 6 8.25h3a1.5 1.5 0 0 0 1.5-1.5v-1.5A1.5 1.5 0 0 0 9 3.75ZM18 3.75h-3a1.5 1.5 0 0 0-1.5 1.5v1.5a1.5 1.5 0 0 0 1.5 1.5h3a1.5 1.5 0 0 0 1.5-1.5v-1.5a1.5 1.5 0 0 0-1.5-1.5ZM1.5 8.25h21M1.5 12.75h21"></path></svg>