<svg xmlns="http://www.w3.org/2000/svg" width="42" height="28" fill="none" viewBox="0 0 42 28"><title>Banknote and two coins</title><path stroke="currentColor" stroke-linecap="round" stroke-linejoin="round" stroke-width="2" d="M31.31 17.238a6.071 6.071 0 1 0 0-12.143 6.071 6.071 0 0 0 0 12.143Z"></path><path stroke="currentColor" stroke-linecap="round" stroke-linejoin="round" stroke-width="2" d="M28.476 11.571a3.238 3.238 0 0 1 3.238-3.238m-6.476 2.429a6.072 6.072 0 1 0 6.442 6.703"></path><path stroke="currentColor" stroke-linecap="round" stroke-linejoin="round" stroke-width="2" d="M17.143 22.095H7.429a.81.81 0 0 1-.81-.81V6.716a.81.81 0 0 1 .81-.81h16.19M10.667 18.857h-.81m.81-9.714h-.81"></path><path stroke="currentColor" stroke-linecap="round" stroke-linejoin="round" stroke-width="2" d="M16.333 16.256a2.298 2.298 0 0 1-.877.173c-1.304 0-2.36-1.088-2.36-2.429 0-1.341 1.056-2.428 2.36-2.428.31 0 .606.061.877.173"></path></svg>