<svg xmlns="http://www.w3.org/2000/svg" width="32" height="32" fill="none" viewBox="0 0 32 32"><title>Lightning bolt</title><path stroke="currentColor" stroke-linecap="round" stroke-linejoin="round" stroke-width="1.5" d="M9 9a4 4 0 1 0 0-8H6v8h3ZM6 3H2M6 7H2"></path><path stroke="currentColor" stroke-linecap="round" stroke-linejoin="round" stroke-width="1.5" d="M23 27H9a5 5 0 0 1 0-10h15a6 6 0 1 0 0-12H13.238"></path><path stroke="currentColor" stroke-linecap="round" stroke-linejoin="round" stroke-width="1.5" d="M18.8 31a4 4 0 0 1-3.945-4.667A4.149 4.149 0 0 1 19.015 23h3.362a8 8 0 0 1 4.44 1.344l2.735 1.824a.998.998 0 0 1 0 1.664l-2.736 1.824A8 8 0 0 1 22.377 31H18.8Z"></path></svg>