<svg xmlns="http://www.w3.org/2000/svg" width="24" height="24" fill="none" viewBox="0 0 24 24"><title>Fan belt</title><path fill="currentColor" d="m11.472 3 .59-.464a.782.782 0 0 0-.03-.036l-.56.5Zm10.802 13.702.614-.432a.652.652 0 0 0-.025-.033l-.589.465ZM3 22.25c-.69 0-1.25-.56-1.25-1.25H.25A2.75 2.75 0 0 0 3 23.75v-1.5ZM1.75 7C1.75 4.1 4.1 1.75 7 1.75V.25A6.75 6.75 0 0 0 .25 7h1.5ZM19 22.25H3v1.5h16v-1.5ZM.25 7v14h1.5V7H.25ZM7 1.75c1.555 0 2.951.675 3.913 1.75l1.118-1A6.735 6.735 0 0 0 7 .25v1.5Zm3.883 1.714 10.802 13.702 1.178-.929L12.061 2.536l-1.178.928Zm10.778 13.67c1.456 2.07-.08 5.116-2.661 5.116v1.5c3.818 0 6.03-4.432 3.888-7.48l-1.227.863Z"></path><path fill="currentColor" d="M21.66 17.133a.75.75 0 1 0 1.228-.863l-1.227.863ZM19 22.25A3.25 3.25 0 0 1 15.75 19h-1.5A4.75 4.75 0 0 0 19 23.75v-1.5ZM15.75 19A3.25 3.25 0 0 1 19 15.75v-1.5A4.75 4.75 0 0 0 14.25 19h1.5ZM19 15.75c1.1 0 2.071.545 2.66 1.383l1.228-.863A4.745 4.745 0 0 0 19 14.25v1.5Z"></path><path stroke="currentColor" stroke-linecap="round" stroke-width="1.5" d="M5 21a2 2 0 1 1-4 0 2 2 0 0 1 4 0Z"></path><path fill="currentColor" d="M12.031 2.5a.75.75 0 0 0-1.118 1l1.118-1ZM12.25 7c0 2.9-2.35 5.25-5.25 5.25v1.5A6.75 6.75 0 0 0 13.75 7h-1.5ZM7 12.25A5.25 5.25 0 0 1 1.75 7H.25A6.75 6.75 0 0 0 7 13.75v-1.5Zm3.913-8.75A5.228 5.228 0 0 1 12.25 7h1.5c0-1.728-.65-3.306-1.719-4.5l-1.118 1Z"></path><path stroke="currentColor" stroke-linecap="round" stroke-width="1.5" d="M10 7a3 3 0 1 1-6 0 3 3 0 0 1 6 0Z"></path></svg>