<svg xmlns="http://www.w3.org/2000/svg" width="32" height="32" fill="none" viewBox="0 0 32 32"><title>Fan belt</title><path fill="currentColor" d="m15.138 3.7.59-.464a.72.72 0 0 0-.031-.036l-.559.5Zm14.583 18.498.614-.431a.652.652 0 0 0-.025-.033l-.589.464Zm-26.02 7.753a1.95 1.95 0 0 1-1.951-1.95H.25a3.45 3.45 0 0 0 3.45 3.45v-1.5ZM1.75 9.101A7.35 7.35 0 0 1 9.1 1.75V.25A8.85 8.85 0 0 0 .25 9.1h1.5Zm23.551 20.85h-21.6v1.5h21.6v-1.5ZM.25 9.101V28h1.5v-18.9H.25ZM9.1 1.75a7.33 7.33 0 0 1 5.48 2.45l1.117-1A8.83 8.83 0 0 0 9.1.25v1.5Zm5.45 2.414 14.582 18.498 1.178-.928L15.727 3.236l-1.178.928ZM29.107 22.63c2.087 2.967-.105 7.321-3.807 7.321v1.5c4.938 0 7.807-5.741 5.034-9.684l-1.227.863Z"></path><path fill="currentColor" d="M29.108 22.63a.75.75 0 1 0 1.227-.863l-1.227.863Zm-3.807 7.321a4.65 4.65 0 0 1-4.65-4.65h-1.5a6.15 6.15 0 0 0 6.15 6.15v-1.5Zm-4.65-4.65a4.65 4.65 0 0 1 4.65-4.65v-1.5a6.15 6.15 0 0 0-6.15 6.15h1.5Zm4.65-4.65c1.573 0 2.964.78 3.807 1.979l1.227-.863a6.144 6.144 0 0 0-5.034-2.616v1.5Z"></path><path stroke="currentColor" stroke-linecap="round" stroke-width="1.5" d="M6.4 28.001a2.7 2.7 0 1 1-5.4 0 2.7 2.7 0 0 1 5.4 0Z"></path><path fill="currentColor" d="M15.697 3.2a.75.75 0 1 0-1.118 1l1.118-1Zm.754 5.9a7.35 7.35 0 0 1-7.35 7.35v1.5a8.85 8.85 0 0 0 8.85-8.85h-1.5ZM9.1 16.45A7.35 7.35 0 0 1 1.75 9.1H.25a8.85 8.85 0 0 0 8.85 8.85v-1.5ZM14.578 4.2a7.32 7.32 0 0 1 1.872 4.9h1.5a8.82 8.82 0 0 0-2.254-5.9l-1.118 1Z"></path><path stroke="currentColor" stroke-linecap="round" stroke-width="1.5" d="M13.15 9.1a4.05 4.05 0 1 1-8.1 0 4.05 4.05 0 0 1 8.1 0Z"></path></svg>