<svg xmlns="http://www.w3.org/2000/svg" width="32" height="32" fill="none" viewBox="0 0 32 32"><title>Engine</title><rect width="29.333" height="25.333" x="1.333" y="5.333" stroke="currentColor" stroke-linecap="round" stroke-linejoin="round" stroke-width="1.5" rx="2.667"></rect><path stroke="currentColor" stroke-linecap="round" stroke-linejoin="round" stroke-width="1.5" d="M30.667 13.333H1.333M25.333 18.667H6.667M10.666 18.667v4a2.667 2.667 0 0 0 2.667 2.666h17.334M28 5.333V2.667c0-.737-.597-1.334-1.334-1.334H24c-.736 0-1.334.597-1.334 1.334v2.666M18.667 5.333V2.667c0-.737-.597-1.334-1.334-1.334h-2.666c-.737 0-1.333.597-1.333 1.334v2.666M9.333 5.333V2.667c0-.737-.597-1.334-1.333-1.334H5.333C4.597 1.333 4 1.93 4 2.667v2.666"></path></svg>