<svg xmlns="http://www.w3.org/2000/svg" width="24" height="24" fill="none" viewBox="0 0 24 24"><title>Engine</title><rect width="22" height="19" x="1" y="4" stroke="currentColor" stroke-linecap="round" stroke-linejoin="round" stroke-width="1.5" rx="2"></rect><path stroke="currentColor" stroke-linecap="round" stroke-linejoin="round" stroke-width="1.5" d="M23 10H1M19 14H5M8 14v3a2 2 0 0 0 2 2h13M21 4V2a1 1 0 0 0-1-1h-2a1 1 0 0 0-1 1v2M14 4V2a1 1 0 0 0-1-1h-2a1 1 0 0 0-1 1v2M7 4V2a1 1 0 0 0-1-1H4a1 1 0 0 0-1 1v2"></path></svg>