<svg xmlns="http://www.w3.org/2000/svg" width="32" height="32" fill="none" viewBox="0 0 32 32"><title>Closed eye</title><path stroke="currentColor" stroke-linecap="round" stroke-linejoin="round" stroke-width="1.5" d="m3.71 28 25-24M11.952 25.401c1.31.407 2.676.61 4.048.599 5.467.092 11.01-3.75 14.432-7.516a2.217 2.217 0 0 0 0-2.968 27.422 27.422 0 0 0-4.076-3.66M5.038 21.681a27.729 27.729 0 0 1-3.466-3.2 2.217 2.217 0 0 1 0-2.968C5.066 11.67 10.625 7.911 16 8a12.733 12.733 0 0 1 3.185.368"></path><path stroke="currentColor" stroke-linecap="round" stroke-linejoin="round" stroke-width="1.5" d="M11 17a4.998 4.998 0 0 1 4.96-5M16 22a5 5 0 0 0 5-4.977"></path></svg>