<svg xmlns="http://www.w3.org/2000/svg" width="24" height="24" fill="none" viewBox="0 0 24 24"><title>Barn with silo and birds</title><path stroke="currentColor" stroke-linecap="round" stroke-linejoin="round" stroke-width="1.5" d="M17 12v10H4V12M17 22h5.5V4a2 2 0 0 0-2-2H19a2 2 0 0 0-2 2v5M13.9 21.613l-6.8-5.526"></path><path stroke="currentColor" stroke-linecap="round" stroke-linejoin="round" stroke-width="1.5" d="M14 22v-6H7v6M17 7h5.5M17 16h5.5M17 19h5.5M2 13l8.5-6 8.5 6"></path><path stroke="currentColor" stroke-linecap="round" stroke-linejoin="round" stroke-width="1.5" d="M9 11.938 10.5 11l1.5.938M2 6l1.5 1.063L5 6M6 2l1.5 1.063L9 2"></path></svg>