<svg xmlns="http://www.w3.org/2000/svg" width="32" height="32" fill="none" viewBox="0 0 32 32"><title>Barn with silo and birds</title><path stroke="currentColor" stroke-linecap="round" stroke-linejoin="round" stroke-width="1.5" d="M23 16v14H5V16"></path><path stroke="currentColor" stroke-linecap="round" stroke-linejoin="round" stroke-width="1.5" d="M22.666 30H30V4.667A2.667 2.667 0 0 0 27.333 2h-1.666A2.667 2.667 0 0 0 23 4.667V12M18.067 29.5 10 22M18 30v-8h-8v8M23 9h7M23 22h7M23 26h7"></path><path stroke="currentColor" stroke-linecap="round" stroke-linejoin="round" stroke-width="1.5" d="m3 17 11-8 11 8"></path><path stroke="currentColor" stroke-linecap="round" stroke-linejoin="round" stroke-width="1.5" d="M12 16.25 14 15l2 1.25M2 8l2 1.417L6 8M7 3l2 1.417L11 3"></path></svg>