<svg xmlns="http://www.w3.org/2000/svg" width="32" height="32" fill="none" viewBox="0 0 32 32"><title>Heart</title><path stroke="currentColor" stroke-width="1.5" d="M15.96 29.333c.808 0 1.264-.705 2.566-2.086 1.628-1.727 3.197-3.335 4.336-4.544 3.364-3.568 4.686-4.922 5.625-5.979 2.494-2.807 2.818-6.708 1.126-9.669C27.48 3.322 24.3 2.667 22.59 2.667s-2.934.655-5.094 2.342L16 6.411 14.542 5.01c-2.343-2.003-4.04-2.342-5.13-2.342-.907 0-4.7 0-7.144 4.388-1.783 3.202-.851 7.146 1.42 9.67.407.451 2.084 2.208 4.993 5.371 1.172 1.274 2.83 3.025 4.05 4.355.69.753 2.42 2.882 3.228 2.882Z" clip-rule="evenodd"></path></svg>