<svg xmlns="http://www.w3.org/2000/svg" width="32" height="32" fill="none" viewBox="0 0 32 32"><title>Fireplace</title><path stroke="currentColor" stroke-linecap="round" stroke-linejoin="round" stroke-width="1.5" d="M1 30.667h30M24 30.667V15.5c0-1.197-.86-2.167-1.92-2.167H9.92c-1.06 0-1.92.97-1.92 2.167v15.167"></path><path stroke="currentColor" stroke-linecap="round" stroke-linejoin="round" stroke-width="1.5" d="M29.334 30.667V3.333a2 2 0 0 0-2-2H4.667a2 2 0 0 0-2 2v27.334"></path><path stroke="currentColor" stroke-linecap="round" stroke-linejoin="round" stroke-width="1.5" d="M16.014 30.667a3.899 3.899 0 0 1-2.752-1.136c-2.202-2.202-1.03-5.332-.168-6.622l1.947 1.94L16.987 20c4.411 4.654 3.024 8.293 1.779 9.53a3.899 3.899 0 0 1-2.752 1.137Z"></path></svg>