<svg xmlns="http://www.w3.org/2000/svg" width="24" height="24" fill="none" viewBox="0 0 24 24"><title>Fireplace</title><path stroke="currentColor" stroke-linecap="round" stroke-linejoin="round" stroke-width="1.5" d="M.75 23h22.5M18 23V11.625c0-.898-.645-1.625-1.44-1.625H7.44C6.645 10 6 10.727 6 11.625V23"></path><path stroke="currentColor" stroke-linecap="round" stroke-linejoin="round" stroke-width="1.5" d="M22 23V3a2 2 0 0 0-2-2H4a2 2 0 0 0-2 2v20"></path><path stroke="currentColor" stroke-linecap="round" stroke-linejoin="round" stroke-width="1.5" d="M12.01 23a2.924 2.924 0 0 1-2.064-.852c-1.651-1.651-.771-3.999-.125-4.966l1.46 1.454L12.74 15c3.308 3.49 2.267 6.22 1.334 7.148A2.924 2.924 0 0 1 12.01 23Z"></path></svg>