<svg xmlns="http://www.w3.org/2000/svg" width="25" height="25" fill="none" viewBox="0 0 25 25"><title>Running shoe</title><path stroke="currentColor" stroke-linecap="round" stroke-linejoin="round" stroke-width="1.5" d="M16.998 1.242a1.562 1.562 0 0 0 0 2.209l4.552 4.552a1.563 1.563 0 0 0 2.21-2.21l-4.553-4.551a1.562 1.562 0 0 0-2.21 0Z"></path><path stroke="currentColor" stroke-linecap="round" stroke-linejoin="round" stroke-width="1.5" d="M12.578 1.24a1.564 1.564 0 0 0 0 2.21l8.972 8.973a1.563 1.563 0 1 0 2.21-2.213L14.79 1.24a1.562 1.562 0 0 0-2.213 0ZM1.242 16.998a1.56 1.56 0 0 1 2.21 0l4.552 4.552a1.562 1.562 0 0 1-2.21 2.209l-4.552-4.552a1.562 1.562 0 0 1 0-2.21Z"></path><path stroke="currentColor" stroke-linecap="round" stroke-linejoin="round" stroke-width="1.5" d="M1.241 12.578a1.563 1.563 0 0 1 2.209 0l8.972 8.972a1.564 1.564 0 1 1-2.213 2.21l-8.968-8.968a1.563 1.563 0 0 1 0-2.214Z"></path><path stroke="currentColor" stroke-linecap="round" stroke-linejoin="round" stroke-width="1.5" d="M15.96 6.832 6.832 15.96l2.209 2.21 9.128-9.129-2.21-2.21Z"></path></svg>