<svg xmlns="http://www.w3.org/2000/svg" width="32" height="32" fill="none" viewBox="0 0 32 32"><title>Running shoe</title><path stroke="currentColor" stroke-linecap="round" stroke-linejoin="round" stroke-width="1.5" d="M21.757 1.585a2 2 0 0 0 0 2.828l5.828 5.828a2 2 0 0 0 2.83-2.828l-5.83-5.828a2 2 0 0 0-2.828 0Z"></path><path stroke="currentColor" stroke-linecap="round" stroke-linejoin="round" stroke-width="1.5" d="M16.1 1.584a2.001 2.001 0 0 0 0 2.83L27.587 15.9a2.002 2.002 0 1 0 2.828-2.833L18.933 1.584a2 2 0 0 0-2.833 0ZM1.586 21.757a2 2 0 0 1 2.829 0l5.828 5.828a2 2 0 0 1-2.828 2.828l-5.83-5.828a2 2 0 0 1 0-2.828Z"></path><path stroke="currentColor" stroke-linecap="round" stroke-linejoin="round" stroke-width="1.5" d="M1.585 16.099a2 2 0 0 1 2.828 0L15.9 27.585a2.002 2.002 0 0 1-2.834 2.83L1.585 18.933a2 2 0 0 1 0-2.834Z"></path><path stroke="currentColor" stroke-linecap="round" stroke-linejoin="round" stroke-width="1.5" d="M20.428 8.742 8.742 20.428l2.829 2.829L23.257 11.57l-2.829-2.829Z"></path></svg>