<svg xmlns="http://www.w3.org/2000/svg" width="32" height="32" fill="none" viewBox="0 0 32 32"><title>Front-wheel drive</title><path stroke="currentColor" stroke-linecap="round" stroke-linejoin="round" stroke-width="1.5" d="M1.667 2.667c0-.737.596-1.334 1.333-1.334h2.667C6.402 1.333 7 1.93 7 2.667v6.666c0 .737-.597 1.334-1.333 1.334H3a1.333 1.333 0 0 1-1.333-1.334V2.667ZM25 2.667c0-.737.596-1.334 1.333-1.334H29c.736 0 1.333.597 1.333 1.334v6.666c0 .737-.597 1.334-1.333 1.334h-2.667A1.333 1.333 0 0 1 25 9.333V2.667ZM25 6H7M25.333 26H6.666M13.333 2.5h5.333M13.333 29.5h5.333"></path></svg>