<svg xmlns="http://www.w3.org/2000/svg" width="32" height="32" fill="none" viewBox="0 0 32 32"><title>Diesel pump</title><path stroke="currentColor" stroke-linecap="round" stroke-linejoin="round" stroke-width="1.5" d="M19.667 1H2.333C1.597 1 1 1.597 1 2.333v27.334C1 30.403 1.597 31 2.333 31h17.334c.736 0 1.333-.597 1.333-1.333V2.333C21 1.597 20.403 1 19.667 1Z"></path><path stroke="currentColor" stroke-linecap="round" stroke-linejoin="round" stroke-width="1.5" d="M14.667 20.445a3.68 3.68 0 0 1-.977 2.514A3.231 3.231 0 0 1 11.333 24a3.231 3.231 0 0 1-2.357-1.041A3.68 3.68 0 0 1 8 20.445c0-1.964 3.333-7.112 3.333-7.112s3.334 5.148 3.334 7.112Z"></path><path stroke="currentColor" stroke-linecap="round" stroke-linejoin="round" stroke-width="1.5" d="m31 12-.891 1.333A6.612 6.612 0 0 0 28.999 17v12a2 2 0 0 1-4 0V9a2 2 0 0 0-2-2H1.334M29 17h2"></path></svg>