<svg xmlns="http://www.w3.org/2000/svg" width="24" height="24" fill="none" viewBox="0 0 24 24"><title>Diesel pump</title><path stroke="currentColor" stroke-linecap="round" stroke-linejoin="round" stroke-width="1.5" d="M14.75.75h-13a1 1 0 0 0-1 1v20.5a1 1 0 0 0 1 1h13a1 1 0 0 0 1-1V1.75a1 1 0 0 0-1-1Z"></path><path stroke="currentColor" stroke-linecap="round" stroke-linejoin="round" stroke-width="1.5" d="M11 15.333a2.76 2.76 0 0 1-.732 1.886c-.47.5-1.105.781-1.768.781s-1.299-.28-1.768-.781A2.76 2.76 0 0 1 6 15.333C6 13.86 8.5 10 8.5 10s2.5 3.86 2.5 5.333Z"></path><path stroke="currentColor" stroke-linecap="round" stroke-linejoin="round" stroke-width="1.5" d="m23.25 9-.668 1a4.96 4.96 0 0 0-.832 2.75v9a1.5 1.5 0 1 1-3 0v-15a1.5 1.5 0 0 0-1.5-1.5H1M21.75 12.75h1.5"></path></svg>