<svg xmlns="http://www.w3.org/2000/svg" width="32" height="32" fill="none" viewBox="0 0 32 32"><title>Gas pump</title><path stroke="currentColor" stroke-linecap="round" stroke-linejoin="round" stroke-width="1.5" d="M19.667 1H2.333C1.597 1 1 1.597 1 2.333v27.334C1 30.403 1.597 31 2.333 31h17.334c.736 0 1.333-.597 1.333-1.333V2.333C21 1.597 20.403 1 19.667 1Z"></path><path stroke="currentColor" stroke-linecap="round" stroke-linejoin="round" stroke-width="1.5" d="M17 7a2 2 0 0 0-2-2H7a2 2 0 1 0 0 4h8a2 2 0 0 0 2-2ZM1 13h20M21 7h2a2 2 0 0 1 2 2v20a2 2 0 0 0 4 0V17c0-1.305.386-2.58 1.11-3.667L31 12M29 17h2"></path></svg>