<svg xmlns="http://www.w3.org/2000/svg" width="24" height="24" fill="none" viewBox="0 0 24 24"><title>Gas pump</title><path stroke="currentColor" stroke-linecap="round" stroke-linejoin="round" stroke-width="1.5" d="M14.75.75h-13a1 1 0 0 0-1 1v20.5a1 1 0 0 0 1 1h13a1 1 0 0 0 1-1V1.75a1 1 0 0 0-1-1Z"></path><path stroke="currentColor" stroke-linecap="round" stroke-linejoin="round" stroke-width="1.5" d="M12.75 5.25a1.5 1.5 0 0 0-1.5-1.5h-6a1.5 1.5 0 0 0 0 3h6a1.5 1.5 0 0 0 1.5-1.5ZM.75 9.75h15M15.75 5.25h1.5a1.5 1.5 0 0 1 1.5 1.5v15a1.5 1.5 0 1 0 3 0v-9c0-.979.29-1.935.832-2.75l.63-.943M21.75 12.75h1.5"></path></svg>