<svg xmlns="http://www.w3.org/2000/svg" width="32" height="32" fill="none" viewBox="0 0 32 32"><title>Grid of squares</title><path stroke="currentColor" stroke-linecap="round" stroke-linejoin="round" stroke-width="1.5" d="M11.167 2H3.833C2.821 2 2 2.82 2 3.833v7.334C2 12.179 2.82 13 3.833 13h7.334C12.179 13 13 12.18 13 11.167V3.833C13 2.821 12.18 2 11.167 2ZM11.167 19H3.833C2.821 19 2 19.82 2 20.833v7.334C2 29.179 2.82 30 3.833 30h7.334C12.179 30 13 29.18 13 28.167v-7.334C13 19.821 12.18 19 11.167 19ZM28.167 2h-7.334C19.821 2 19 2.82 19 3.833v7.334c0 1.012.82 1.833 1.833 1.833h7.334C29.179 13 30 12.18 30 11.167V3.833C30 2.821 29.18 2 28.167 2ZM28.167 19h-7.334C19.821 19 19 19.82 19 20.833v7.334c0 1.012.82 1.833 1.833 1.833h7.334C29.179 30 30 29.18 30 28.167v-7.334C30 19.821 29.18 19 28.167 19Z"></path></svg>