<svg xmlns="http://www.w3.org/2000/svg" width="24" height="24" fill="none" viewBox="0 0 24 24"><title>Grid of squares</title><path stroke="currentColor" stroke-linecap="round" stroke-linejoin="round" stroke-width="1.5" d="M8.667 2H3.333C2.597 2 2 2.597 2 3.333v5.334C2 9.403 2.597 10 3.333 10h5.334C9.403 10 10 9.403 10 8.667V3.333C10 2.597 9.403 2 8.667 2ZM8.667 14H3.333C2.597 14 2 14.597 2 15.333v5.334C2 21.403 2.597 22 3.333 22h5.334C9.403 22 10 21.403 10 20.667v-5.334C10 14.597 9.403 14 8.667 14ZM20.667 2h-5.334C14.597 2 14 2.597 14 3.333v5.334c0 .736.597 1.333 1.333 1.333h5.334C21.403 10 22 9.403 22 8.667V3.333C22 2.597 21.403 2 20.667 2ZM20.667 14h-5.334c-.736 0-1.333.597-1.333 1.333v5.334c0 .736.597 1.333 1.333 1.333h5.334c.736 0 1.333-.597 1.333-1.333v-5.334c0-.736-.597-1.333-1.333-1.333Z"></path></svg>