<svg xmlns="http://www.w3.org/2000/svg" width="32" height="32" fill="none" viewBox="0 0 32 32"><title>Charcoal grill</title><path stroke="currentColor" stroke-linecap="round" stroke-linejoin="round" stroke-width="1.5" d="M23.5 12a1.512 1.512 0 0 1 1.5 1.799 9.2 9.2 0 0 1-17.97 0A1.509 1.509 0 0 1 8.535 12H23.5ZM26 31l-4.355-11.897M6 31l4.356-11.897M24.536 27H7.464M8.834 8.19l.216-.287A2.113 2.113 0 0 0 8.727 5 2.112 2.112 0 0 1 8.4 2.097l.814-1.08M16.349 8.19l.216-.287A2.112 2.112 0 0 0 16.24 5a2.113 2.113 0 0 1-.323-2.903l.81-1.08M23.349 8.19l.216-.287A2.112 2.112 0 0 0 23.24 5a2.113 2.113 0 0 1-.323-2.903l.805-1.074"></path></svg>