<svg xmlns="http://www.w3.org/2000/svg" width="24" height="24" fill="none" viewBox="0 0 24 24"><title>Charcoal grill</title><path stroke="currentColor" stroke-linecap="round" stroke-linejoin="round" stroke-width="1.5" d="M17.625 9a1.134 1.134 0 0 1 1.125 1.349 6.9 6.9 0 0 1-13.477 0A1.132 1.132 0 0 1 6.4 8.999h11.225ZM19.5 23.25l-3.267-8.923M4.5 23.25l3.267-8.923M18.401 20.25H5.598M17.511 6.143l.162-.216a1.584 1.584 0 0 0-.243-2.177 1.585 1.585 0 0 1-.242-2.177l.6-.8M11.648 6.143l.162-.216a1.584 1.584 0 0 0-.243-2.177 1.585 1.585 0 0 1-.242-2.177l.599-.799M5.648 6.143l.162-.216a1.584 1.584 0 0 0-.243-2.177 1.585 1.585 0 0 1-.242-2.177l.6-.8"></path></svg>