<svg xmlns="http://www.w3.org/2000/svg" width="42" height="28" fill="none" viewBox="0 0 42 28"><title>Guiter with a bat</title><path stroke="currentColor" stroke-linecap="round" stroke-linejoin="round" stroke-width="2" d="M21.743 20.326a1.625 1.625 0 0 1 1.343-1.789 3.263 3.263 0 0 0 1.797-.9c1.587-1.585 1.191-4.556-.888-6.632-2.079-2.077-5.047-2.475-6.633-.888a3.262 3.262 0 0 0-.9 1.796 1.625 1.625 0 0 1-1.788 1.344 5.131 5.131 0 0 0-4.311 1.352c-2.221 2.22-1.777 6.266.995 9.033 2.772 2.767 6.816 3.213 9.036.992a5.132 5.132 0 0 0 1.35-4.308ZM29.74 2.962l-1.723 1.724a1.625 1.625 0 0 0 2.298 2.298L32.04 5.26a1.625 1.625 0 1 0-2.298-2.298Zm-1.723 4.021-4.021 4.022m4.594-9.192 1.15 1.149m2.298 2.298 1.15 1.15m-2.874.573 1.15 1.15m-4.597-4.597 1.15 1.15"></path><path stroke="currentColor" stroke-linecap="round" stroke-linejoin="round" stroke-width="2" d="M19.973 16.652a1.625 1.625 0 1 0 0-3.25 1.625 1.625 0 0 0 0 3.25Zm-6.319 2.396 2.298 2.298m2.331-14.649-2.949-3.53a3.677 3.677 0 1 0-5.167 5.168l2.708 2.274m12.77 10.698 1.866 1.562-.542.542a1.625 1.625 0 1 0 2.3 2.299l3.446-3.447a1.626 1.626 0 0 0-2.299-2.3l-.581.584-1.4-1.672"></path></svg>