<svg xmlns="http://www.w3.org/2000/svg" width="24" height="24" fill="none" viewBox="0 0 24 24"><title>Heart with heart rate indicator</title><path stroke="currentColor" stroke-linecap="round" stroke-linejoin="round" stroke-width="1.5" d="M22.415 5.026a5.584 5.584 0 0 0-6.666-2.76 5.577 5.577 0 0 0-2.218 1.34L12 5l-1.531-1.392A5.577 5.577 0 0 0 5.665 2.07a5.584 5.584 0 0 0-2.395.993 5.56 5.56 0 0 0-1.685 1.965 5.42 5.42 0 0 0 1.04 6.32L12 21l9.375-9.654a5.42 5.42 0 0 0 1.04-6.32Z"></path><path stroke="currentColor" stroke-linecap="round" stroke-linejoin="round" stroke-width="1.5" d="M6 10h3l1.828 3.655a.2.2 0 0 0 .355.006l3.15-5.851a.2.2 0 0 1 .348-.008L16 10h3"></path></svg>