<svg xmlns="http://www.w3.org/2000/svg" width="24" height="24" fill="none" viewBox="0 0 24 24"><title>Forest path</title><path stroke="currentColor" stroke-linecap="round" stroke-linejoin="round" stroke-width="1.5" d="M5.352.906a1.5 1.5 0 0 1 .582.512L7.18 3.292l1.1-1.053a1.5 1.5 0 0 1 2.4.39l2.069 4.138h-12L3.344 1.58A1.5 1.5 0 0 1 5.352.906ZM20.25 3l-3 8.25h6l-3-8.25ZM20.25 11.25v3M3.75 12l-3 8.25h6l-3-8.25ZM3.75 20.25v3M19.5 19.7a4.818 4.818 0 0 1 1.27 2.056M15 17.848c.24.058.489.11.749.152a9.26 9.26 0 0 1 1.507.376M10.7 14.667c.323.643.764 1.22 1.3 1.7M9.75 9.75c-.002.585.027 1.169.087 1.75"></path></svg>