<svg xmlns="http://www.w3.org/2000/svg" width="32" height="32" fill="none" viewBox="0 0 32 32"><title>Forest path</title><path stroke="currentColor" stroke-linecap="round" stroke-linejoin="round" stroke-width="1.5" d="M7.136 1.208a2 2 0 0 1 .776.683L9.5 4l1.541-1.015c.287-.195.498-.39.8-.487a2 2 0 0 1 2.4 1.007L17 9.023H1l3.459-6.918a2 2 0 0 1 2.677-.897ZM27 4l-4 11h8L27 4ZM27 15v4M5 16 1 27h8L5 16ZM5 27v4M26 26.267a6.423 6.423 0 0 1 1.693 2.741M20 23.797c.32.078.652.146.999.203.682.11 1.354.278 2.009.501M14.267 19.556A7.66 7.66 0 0 0 16 21.823M13 13c-.002.78.036 1.558.116 2.333"></path></svg>