<svg xmlns="http://www.w3.org/2000/svg" width="42" height="28" fill="none" viewBox="0 0 42 28"><title>Honk</title><path fill="#570E2D" d="M27.34 2a5.66 5.66 0 1 0 0 11.32 5.66 5.66 0 0 0 0-11.32Zm0 8.572a2.912 2.912 0 1 1 0-5.823 2.912 2.912 0 0 1 0 5.823Zm-9.768 4.108v7.33l-5.049-7.33H9V26h2.749v-8.454L17.572 26h2.749V14.68h-2.749ZM29.799 26H33l-4.576-6.553 4.264-4.768H29.58l-5.152 5.991v-5.99H21.68V26h2.75v-2.084l2.197-2.458L29.798 26ZM17.572 2v4.436h-5.823V2H9v11.32h2.749V8.885h5.823v4.437h2.749V2h-2.749Z"></path></svg>