<svg xmlns="http://www.w3.org/2000/svg" width="42" height="40" fill="none" viewBox="0 0 42 40"><title>Car horn</title><path fill="#56102D" d="M31.566 0a9.434 9.434 0 1 0 0 18.868 9.434 9.434 0 0 0 0-18.868Zm0 14.287a4.853 4.853 0 1 1 0-9.705 4.853 4.853 0 0 1 0 9.705ZM15.287 21.132v12.216L6.872 21.133H1V40h4.581V25.91L15.287 40h4.581V21.132h-4.581ZM35.664 40H41l-7.627-10.921 7.106-7.947H35.3l-8.586 9.985v-9.985h-4.581V40h4.581v-3.474l3.664-4.097L35.664 40ZM15.287 0v7.394H5.58V0H1v18.868h4.581v-7.394h9.706v7.394h4.581V0h-4.581Z"></path></svg>