<svg xmlns="http://www.w3.org/2000/svg" width="42" height="28" fill="none" viewBox="0 0 42 28"><title>Hotel building</title><path stroke="currentColor" stroke-linecap="round" stroke-linejoin="round" stroke-width="2" d="M37.5 26.5V16M8 22h4M8 17h4M8 12h4M8 7h4M22.5 22H25M28.242 2v.864M23.75 3.686l.611.611M22 8.242h.864M32.75 12.686l-.611-.61M34.372 8.242h-.864M32.75 3.686l-.611.611M28.25 10.5a2.25 2.25 0 1 1 0-4.5 2.25 2.25 0 0 1 0 4.5ZM35.035 18.028 37.5 20l2.465-1.972M35.052 22.041 37.5 24l2.449-1.959M41 27H1M3 27V4a2 2 0 0 1 2-2h10a2 2 0 0 1 2 2v23"></path><path stroke="currentColor" stroke-linecap="round" stroke-linejoin="round" stroke-width="2" d="M17 16h6a2 2 0 0 1 2 2v9"></path></svg>