<svg xmlns="http://www.w3.org/2000/svg" width="24" height="24" fill="none" viewBox="0 0 24 24"><title>Cabin</title><path stroke="currentColor" stroke-linecap="round" stroke-linejoin="round" stroke-width="1.5" d="m1.586 10.545 9.353-9.105a1.5 1.5 0 0 1 2.122 0l9.354 9.105M16.5 4.629v-1.5H20v4.715"></path><path stroke="currentColor" stroke-linecap="round" stroke-linejoin="round" stroke-width="1.5" d="M3 9.5V21.655c0 .357.172.699.48.951.306.252.722.394 1.156.394h14.728c.434 0 .85-.142 1.157-.394.307-.252.479-.594.479-.95V9.5"></path><path stroke="currentColor" stroke-width="1.5" d="M15 23v-5a3 3 0 1 0-6 0v5"></path><path stroke="currentColor" stroke-linecap="round" stroke-width="1.5" d="M9 11h6M9 8h6"></path></svg>