<svg xmlns="http://www.w3.org/2000/svg" width="16" height="16" fill="none" viewBox="0 0 16 16"><title>House with a person</title><path stroke="currentColor" stroke-linecap="round" stroke-linejoin="round" stroke-width="1.5" d="M8 7.5a1.5 1.5 0 1 0 0-3 1.5 1.5 0 0 0 0 3ZM8 9c-.552 0-1.082.22-1.473.61-.39.39-.527.92-.527 1.473v.417h.75l.417 3.5h1.667l.416-3.5H10v-.417c0-.552-.136-1.082-.527-1.473C9.083 9.22 8.553 9 8 9Z"></path><path stroke="currentColor" stroke-linecap="round" stroke-linejoin="round" stroke-width="1.5" d="M15 6 8.581 1.415a1 1 0 0 0-1.162 0L1 6M4 15H3a1 1 0 0 1-1-1V8.5M12 15h1a1 1 0 0 0 1-1V8.5"></path></svg>