<svg xmlns="http://www.w3.org/2000/svg" width="32" height="32" fill="none" viewBox="0 0 32 32"><title>House with a person</title><path stroke="currentColor" stroke-linecap="round" stroke-linejoin="round" stroke-width="1.5" d="M22 31h3a2 2 0 0 0 2-2V17M10 31H7a2 2 0 0 1-2-2V17M1 16.172 14.585 2.585a2.001 2.001 0 0 1 2.83 0L31 16.171"></path><path stroke="currentColor" stroke-linecap="round" stroke-linejoin="round" stroke-width="1.5" d="M16 17a3 3 0 1 0 0-6 3 3 0 0 0 0 6ZM16 19a5 5 0 0 0-5 5v1h2l1 6h4l1-6h2v-1a5 5 0 0 0-5-5Z"></path></svg>