<svg xmlns="http://www.w3.org/2000/svg" width="32" height="32" fill="none" viewBox="0 0 32 32"><title>Cabin</title><path stroke="currentColor" stroke-linecap="round" stroke-linejoin="round" stroke-width="1.5" d="M2.111 14.063 14.585 1.92a1.999 1.999 0 0 1 2.83 0l12.474 12.143M22 6.172v-2h4.667v6.27"></path><path stroke="currentColor" stroke-linecap="round" stroke-linejoin="round" stroke-width="1.5" d="M4 12.667v16.207c0 .475.23.931.639 1.268.41.336.964.525 1.543.525h19.636c.579 0 1.134-.19 1.543-.526.41-.336.639-.792.639-1.267V12.667"></path><path stroke="currentColor" stroke-width="1.5" d="M20 30.667V24a4 4 0 0 0-8 0v6.667"></path><path stroke="currentColor" stroke-linecap="round" stroke-width="1.5" d="M12 14.667h8M12 10.667h8"></path></svg>