<svg xmlns="http://www.w3.org/2000/svg" width="42" height="28" fill="none" viewBox="0 0 42 28"><title>Ice skater</title><path stroke="currentColor" stroke-linecap="round" stroke-linejoin="round" stroke-width="2" d="M9.896 20.5h5.875a4.875 4.875 0 0 0 3.604-1.596l1.759-1.934.775.386a3.25 3.25 0 0 1 1.799 2.908v5.924"></path><path stroke="currentColor" stroke-linecap="round" stroke-linejoin="round" stroke-width="2" d="M26.958 26.188v-5.924a6.463 6.463 0 0 0-3.551-5.79l3.128-3.443a1.625 1.625 0 0 0-1.202-2.719h-9.75a1.625 1.625 0 0 0 0 3.25h6.076l-4.686 5.156a1.625 1.625 0 0 1-1.203.532H9.896M30.208 7.5a2.844 2.844 0 1 0 0-5.687 2.844 2.844 0 0 0 0 5.687Z"></path><path stroke="currentColor" stroke-linecap="round" stroke-linejoin="round" stroke-width="2" d="M30.208 24.563a1.625 1.625 0 0 1-1.625 1.625h-8.125M11.52 23.75a1.625 1.625 0 0 1-1.624-1.625V14m3.25 3.25v3.25m10.562 2.438h3.25"></path></svg>