<svg xmlns="http://www.w3.org/2000/svg" width="24" height="24" fill="none" viewBox="0 0 24 24"><title>Image</title><path stroke="currentColor" stroke-linecap="round" stroke-linejoin="round" stroke-width="1.5" d="M22.477 21.75a1.5 1.5 0 0 1-1.5 1.5H3.023a1.5 1.5 0 0 1-1.5-1.5V2.25a1.5 1.5 0 0 1 1.5-1.5h15a1.5 1.5 0 0 1 1.047.426l2.955 2.883a1.5 1.5 0 0 1 .452 1.074V21.75Z"></path><path stroke="currentColor" stroke-linecap="round" stroke-linejoin="round" stroke-width="1.5" d="M8.273 9.75a2.25 2.25 0 1 0 0-4.5 2.25 2.25 0 0 0 0 4.5ZM19 19l-4.112-6.688a1.01 1.01 0 0 0-1.671-.019l-2.691 3.845L8.858 14.8a1.012 1.012 0 0 0-1.474.229L5 19"></path></svg>