<svg xmlns="http://www.w3.org/2000/svg" width="32" height="32" fill="none" viewBox="0 0 32 32"><title>Image</title><path stroke="currentColor" stroke-linecap="round" stroke-linejoin="round" stroke-width="1.5" d="M29.97 29a2 2 0 0 1-2 2H4.03a2 2 0 0 1-2-2V3a2 2 0 0 1 2-2h20a2 2 0 0 1 1.397.568l3.94 3.844a2 2 0 0 1 .602 1.432V29Z"></path><path stroke="currentColor" stroke-linecap="round" stroke-linejoin="round" stroke-width="1.5" d="M11.03 13a3 3 0 1 0 0-6 3 3 0 0 0 0 6ZM25.333 25.333l-5.483-8.917a1.347 1.347 0 0 0-2.228-.025l-3.588 5.126-2.224-1.784a1.347 1.347 0 0 0-1.965.306l-3.179 5.294"></path></svg>