<svg xmlns="http://www.w3.org/2000/svg" width="24" height="24" fill="none" viewBox="0 0 24 24"><title>Instagram logo</title><path fill="#3F3F46" fill-rule="evenodd" d="M7.465 1.066C8.638 1.013 9.013 1 12 1s3.362.013 4.535.066c1.171.054 1.97.24 2.67.512a5.39 5.39 0 0 1 1.949 1.268 5.391 5.391 0 0 1 1.268 1.949c.272.7.458 1.499.512 2.67C22.987 8.638 23 9.013 23 12s-.013 3.362-.066 4.535c-.054 1.171-.24 1.97-.512 2.67a5.39 5.39 0 0 1-1.268 1.949 5.39 5.39 0 0 1-1.949 1.268c-.7.272-1.499.458-2.67.512-1.173.053-1.548.066-4.535.066s-3.362-.013-4.535-.066c-1.171-.054-1.97-.24-2.67-.512a5.391 5.391 0 0 1-1.949-1.268 5.392 5.392 0 0 1-1.269-1.949c-.271-.7-.457-1.499-.51-2.67C1.012 15.362 1 14.987 1 12s.013-3.362.066-4.535c.054-1.171.24-1.97.511-2.67a5.392 5.392 0 0 1 1.27-1.949 5.391 5.391 0 0 1 1.948-1.268c.7-.272 1.499-.458 2.67-.512Zm8.98 1.98c-1.16-.053-1.508-.064-4.445-.064-2.937 0-3.285.011-4.445.064-1.072.049-1.655.228-2.043.379-.513.2-.88.438-1.264.823a3.408 3.408 0 0 0-.823 1.265c-.15.387-.33.97-.379 2.042-.053 1.16-.064 1.508-.064 4.445 0 2.937.011 3.285.064 4.445.049 1.072.228 1.655.379 2.043.2.513.438.88.823 1.264.385.385.751.624 1.264.823.388.15.97.33 2.043.379 1.16.053 1.508.064 4.445.064 2.937 0 3.285-.011 4.445-.064 1.072-.049 1.655-.228 2.042-.379.514-.2.88-.438 1.265-.823a3.41 3.41 0 0 0 .823-1.264c.15-.388.33-.97.379-2.043.053-1.16.064-1.508.064-4.445 0-2.937-.011-3.285-.064-4.445-.05-1.072-.228-1.655-.379-2.042a3.41 3.41 0 0 0-.823-1.265 3.408 3.408 0 0 0-1.265-.823c-.387-.15-.97-.33-2.042-.379ZM8.333 12a3.667 3.667 0 1 0 7.334 0 3.667 3.667 0 0 0-7.334 0Zm-1.982 0a5.649 5.649 0 1 1 11.298 0A5.649 5.649 0 0 1 6.35 12Zm11.52-4.552a1.32 1.32 0 1 0 0-2.64 1.32 1.32 0 0 0 0 2.64Z" clip-rule="evenodd"></path><mask id="K0uhfa" width="22" height="22" x="1" y="1" maskUnits="userSpaceOnUse" style="mask-type:luminance"><path fill="#fff" fill-rule="evenodd" d="M7.465 1.066C8.638 1.013 9.013 1 12 1s3.362.013 4.535.066c1.171.054 1.97.24 2.67.512a5.39 5.39 0 0 1 1.949 1.268 5.391 5.391 0 0 1 1.268 1.949c.272.7.458 1.499.512 2.67C22.987 8.638 23 9.013 23 12s-.013 3.362-.066 4.535c-.054 1.171-.24 1.97-.512 2.67a5.39 5.39 0 0 1-1.268 1.949 5.39 5.39 0 0 1-1.949 1.268c-.7.272-1.499.458-2.67.512-1.173.053-1.548.066-4.535.066s-3.362-.013-4.535-.066c-1.171-.054-1.97-.24-2.67-.512a5.391 5.391 0 0 1-1.949-1.268 5.392 5.392 0 0 1-1.269-1.949c-.271-.7-.457-1.499-.51-2.67C1.012 15.362 1 14.987 1 12s.013-3.362.066-4.535c.054-1.171.24-1.97.511-2.67a5.392 5.392 0 0 1 1.27-1.949 5.391 5.391 0 0 1 1.948-1.268c.7-.272 1.499-.458 2.67-.512Zm8.98 1.98c-1.16-.053-1.508-.064-4.445-.064-2.937 0-3.285.011-4.445.064-1.072.049-1.655.228-2.043.379-.513.2-.88.438-1.264.823a3.408 3.408 0 0 0-.823 1.265c-.15.387-.33.97-.379 2.042-.053 1.16-.064 1.508-.064 4.445 0 2.937.011 3.285.064 4.445.049 1.072.228 1.655.379 2.043.2.513.438.88.823 1.264.385.385.751.624 1.264.823.388.15.97.33 2.043.379 1.16.053 1.508.064 4.445.064 2.937 0 3.285-.011 4.445-.064 1.072-.049 1.655-.228 2.042-.379.514-.2.88-.438 1.265-.823a3.41 3.41 0 0 0 .823-1.264c.15-.388.33-.97.379-2.043.053-1.16.064-1.508.064-4.445 0-2.937-.011-3.285-.064-4.445-.05-1.072-.228-1.655-.379-2.042a3.41 3.41 0 0 0-.823-1.265 3.408 3.408 0 0 0-1.265-.823c-.387-.15-.97-.33-2.042-.379ZM8.333 12a3.667 3.667 0 1 0 7.334 0 3.667 3.667 0 0 0-7.334 0Zm-1.982 0a5.649 5.649 0 1 1 11.298 0A5.649 5.649 0 0 1 6.35 12Zm11.52-4.552a1.32 1.32 0 1 0 0-2.64 1.32 1.32 0 0 0 0 2.64Z" clip-rule="evenodd"></path></mask></svg>