<svg xmlns="http://www.w3.org/2000/svg" width="42" height="28" fill="none" viewBox="0 0 42 28"><title>Document folder</title><path stroke="currentColor" stroke-linecap="round" stroke-linejoin="round" stroke-width="2" d="M23.024 19.177h-3.333a.833.833 0 0 1-.834-.833V15.01c0-.46.373-.834.834-.834h3.333c.46 0 .833.373.833.834v3.333c0 .46-.373.833-.833.833Z"></path><path stroke="currentColor" stroke-linecap="square" stroke-linejoin="round" stroke-width="2" d="M34 11.597c0 2.85-2.328 5.16-5.2 5.16h-4.943M8 11.597c0 2.85 2.328 5.16 5.2 5.16h5.2"></path><path stroke="currentColor" stroke-linecap="round" stroke-linejoin="round" stroke-width="2" d="M9.733 25.357c-.957 0-1.733-.77-1.733-1.72V9.017c0-.95.776-1.72 1.733-1.72h22.534c.957 0 1.733.77 1.733 1.72v14.62c0 .95-.776 1.72-1.733 1.72H9.733Z"></path><path stroke="currentColor" stroke-linejoin="round" stroke-width="2" d="M15.857 7.297v-1.72c0-.95.776-1.72 1.734-1.72h6.933c.957 0 1.733.77 1.733 1.72v1.72"></path></svg>