<svg xmlns="http://www.w3.org/2000/svg" width="32" height="32" fill="none" viewBox="0 0 32 32"><title>Two keys on a keyring</title><path stroke="currentColor" stroke-linecap="round" stroke-linejoin="round" stroke-width="1.5" d="M17 13.076a8 8 0 1 0-10 7.748v8.181a2 2 0 1 0 4 0v-8.181a8 8 0 0 0 6-7.748v0Z"></path><path stroke="currentColor" stroke-linecap="round" stroke-linejoin="round" stroke-width="1.5" d="M18.084 21a7.962 7.962 0 0 0 2.959-1.03l6.542 6.54a2 2 0 0 0 2.828-2.827l-6.546-6.542a8 8 0 0 0-10.75-11.073M9 14.076a2 2 0 1 0 0-4 2 2 0 0 0 0 4Z"></path><path stroke="currentColor" stroke-linecap="round" stroke-linejoin="round" stroke-width="1.5" d="M9 10.076V4a3 3 0 1 1 6 0v1.172"></path></svg>