<svg xmlns="http://www.w3.org/2000/svg" width="24" height="25" fill="none" viewBox="0 0 24 25"><title>Two keys on a keyring</title><path stroke="currentColor" stroke-linecap="round" stroke-linejoin="round" stroke-width="1.5" d="M12.75 9.807a6 6 0 1 0-7.5 5.811v6.136a1.5 1.5 0 0 0 3 0v-6.136a6 6 0 0 0 4.5-5.811v0Z"></path><path stroke="currentColor" stroke-linecap="round" stroke-linejoin="round" stroke-width="1.5" d="M9.741 4.605a6 6 0 0 1 8.16 8.251l4.91 4.906a1.5 1.5 0 0 1-2.122 2.121l-4.907-4.906a5.972 5.972 0 0 1-2.172.766h-.044M6.75 10.557a1.5 1.5 0 1 0 0-3 1.5 1.5 0 0 0 0 3Z"></path><path stroke="currentColor" stroke-linecap="round" stroke-linejoin="round" stroke-width="1.5" d="M6.75 7.406V3a2.25 2.25 0 1 1 4.5 0v.766"></path></svg>