<svg xmlns="http://www.w3.org/2000/svg" width="32" height="32" fill="none" viewBox="0 0 32 32"><title>Washing machine</title><path stroke="currentColor" stroke-linecap="round" stroke-linejoin="round" stroke-width="1.5" d="M27 1H5a2 2 0 0 0-2 2v26a2 2 0 0 0 2 2h22a2 2 0 0 0 2-2V3a2 2 0 0 0-2-2ZM7 5h4M22 4v2M25 4v2M3 9h26"></path><path stroke="currentColor" stroke-linecap="round" stroke-linejoin="round" stroke-width="1.5" d="M16 27a7 7 0 1 0 0-14 7 7 0 0 0 0 14Z"></path><path stroke="currentColor" stroke-linecap="round" stroke-linejoin="round" stroke-width="1.5" d="M13 20a3 3 0 0 1 2.96-3"></path></svg>