<svg xmlns="http://www.w3.org/2000/svg" width="33" height="32" fill="none" viewBox="0 0 33 32"><title>Leaf</title><path fill="currentColor" d="m1.509 3.5.441-.607a.75.75 0 0 0-1.16.395l.719.212Zm26 19 .624.416.015-.021.012-.023-.65-.372Zm-6.5-14-.068.747.068-.747ZM.79 3.288c-2.602 8.85 1.564 17.654 7.639 22.307 3.045 2.333 6.63 3.67 10.153 3.403 3.552-.27 6.939-2.162 9.552-6.082l-1.248-.832c-2.387 3.58-5.375 5.188-8.417 5.418-3.07.233-6.298-.93-9.128-3.097C3.665 20.057-.168 11.86 2.228 3.712L.79 3.288ZM28.16 22.872c.575-1.006.92-2.398 1.013-3.89a13.618 13.618 0 0 0-.548-4.75c-.969-3.172-3.292-6.092-7.548-6.479l-.136 1.494c3.474.316 5.401 2.646 6.25 5.423a12.12 12.12 0 0 1 .485 4.218c-.084 1.35-.393 2.496-.818 3.24l1.302.744ZM21.077 7.753c-5.787-.526-9.215-.771-11.903-1.377C6.547 5.785 4.64 4.85 1.95 2.893l-.882 1.214C3.878 6.15 5.97 7.192 8.844 7.84c2.813.633 6.385.888 12.097 1.407l.136-1.494Z"></path><path stroke="currentColor" stroke-linecap="round" stroke-width="1.5" d="M14.01 15.5c5.5 1 9.848 3.466 17 10"></path></svg>