<svg xmlns="http://www.w3.org/2000/svg" width="24" height="24" fill="none" viewBox="0 0 24 24"><title>Leaf</title><path fill="currentColor" d="m1.547 3 .443-.605a.75.75 0 0 0-1.163.395l.72.21Zm18.775 13.8.625.415.014-.022.013-.022-.652-.37ZM15.628 6.633l-.068.747.068-.747ZM.828 2.79C-1.08 9.31 1.972 15.788 6.414 19.21c2.229 1.718 4.867 2.714 7.476 2.515 2.638-.201 5.138-1.616 7.056-4.51l-1.25-.829c-1.693 2.554-3.796 3.681-5.92 3.843-2.152.164-4.433-.655-6.446-2.207C3.288 14.908.564 9.037 2.267 3.21l-1.44-.42ZM20.973 17.17c.436-.767.689-1.81.757-2.914a10.15 10.15 0 0 0-.404-3.52c-.715-2.357-2.446-4.56-5.63-4.852l-.137 1.494c2.398.219 3.735 1.828 4.332 3.793.3.988.4 2.041.342 2.993-.06.962-.278 1.76-.564 2.265l1.304.741ZM15.697 5.885c-4.19-.383-6.645-.56-8.568-.996-1.862-.422-3.213-1.086-5.139-2.494l-.886 1.21c2.047 1.497 3.584 2.27 5.694 2.747 2.048.464 4.647.65 8.762 1.027l.137-1.494Z"></path><path stroke="currentColor" stroke-linecap="round" stroke-width="1.5" d="M10 11c4.206.8 7.531 2.773 13 8"></path></svg>