<svg xmlns="http://www.w3.org/2000/svg" width="32" height="32" fill="none" viewBox="0 0 32 32"><title>Mailbox with a flag indicating new mail</title><path stroke="currentColor" stroke-linecap="round" stroke-linejoin="round" stroke-width="1.5" d="M15 26v4.5"></path><path stroke="currentColor" stroke-linecap="round" stroke-linejoin="round" stroke-width="1.549" d="M30 10H6.818a4.736 4.736 0 0 0-3.246 1.268 4.207 4.207 0 0 0-1.345 3.06v10.59c0 .287.121.562.336.765.215.203.507.317.812.317H30V10Z"></path><path stroke="currentColor" stroke-linecap="round" stroke-linejoin="round" stroke-width="1.5" d="M15 10V2M15 7h8l-2-2.5L23 2h-8M15 21.667V19m0 0v-4h2.667c.736 0 1.333.597 1.333 1.333v1.334c0 .736-.597 1.333-1.333 1.333H15Z"></path></svg>