<svg xmlns="http://www.w3.org/2000/svg" width="24" height="24" fill="none" viewBox="0 0 24 24"><title>Mailbox with a flag indicating new mail</title><path stroke="currentColor" stroke-linecap="round" stroke-linejoin="round" stroke-width="1.5" d="M11 19v4M22 8H5.333c-.884 0-1.732.331-2.357.92A3.055 3.055 0 0 0 2 11.144v7.071c0 .209.088.409.244.556a.86.86 0 0 0 .59.23H22V8ZM11 8V1M11 5h6l-1.5-2L17 1h-6"></path><path stroke="currentColor" stroke-linecap="round" stroke-linejoin="round" stroke-width="1.5" d="M11 16v-2m0 0v-3h2a1 1 0 0 1 1 1v1a1 1 0 0 1-1 1h-2Z"></path></svg>