<svg xmlns="http://www.w3.org/2000/svg" width="16" height="16" fill="none" viewBox="0 0 16 16"><title>Map</title><path stroke="currentColor" stroke-linecap="round" stroke-linejoin="round" stroke-width="1.5" d="M8 1c1.06 0 2.078.407 2.828 1.13A3.791 3.791 0 0 1 12 4.86c0 1.859-3.041 6.018-3.82 7.053A.222.222 0 0 1 8 12a.23.23 0 0 1-.18-.088C7.04 10.877 4 6.718 4 4.859c0-1.024.421-2.005 1.172-2.729A4.075 4.075 0 0 1 8 1v0Z"></path><path stroke="currentColor" stroke-linecap="round" stroke-linejoin="round" stroke-width="1.5" d="M2.579 10.626C1.592 11.088 1 11.678 1 12.32 1 13.8 4.134 15 8 15s7-1.2 7-2.68c0-.642-.592-1.232-1.579-1.694"></path></svg>