<svg xmlns="http://www.w3.org/2000/svg" width="32" height="32" fill="none" viewBox="0 0 32 32"><title>Map</title><path stroke="currentColor" stroke-linecap="round" stroke-width="1.5" d="m16 25-4.629 1.851a1 1 0 0 1-.742 0l-9-3.6A1 1 0 0 1 1 22.323V2.977a1 1 0 0 1 1.371-.928L10.63 5.35a1 1 0 0 0 .742 0L20.63 1.65a1 1 0 0 1 .742 0l9 3.6a1 1 0 0 1 .629.928V12.5"></path><path stroke="currentColor" stroke-linecap="round" stroke-linejoin="round" stroke-width="1.5" d="M11 5.5v21M21 2.5v9"></path><path stroke="currentColor" stroke-width="1.5" d="M31 21c0 3.314-5.686 10-6 10-.314 0-6-6.686-6-10a6 6 0 0 1 12 0Z"></path><path stroke="currentColor" stroke-linecap="round" stroke-width="1.5" d="M23.5 22h3"></path></svg>