<svg xmlns="http://www.w3.org/2000/svg" width="24" height="24" fill="none" viewBox="0 0 24 24"><title>Map</title><path stroke="currentColor" stroke-linecap="round" stroke-width="1.5" d="m11.625 18.285-3.24 1.296a1 1 0 0 1-.743 0L1.42 17.092a1 1 0 0 1-.628-.928V2.79a1 1 0 0 1 1.37-.928l5.48 2.191a1 1 0 0 0 .743 0l6.48-2.591a1 1 0 0 1 .742 0L21.83 3.95a1 1 0 0 1 .628.929v4.378"></path><path stroke="currentColor" stroke-linecap="round" stroke-linejoin="round" stroke-width="1.5" d="M8.014 4.202v15.167M15.236 2.035v6.5"></path><path stroke="currentColor" stroke-width="1.5" d="M22.458 15.396c0 2.394-4.107 7.223-4.333 7.223-.227 0-4.334-4.83-4.334-7.223a4.333 4.333 0 0 1 8.667 0Z"></path><path stroke="currentColor" stroke-linecap="round" stroke-width="1.5" d="M17.5 16H19"></path></svg>