<svg xmlns="http://www.w3.org/2000/svg" width="42" height="28" fill="none" viewBox="0 0 42 28"><title>Sofa</title><path stroke="currentColor" stroke-linecap="round" stroke-linejoin="round" stroke-width="2" d="M33.567 10.5a1.9 1.9 0 0 0-1.367.585 2.036 2.036 0 0 0-.567 1.415v2c0 .265-.101.52-.283.707a.95.95 0 0 1-.683.293H11.333a.95.95 0 0 1-.683-.293 1.018 1.018 0 0 1-.283-.707v-2c0-.53-.204-1.04-.567-1.415a1.901 1.901 0 0 0-1.367-.585c-.512 0-1.004.21-1.367.585A2.036 2.036 0 0 0 6.5 12.5v4c0 1.06.407 2.078 1.133 2.828a3.803 3.803 0 0 0 2.734 1.172h21.266a3.803 3.803 0 0 0 2.735-1.172A4.071 4.071 0 0 0 35.5 16.5v-4c0-.53-.204-1.04-.566-1.415a1.901 1.901 0 0 0-1.367-.585Zm-23.2 10v3m21.266-3v3m-23.2-13c0-1.591.611-3.117 1.699-4.243A5.704 5.704 0 0 1 14.233 4.5h13.534a5.7 5.7 0 0 1 4.1 1.757 6.107 6.107 0 0 1 1.7 4.243M21 15.5v-11"></path></svg>