<svg xmlns="http://www.w3.org/2000/svg" width="24" height="24" fill="none" viewBox="0 0 24 24"><title>Dotted square with measuring arrows</title><path stroke="currentColor" stroke-linecap="round" stroke-linejoin="round" stroke-width="1.5" d="m20.56 6.75 2.47-2.47a.748.748 0 0 0 0-1.06L20.67.86"></path><path stroke="currentColor" stroke-linecap="round" stroke-linejoin="round" stroke-width="1.5" d="M3.75 23.25v-18a1.5 1.5 0 0 1 1.5-1.5H23"></path><path stroke="currentColor" stroke-linecap="round" stroke-linejoin="round" stroke-width="1.5" d="m.75 20.561 2.47 2.469a.75.75 0 0 0 1.061 0l2.469-2.47M21.75 23.25a1.5 1.5 0 0 0 1.5-1.5M18.75 23.25h-1.5M14.25 23.25h-1.5M9.75 23.25h-1.5M23.25 18.75v-1.5M23.25 14.25v-1.5M23.25 9.75v-1.5"></path></svg>