<svg xmlns="http://www.w3.org/2000/svg" width="32" height="32" fill="none" viewBox="0 0 32 32"><title>Dotted square with measuring arrows</title><path stroke="currentColor" stroke-linecap="round" stroke-linejoin="round" stroke-width="1.5" d="m27.415 9 3.293-3.293a.999.999 0 0 0 0-1.414l-3.294-3.3"></path><path stroke="currentColor" stroke-linecap="round" stroke-linejoin="round" stroke-width="1.5" d="M5 31V7a2 2 0 0 1 2-2h23.5"></path><path stroke="currentColor" stroke-linecap="round" stroke-linejoin="round" stroke-width="1.5" d="m1 27.415 3.293 3.292a1 1 0 0 0 1.415 0L9 27.414M29 31a2 2 0 0 0 2-2M25 31h-2M19 31h-2M13 31h-2M31 25v-2M31 19v-2M31 13v-2"></path></svg>