<svg xmlns="http://www.w3.org/2000/svg" width="24" height="24" fill="none" viewBox="0 0 24 24"><title>Message bubble with smiley face</title><path fill="currentColor" fill-rule="evenodd" d="M.659.659A2.25 2.25 0 0 1 2.25 0h19.5A2.25 2.25 0 0 1 24 2.25v15a2.25 2.25 0 0 1-2.25 2.25H11.5l-5.8 4.35a.75.75 0 0 1-1.2-.6V19.5H2.25A2.25 2.25 0 0 1 0 17.25v-15C0 1.653.237 1.081.659.659Zm6.968 4.592A2.985 2.985 0 0 0 4.948 6.92a.75.75 0 1 0 1.346.661 1.485 1.485 0 0 1 2.666 0 .75.75 0 1 0 1.346-.661 2.985 2.985 0 0 0-2.679-1.67Zm8.994 0a2.985 2.985 0 0 0-2.679 1.669.75.75 0 0 0 1.347.661 1.484 1.484 0 0 1 2.665 0 .75.75 0 1 0 1.347-.661 2.985 2.985 0 0 0-2.68-1.669Zm-6.858 8.924a.75.75 0 0 1 .961-.448c1.039.378 2.231.378 3.34-.016 1.11-.395 2.035-1.147 2.601-2.096a.75.75 0 1 1 1.288.77c-.754 1.261-1.964 2.233-3.386 2.739-1.422.505-2.975.516-4.356.013a.75.75 0 0 1-.448-.962Z" clip-rule="evenodd"></path></svg>