<svg xmlns="http://www.w3.org/2000/svg" width="32" height="32" fill="none" viewBox="0 0 32 32"><title>Speech bubbles</title><path stroke="currentColor" stroke-linecap="round" stroke-linejoin="round" stroke-width="1.5" d="M29 25H15l-8 6v-6H3a2 2 0 0 1-2-2V3a2 2 0 0 1 2-2h26a2 2 0 0 1 2 2v20a2 2 0 0 1-2 2Z"></path><path stroke="currentColor" stroke-linecap="round" stroke-linejoin="round" stroke-width="1.5" d="M7.508 9.64a2.98 2.98 0 0 1 5.323 0M19.499 9.64a2.98 2.98 0 0 1 5.323 0M21.305 17.02a7.662 7.662 0 0 1-10.28 0"></path></svg>