<svg xmlns="http://www.w3.org/2000/svg" width="16" height="16" fill="none" viewBox="0 0 16 16"><title>Message bubble with smiley face</title><path fill="currentColor" fill-rule="evenodd" d="M.44.44A1.5 1.5 0 0 1 1.5 0h13A1.5 1.5 0 0 1 16 1.5v10a1.5 1.5 0 0 1-1.5 1.5H7.667L3.8 15.9a.5.5 0 0 1-.8-.4V13H1.5A1.5 1.5 0 0 1 0 11.5v-10C0 1.102.158.72.44.44ZM5.084 3.5a1.99 1.99 0 0 0-1.786 1.113.5.5 0 1 0 .897.441.99.99 0 0 1 1.777 0 .5.5 0 1 0 .898-.44A1.99 1.99 0 0 0 5.085 3.5Zm5.996 0a1.99 1.99 0 0 0-1.786 1.113.5.5 0 0 0 .897.441.99.99 0 0 1 1.777 0 .5.5 0 0 0 .898-.44A1.99 1.99 0 0 0 11.081 3.5ZM6.509 9.45a.5.5 0 0 1 .64-.298 3.308 3.308 0 0 0 2.227-.012 3.308 3.308 0 0 0 1.734-1.397.5.5 0 1 1 .859.513 4.307 4.307 0 0 1-2.258 1.827 4.307 4.307 0 0 1-2.904.008.5.5 0 0 1-.298-.64Z" clip-rule="evenodd"></path></svg>