<svg xmlns="http://www.w3.org/2000/svg" width="32" height="32" fill="none" viewBox="0 0 32 32"><title>Message bubble with smiley face</title><path fill="currentColor" fill-rule="evenodd" d="M.879.879A3 3 0 0 1 3 0h26a3 3 0 0 1 3 3v20a3 3 0 0 1-3 3H15.333L7.6 31.8A1 1 0 0 1 6 31v-5H3a3 3 0 0 1-3-3V3A3 3 0 0 1 .879.879ZM10.169 7a3.98 3.98 0 0 0-3.572 2.225 1 1 0 0 0 1.796.882 1.98 1.98 0 0 1 3.554 0 1 1 0 0 0 1.795-.882A3.98 3.98 0 0 0 10.17 7Zm11.993 0a3.98 3.98 0 0 0-3.572 2.225 1 1 0 0 0 1.795.882 1.979 1.979 0 0 1 3.554 0 1 1 0 1 0 1.795-.882A3.98 3.98 0 0 0 22.162 7Zm-9.145 11.9a1 1 0 0 1 1.282-.598c1.385.504 2.975.503 4.453-.022 1.479-.526 2.713-1.529 3.469-2.794a1 1 0 1 1 1.716 1.026c-1.005 1.682-2.619 2.978-4.515 3.652-1.896.674-3.965.688-5.807.017a1 1 0 0 1-.598-1.281Z" clip-rule="evenodd"></path></svg>