<svg xmlns="http://www.w3.org/2000/svg" width="32" height="32" fill="none" viewBox="0 0 32 32"><title>Kitchen machine</title><path stroke="currentColor" stroke-linecap="round" stroke-linejoin="round" stroke-width="2" d="M17.333 30.667V13.333a2.667 2.667 0 0 0-2.666-2.666h-12V4a2.667 2.667 0 0 1 2.666-2.667h23.334c.53 0 1.039.207 1.414.573.375.367.585.864.585 1.383v25.422c0 .519-.21 1.016-.585 1.383a2.023 2.023 0 0 1-1.415.573H17.334Zm-8-20V26"></path><path stroke="currentColor" stroke-linecap="round" stroke-linejoin="round" stroke-width="2" d="M10.921 14.667H7.745a2.412 2.412 0 0 0-2.412 2.412v5.176a2.412 2.412 0 0 0 2.412 2.412h3.176a2.412 2.412 0 0 0 2.412-2.412v-5.176a2.412 2.412 0 0 0-2.412-2.412Zm-9.588 16h16M24 25.333A2.667 2.667 0 1 0 24 20a2.667 2.667 0 0 0 0 5.333Zm-17.333-20v1.334m15.999-1.334v1.334m-4-1.334v1.334m8-1.334v1.334"></path></svg>