<svg xmlns="http://www.w3.org/2000/svg" width="24" height="24" fill="none" viewBox="0 0 24 24"><title>Kitchen machine</title><path stroke="currentColor" stroke-linecap="round" stroke-linejoin="round" stroke-width="1.5" d="M13 23V10a2 2 0 0 0-2-2H2V3a2 2 0 0 1 2-2h17.5c.398 0 .78.155 1.06.43.282.275.44.648.44 1.037v19.066c0 .39-.158.762-.44 1.037a1.51 1.51 0 0 1-1.06.43H13ZM7 8v11.5"></path><path stroke="currentColor" stroke-linecap="round" stroke-linejoin="round" stroke-width="1.5" d="M8.191 11H5.809c-1 0-1.809.81-1.809 1.809v3.882c0 1 .81 1.809 1.809 1.809h2.382c1 0 1.809-.81 1.809-1.809v-3.882c0-1-.81-1.809-1.809-1.809ZM1 23h12m5-4a2 2 0 1 0 0-4 2 2 0 0 0 0 4ZM5 4v1m12-1v1m-3-1v1m6-1v1"></path></svg>