<svg xmlns="http://www.w3.org/2000/svg" width="16" height="16" fill="none" viewBox="0 0 16 16"><title>Kitchen machine</title><path stroke="currentColor" stroke-linecap="round" stroke-linejoin="round" d="M8.666 15.333V6.667c0-.737-.597-1.334-1.333-1.334h-6V2c0-.737.597-1.333 1.333-1.333h11.667c.265 0 .52.103.707.286a.967.967 0 0 1 .293.691v12.711c0 .26-.105.508-.293.692a1.011 1.011 0 0 1-.707.286H8.666Zm-3.999-10V13"></path><path stroke="currentColor" stroke-linecap="round" stroke-linejoin="round" d="M5.46 7.333H3.873c-.667 0-1.207.54-1.207 1.206v2.588c0 .666.54 1.206 1.207 1.206H5.46c.667 0 1.207-.54 1.207-1.206V8.54c0-.666-.54-1.206-1.207-1.206Zm-4.793 8h8M12 12.667A1.333 1.333 0 1 0 12 10a1.333 1.333 0 0 0 0 2.667Zm-8.667-10v.666m8-.666v.666m-2-.666v.666m4-.666v.666"></path></svg>