<svg xmlns="http://www.w3.org/2000/svg" width="32" height="32" fill="none" viewBox="0 0 32 32"><title>Mountain</title><path stroke="currentColor" stroke-linecap="round" stroke-linejoin="round" stroke-width="1.5" d="m5.602 31.066 11.404-18.113a1.691 1.691 0 0 1 2.683 0l11.405 18.113H5.602Z"></path><path stroke="currentColor" stroke-linecap="round" stroke-linejoin="round" stroke-width="1.5" d="M5.602 31.066H.906l5.032-9.056 2.918 3.889M11.573 21.584l3.15 2.647a1.342 1.342 0 0 0 1.815-.075l.862-.862a1.341 1.341 0 0 1 1.897 0l.861.862a1.341 1.341 0 0 0 1.815.075l3.15-2.647M18.012 12.333V.878M18.012.878h9.65a.692.692 0 0 1 .626.403.71.71 0 0 1-.085.744L26.678 3.96a.714.714 0 0 0 0 .88l1.53 1.938a.713.713 0 0 1-.168 1.038.69.69 0 0 1-.372.11h-9.656"></path></svg>