<svg xmlns="http://www.w3.org/2000/svg" width="24" height="25" fill="none" viewBox="0 0 24 25"><title>Mountain</title><path stroke="currentColor" stroke-linecap="round" stroke-linejoin="round" stroke-width="1.5" d="m4.25 23.25 8.5-13.5a1.261 1.261 0 0 1 2 0l8.5 13.5h-19Z"></path><path stroke="currentColor" stroke-linecap="round" stroke-linejoin="round" stroke-width="1.5" d="M4.25 23.25H.75L4.5 16.5l2.175 2.899M8.7 16.183l2.348 1.973a1 1 0 0 0 1.353-.056l.642-.643a1 1 0 0 1 1.414 0l.642.643a1 1 0 0 0 1.353.056l2.348-1.973M13.5 9.288V.75M13.5.75h7.193a.516.516 0 0 1 .466.3.529.529 0 0 1-.063.555l-1.137 1.442a.532.532 0 0 0 0 .656L21.1 5.147a.532.532 0 0 1-.126.774.515.515 0 0 1-.277.082H13.5"></path></svg>