<svg xmlns="http://www.w3.org/2000/svg" width="42" height="28" fill="none" viewBox="0 0 42 28"><title>Nettbil</title><path fill="#044046" d="M9.698 24c3.148 0 5.699-2.537 5.699-5.667s-2.551-5.666-5.699-5.666C6.551 12.666 4 15.203 4 18.332 4 21.463 6.551 24 9.698 24Zm22.604 0c3.148 0 5.699-2.537 5.699-5.667s-2.551-5.666-5.699-5.666c-3.147 0-5.698 2.537-5.698 5.666 0 3.13 2.551 5.667 5.698 5.667Z"></path><path fill="#FF8752" d="M32.302 18.24H9.698C9.698 12.031 14.758 7 21 7s11.302 5.032 11.302 11.24Z"></path></svg>