<svg xmlns="http://www.w3.org/2000/svg" width="24" height="24" fill="none" viewBox="0 0 24 24"><title>Sheet with image, headline, and highlighted plus sign</title><path stroke="currentColor" stroke-linecap="round" stroke-linejoin="round" stroke-width="1.5" d="M19 9.5H5v-5h14v5ZM5 14h6M5 18h4.5"></path><path stroke="currentColor" stroke-linecap="round" stroke-linejoin="round" stroke-width="1.5" d="M9.5 23h-6a2 2 0 0 1-2-2V3a2 2 0 0 1 2-2h17a2 2 0 0 1 2 2v6.5"></path><path stroke="currentColor" stroke-linecap="round" stroke-linejoin="round" stroke-width="1.5" d="M18 23a5 5 0 1 0 0-10 5 5 0 0 0 0 10ZM18 16v4M16 18h4"></path></svg>