<svg xmlns="http://www.w3.org/2000/svg" width="32" height="32" fill="none" viewBox="0 0 32 32"><title>Circle with NBF</title><path stroke="currentColor" stroke-miterlimit="10" stroke-width="1.5" d="M16 31c8.284 0 15-6.716 15-15 0-8.284-6.716-15-15-15C7.716 1 1 7.716 1 16c0 8.284 6.716 15 15 15Z"></path><path fill="currentColor" d="M10.802 12.13c.08-.086.193-.13.345-.13h.687c.15 0 .265.044.344.13.079.087.118.212.118.377v6.985c0 .166-.04.292-.12.377-.078.087-.193.13-.343.13h-.924c-.24 0-.424-.114-.554-.337l-1.52-2.727a40.075 40.075 0 0 1-1.284-2.411c.042.926.063 1.957.063 3.099v1.87c0 .165-.04.29-.118.376-.08.087-.195.13-.346.13h-.687c-.151 0-.266-.043-.345-.128-.08-.087-.118-.213-.118-.377v-6.986c0-.165.039-.291.118-.377.079-.087.194-.13.344-.13h.964c.123 0 .227.026.313.08a.677.677 0 0 1 .231.258l1.674 2.996c.512.91.873 1.574 1.077 1.994a74.425 74.425 0 0 1-.042-2.76v-2.06c0-.167.04-.292.12-.378l.003-.001Z"></path><path fill="currentColor" fill-rule="evenodd" d="M19.38 16.502c.239.326.358.74.358 1.244 0 .706-.205 1.256-.616 1.656-.41.398-.96.597-1.652.597h-3.337c-.15 0-.265-.044-.344-.13-.079-.086-.118-.212-.118-.376v-6.986c0-.165.04-.291.118-.377.08-.087.194-.13.344-.13h3.121c.65 0 1.184.183 1.6.546.419.366.627.873.627 1.527 0 .434-.099.8-.297 1.092-.2.294-.473.503-.82.632.436.142.775.377 1.015.704l.001.001Zm-4.056-1.36h1.509c.337 0 .591-.08.77-.24.18-.163.267-.386.267-.671 0-.564-.342-.846-1.027-.846h-1.52v1.757Zm2.75 2.446c0 .33-.101.584-.306.76v.002c-.206.175-.51.263-.914.263h-1.53V16.55h1.53c.403 0 .708.094.914.277.205.184.307.438.307.76Z" clip-rule="evenodd"></path><path fill="currentColor" d="M25.882 12.13c.079.086.118.212.118.376v.519c0 .166-.04.291-.118.377-.079.087-.194.13-.344.13h-3.12v1.792h2.863c.152 0 .266.043.345.13.08.086.118.213.118.377v.52c0 .164-.039.29-.118.376-.079.087-.194.13-.344.13h-2.863v2.634c0 .166-.04.292-.119.378-.079.086-.193.13-.344.13h-.739c-.15 0-.265-.044-.344-.13-.079-.086-.118-.212-.118-.376v-6.986c0-.165.04-.291.118-.377.08-.087.194-.13.344-.13h4.322c.151 0 .266.043.345.13h-.002Z"></path></svg>