<svg xmlns="http://www.w3.org/2000/svg" width="32" height="32" fill="none" viewBox="0 0 32 32"><title>Office desk with a computer screen</title><path stroke="currentColor" stroke-linecap="round" stroke-linejoin="round" stroke-width="1.5" d="M1 29V16.5a.5.5 0 0 1 .5-.5h29a.5.5 0 0 1 .5.5V20M24 16v-3.5a.5.5 0 0 1 .5-.5h3a.5.5 0 0 1 .5.5v2.833"></path><path stroke="currentColor" stroke-linecap="round" stroke-linejoin="round" stroke-width="1.5" d="M17 20v8.5a.5.5 0 0 0 .5.5h13a.5.5 0 0 0 .5-.5V20M17.334 24h13.333M1.333 20h29.334M15.25 3H4.75C3.784 3 3 3.69 3 4.543v5.914C3 11.31 3.784 12 4.75 12h10.5c.966 0 1.75-.69 1.75-1.543V4.543C17 3.69 16.216 3 15.25 3ZM10 12v4"></path></svg>