<svg xmlns="http://www.w3.org/2000/svg" width="42" height="28" fill="none" viewBox="0 0 42 28"><title>Oikotie</title><path fill="#202020" d="M36.481 8.296H-.023V19.37h36.504L42 13.834l-5.52-5.538Z"></path><path fill="#fff" d="M10.189 16.3h1.07v-4.933h-1.07V16.3Zm4.956.009-1.725-1.731-.012.012-.011-.012v1.724h-1.07V11.37h1.07v1.715l1.719-1.726h1.512l-2.452 2.46 2.481 2.491h-1.512Zm10.614-3.869H24.34v3.86h-1.07v-3.86h-1.439v-1.073h3.927v1.073Zm1.069 3.86h1.069v-4.933h-1.07V16.3Zm5.518-3.86h-2.299v.82h2.299v1.073h-2.299v.894h2.299V16.3h-3.38v-4.933h3.38v1.073Zm-25.651.035c-.748 0-1.354.608-1.354 1.359 0 .75.606 1.359 1.354 1.359.748 0 1.355-.609 1.355-1.36 0-.75-.607-1.358-1.355-1.358Zm0 3.837a2.474 2.474 0 0 1-2.47-2.479 2.474 2.474 0 0 1 2.47-2.478c1.365 0 2.47 1.11 2.47 2.479a2.474 2.474 0 0 1-2.47 2.478Z"></path><path fill="#fff" d="M18.993 12.475c-.748 0-1.355.608-1.355 1.359 0 .75.607 1.359 1.355 1.359s1.354-.609 1.354-1.36c0-.75-.606-1.358-1.354-1.358Zm0 3.837a2.474 2.474 0 0 1-2.47-2.479 2.474 2.474 0 0 1 2.47-2.478c1.364 0 2.47 1.11 2.47 2.479a2.474 2.474 0 0 1-2.47 2.478Z"></path></svg>