<svg xmlns="http://www.w3.org/2000/svg" width="42" height="28" fill="none" viewBox="0 0 42 28"><title>Paint roller in action</title><path stroke="currentColor" stroke-linecap="round" stroke-linejoin="round" stroke-width="2" d="M10 15v9M5 7v17"></path><path stroke="currentColor" stroke-linejoin="round" stroke-width="2" d="M22 27a2 2 0 0 1-2-2v-7a2 2 0 1 1 4 0v7a2 2 0 0 1-2 2Z"></path><path stroke="currentColor" stroke-linejoin="round" stroke-width="2" d="M22 16v-2a2 2 0 0 1 2-2h11a2 2 0 0 0 2-2V6a2 2 0 0 0-2-2h-2"></path><path stroke="currentColor" stroke-linejoin="round" stroke-width="2" d="M11 3a2 2 0 0 1 2-2h18a2 2 0 0 1 2 2v2a2 2 0 0 1-2 2H13a2 2 0 0 1-2-2V3Z"></path></svg>