<svg xmlns="http://www.w3.org/2000/svg" width="25" height="24" fill="none" viewBox="0 0 25 24"><title>Cat's paw</title><path stroke="currentColor" stroke-linecap="round" stroke-linejoin="round" stroke-width="1.5" d="M16.482 14.79a4.2 4.2 0 0 0-2.034-3.114 4.737 4.737 0 0 0-4.876 0 4.2 4.2 0 0 0-2.034 3.114 2.181 2.181 0 0 1-1.161 1.638 3.445 3.445 0 0 0-1.7 4.1 3.574 3.574 0 0 0 2.5 2.325 3.958 3.958 0 0 0 3.474-.667 2.244 2.244 0 0 1 2.718 0 3.957 3.957 0 0 0 3.474.667 3.574 3.574 0 0 0 2.5-2.325 3.445 3.445 0 0 0-1.7-4.1 2.181 2.181 0 0 1-1.161-1.638v0ZM8.26 8.75c1.242 0 2.25-1.343 2.25-3s-1.008-3-2.25-3c-1.243 0-2.25 1.343-2.25 3s1.007 3 2.25 3ZM3.01 14.75c1.242 0 2.25-1.343 2.25-3s-1.008-3-2.25-3c-1.243 0-2.25 1.343-2.25 3s1.007 3 2.25 3ZM15.76 8.75c1.242 0 2.25-1.343 2.25-3s-1.008-3-2.25-3c-1.243 0-2.25 1.343-2.25 3s1.007 3 2.25 3ZM21.01 14.75c1.242 0 2.25-1.343 2.25-3s-1.008-3-2.25-3c-1.243 0-2.25 1.343-2.25 3s1.007 3 2.25 3ZM3.01 8.75v-1.5M8.26 2.75v-1.5M15.76 2.75v-1.5M21.01 8.75v-1.5"></path></svg>