<svg xmlns="http://www.w3.org/2000/svg" width="32" height="32" fill="none" viewBox="0 0 32 32"><title>Cat's paw</title><path stroke="currentColor" stroke-linecap="round" stroke-linejoin="round" stroke-width="1.5" d="M21.976 19.72a5.601 5.601 0 0 0-2.712-4.152 6.315 6.315 0 0 0-6.501 0 5.6 5.6 0 0 0-2.712 4.152 2.908 2.908 0 0 1-1.548 2.184 4.593 4.593 0 0 0-2.267 5.467 4.765 4.765 0 0 0 3.333 3.1 5.279 5.279 0 0 0 4.632-.89 2.991 2.991 0 0 1 3.625 0 5.278 5.278 0 0 0 4.631.89 4.765 4.765 0 0 0 3.334-3.1 4.593 4.593 0 0 0-2.267-5.467 2.907 2.907 0 0 1-1.548-2.184v0ZM11.014 11.667c1.657 0 3-1.791 3-4 0-2.21-1.343-4-3-4s-3 1.79-3 4c0 2.209 1.343 4 3 4ZM4.014 19.667c1.657 0 3-1.791 3-4 0-2.21-1.343-4-3-4s-3 1.79-3 4c0 2.209 1.343 4 3 4ZM21.014 11.667c1.657 0 3-1.791 3-4 0-2.21-1.343-4-3-4s-3 1.79-3 4c0 2.209 1.343 4 3 4ZM28.014 19.667c1.657 0 3-1.791 3-4 0-2.21-1.343-4-3-4s-3 1.79-3 4c0 2.209 1.343 4 3 4ZM4.014 11.667v-2M11.014 3.667v-2M21.014 3.667v-2M28.014 11.667v-2"></path></svg>