<svg xmlns="http://www.w3.org/2000/svg" width="42" height="28" fill="none" viewBox="0 0 42 28"><title>Cat's paw</title><path stroke="currentColor" stroke-linecap="round" stroke-linejoin="round" stroke-width="2" d="M11.25 18.063c1.346 0 2.438-1.82 2.438-4.063 0-2.244-1.092-4.063-2.438-4.063S8.812 11.758 8.812 14c0 2.244 1.092 4.063 2.438 4.063Zm5.688-8.125c1.346 0 2.437-1.82 2.437-4.063 0-2.244-1.091-4.063-2.438-4.063-1.346 0-2.437 1.82-2.437 4.063 0 2.244 1.091 4.063 2.438 4.063ZM30.75 17.25c1.346 0 2.438-1.819 2.438-4.063 0-2.243-1.092-4.062-2.438-4.062s-2.438 1.819-2.438 4.063c0 2.243 1.092 4.062 2.438 4.062Zm-5.687-7.312c1.346 0 2.437-1.82 2.437-4.063 0-2.244-1.091-4.063-2.438-4.063-1.346 0-2.437 1.82-2.437 4.063 0 2.244 1.091 4.063 2.438 4.063Zm.621 8.019a1.632 1.632 0 0 1-.626-1.361v-.159a4.062 4.062 0 1 0-8.125 0v.159a1.626 1.626 0 0 1-.626 1.361 4.293 4.293 0 0 0-1.807 3.355c0 2.693 2.91 4.875 6.5 4.875s6.5-2.182 6.5-4.875a4.294 4.294 0 0 0-1.816-3.355Z"></path></svg>