<svg xmlns="http://www.w3.org/2000/svg" width="32" height="32" fill="none" viewBox="0 0 32 32"><title>Map pin</title><path stroke="currentColor" stroke-linecap="round" stroke-linejoin="round" stroke-width="1.5" d="M16 1.333c2.83 0 5.542 1.214 7.543 3.374 2 2.16 3.124 5.09 3.124 8.146 0 4.686-5.787 12.885-8.835 16.88a2.408 2.408 0 0 1-.819.689 2.226 2.226 0 0 1-1.012.245c-.35 0-.696-.084-1.012-.245a2.408 2.408 0 0 1-.819-.69c-3.048-3.99-8.837-12.193-8.837-16.88 0-3.054 1.124-5.984 3.125-8.145 2-2.16 4.713-3.374 7.542-3.374Z"></path><path stroke="currentColor" stroke-linecap="round" stroke-linejoin="round" stroke-width="1.5" d="M16 16a4 4 0 1 0 0-8 4 4 0 0 0 0 8Z"></path></svg>