<svg xmlns="http://www.w3.org/2000/svg" width="24" height="24" fill="none" viewBox="0 0 24 24"><title>Map pin</title><path stroke="currentColor" stroke-linecap="round" stroke-linejoin="round" stroke-width="1.5" d="M12 1c2.122 0 4.157.91 5.657 2.53C19.157 5.15 20 7.348 20 9.64c0 3.514-4.34 9.663-6.626 12.66a1.804 1.804 0 0 1-.614.516 1.669 1.669 0 0 1-1.519 0 1.804 1.804 0 0 1-.613-.516C8.34 19.306 4 13.154 4 9.64c0-2.292.843-4.49 2.343-6.11S9.878 1 12 1Z"></path><path stroke="currentColor" stroke-linecap="round" stroke-linejoin="round" stroke-width="1.5" d="M12 12a3 3 0 1 0 0-6 3 3 0 0 0 0 6Z"></path></svg>