<svg xmlns="http://www.w3.org/2000/svg" width="32" height="32" fill="none" viewBox="0 0 32 32"><title>Map pin with a shadow underneath</title><path stroke="currentColor" stroke-linecap="round" stroke-linejoin="round" stroke-width="1.5" d="M16 14a4 4 0 1 0 0-8 4 4 0 0 0 0 8Z"></path><path stroke="currentColor" stroke-linecap="round" stroke-linejoin="round" stroke-width="1.5" d="M16 1a9 9 0 0 1 9 9c0 4.335-6.843 14.036-8.595 16.45a.502.502 0 0 1-.81 0C13.843 24.035 7 14.334 7 10a9 9 0 0 1 9-9v0Z"></path><path stroke="currentColor" stroke-linecap="round" stroke-linejoin="round" stroke-width="1.5" d="M24.095 23.737C27.668 24.46 30 25.653 30 27c0 2.21-6.267 4-14 4S2 29.21 2 27c0-1.345 2.322-2.534 5.878-3.26"></path></svg>