<svg xmlns="http://www.w3.org/2000/svg" width="24" height="24" fill="none" viewBox="0 0 24 24"><title>Map pin with a shadow underneath</title><path stroke="currentColor" stroke-linecap="round" stroke-linejoin="round" stroke-width="1.5" d="M12 10.5a3 3 0 1 0 0-6 3 3 0 0 0 0 6Z"></path><path stroke="currentColor" stroke-linecap="round" stroke-linejoin="round" stroke-width="1.5" d="M12 .75a6.75 6.75 0 0 1 6.75 6.75c0 3.251-5.132 10.527-6.446 12.337a.377.377 0 0 1-.608 0C10.382 18.027 5.25 10.751 5.25 7.5A6.75 6.75 0 0 1 12 .75v0Z"></path><path stroke="currentColor" stroke-linecap="round" stroke-linejoin="round" stroke-width="1.5" d="M18.132 17.815c2.645.544 4.368 1.432 4.368 2.435 0 1.657-4.7 3-10.5 3s-10.5-1.343-10.5-3c0-1.003 1.721-1.89 4.363-2.435"></path></svg>