<svg xmlns="http://www.w3.org/2000/svg" width="24" height="24" fill="none" viewBox="0 0 24 24"><title>Hand with plane ticket</title><path stroke="currentColor" stroke-linecap="round" stroke-linejoin="round" stroke-width="1.5" d="m7.5 15 1.673-1.256a1.572 1.572 0 0 1 2.247.385 1.571 1.571 0 0 1 0 1.741l-1.645 2.467A4.5 4.5 0 0 1 7.7 20.019l-2.418.968M.75 23.25v-5.077a4.5 4.5 0 0 1 .364-1.773l1.177-2.746a4.5 4.5 0 0 1 2.364-2.364l3.524-1.51"></path><path stroke="currentColor" stroke-linecap="round" stroke-linejoin="round" stroke-width="1.5" d="M8.25 19.755V21a2.25 2.25 0 0 0 2.25 2.25H21A2.25 2.25 0 0 0 23.25 21V3A2.25 2.25 0 0 0 21 .75h-2.25a3 3 0 0 1-6 0H10.5A2.25 2.25 0 0 0 8.25 3v11.437"></path><path stroke="currentColor" stroke-linecap="round" stroke-linejoin="round" stroke-width="1.5" d="m12.286 9.525 1.384.803 5.804-2.84M17.07 8.665 13.785 6.75M23.25 18.75h-3M17.25 18.75H15"></path></svg>