<svg xmlns="http://www.w3.org/2000/svg" width="32" height="32" fill="none" viewBox="0 0 32 32"><title>Hand with plane ticket</title><path stroke="currentColor" stroke-linecap="round" stroke-linejoin="round" stroke-width="1.5" d="m9.598 20.428 2.193-1.646a2.058 2.058 0 0 1 2.945 2.787l-2.156 3.233a5.899 5.899 0 0 1-2.72 2.205L6.682 28.28M.75 31.242v-6.655c0-.799.162-1.59.477-2.323l1.543-3.6a5.898 5.898 0 0 1 3.099-3.099l4.685-2.007"></path><path stroke="currentColor" stroke-linecap="round" stroke-linejoin="round" stroke-width="1.5" d="M10.58 26.661v1.632a2.95 2.95 0 0 0 2.95 2.95h13.763a2.95 2.95 0 0 0 2.949-2.95V4.699a2.95 2.95 0 0 0-2.95-2.949h-2.948a3.932 3.932 0 1 1-7.865 0h-2.95a2.95 2.95 0 0 0-2.948 2.95v14.99"></path><path stroke="currentColor" stroke-linecap="round" stroke-linejoin="round" stroke-width="1.5" d="m15.871 13.252 1.814 1.053 7.61-3.725M22.14 12.125l-4.303-2.51M30.242 25.344H26.31M22.377 25.344h-2.949"></path></svg>