<svg xmlns="http://www.w3.org/2000/svg" width="32" height="32" fill="none" viewBox="0 0 32 32"><title>Loudspeaker</title><path stroke="currentColor" stroke-linecap="round" stroke-linejoin="round" stroke-width="1.462" d="m4.824 16.953.56-1.489-1.308-3.477a1.19 1.19 0 0 1 .45-1.403l3.076-2.033.96-3.591c.07-.26.224-.487.439-.644.214-.158.475-.237.74-.223l3.67.189 2.86-2.338a1.152 1.152 0 0 1 1.458 0l2.86 2.338 3.67-.185c.264-.014.526.065.74.223.215.157.37.384.439.643l.96 3.591 3.076 2.034a1.19 1.19 0 0 1 .45 1.403l-1.308 3.477 1.308 3.476c.094.25.101.527.02.782a1.175 1.175 0 0 1-.47.622l-3.076 2.027-.965 3.593c-.07.259-.224.486-.438.644a1.15 1.15 0 0 1-.741.224l-3.67-.185-2.84 2.316"></path><path stroke="currentColor" stroke-linecap="round" stroke-linejoin="round" stroke-width="1.5" d="m1.663 24.495 3.327 4.99M22.386 22.496 3.999 28l-1.333-2 12.21-15.333 7.51 11.829ZM14 9.333 23.333 24M8 27.088l1.168 1.795a2.722 2.722 0 0 0 3.875.818 3.008 3.008 0 0 0 .782-4.053"></path></svg>