<svg xmlns="http://www.w3.org/2000/svg" width="24" height="24" fill="none" viewBox="0 0 24 24"><title>House with a highlighted map pin</title><path stroke="currentColor" stroke-linecap="round" stroke-linejoin="round" stroke-width="1.5" d="M11 20H6a1.5 1.5 0 0 1-1.5-1.5V6.035"></path><path stroke="currentColor" stroke-linecap="round" stroke-linejoin="round" stroke-width="1.5" d="m1.5 8 8.781-6.18a1.5 1.5 0 0 1 1.938 0l7.726 6.137M18 12a3.94 3.94 0 0 1 2.828 1.208A4.19 4.19 0 0 1 22 16.125c0 1.76-2.39 5.179-3.475 6.61A.67.67 0 0 1 18 23a.65.65 0 0 1-.525-.264C16.389 21.304 14 17.886 14 16.125a4.19 4.19 0 0 1 1.172-2.917A3.94 3.94 0 0 1 18 12v0ZM17.5 16h1M8 11V8h3v3H8Z"></path></svg>