<svg xmlns="http://www.w3.org/2000/svg" width="32" height="32" fill="none" viewBox="0 0 32 32"><title>House with a highlighted map pin</title><path stroke="currentColor" stroke-linecap="round" stroke-linejoin="round" stroke-width="1.5" d="M14.667 27H8a2 2 0 0 1-2-2V8.04"></path><path stroke="currentColor" stroke-linecap="round" stroke-linejoin="round" stroke-width="1.492" d="m2.5 10.5 11.212-8.03a1.99 1.99 0 0 1 2.57 0l10.17 7.992"></path><path stroke="currentColor" stroke-linecap="round" stroke-linejoin="round" stroke-width="1.5" d="M24 16c1.415 0 2.771.58 3.772 1.61a5.588 5.588 0 0 1 1.562 3.89c0 2.348-3.186 6.905-4.633 8.814a.896.896 0 0 1-.311.26.867.867 0 0 1-1.09-.26c-1.447-1.909-4.633-6.466-4.633-8.814 0-1.459.562-2.858 1.562-3.89A5.253 5.253 0 0 1 24 16v0ZM14 10h-4v4h4v-4ZM23 22h2"></path></svg>