<svg xmlns="http://www.w3.org/2000/svg" width="32" height="32" fill="none" viewBox="0 0 32 32"><title>Rocket</title><path stroke="currentColor" stroke-linecap="round" stroke-linejoin="round" stroke-width="1.5" d="M7.434 29.094c-2.037 1.886-5.91 1.102-5.91 1.102s-.868-3.942 1.101-5.91a2.904 2.904 0 0 1 4.509.301 2.905 2.905 0 0 1 .3 4.507ZM28.403 3.309l1.976-1.976M28.666 10.211l-.263-6.902-6.902-.263a6.224 6.224 0 0 0-5.105 2.86l-7.504 12.42 4.482 4.488 12.42-7.497a6.216 6.216 0 0 0 2.075-2.194c.501-.89.797-1.73.797-2.912Z"></path><path stroke="currentColor" stroke-linecap="round" stroke-linejoin="round" stroke-width="1.5" d="m8.897 18.332-4.005-.983a.861.861 0 0 1-.605-.551.715.715 0 0 1 .151-.745l2.908-2.9a2.87 2.87 0 0 1 3.023-.605l1.625.576M13.38 22.822l.983 4.005a.862.862 0 0 0 .55.605.713.713 0 0 0 .747-.151l2.905-2.916a2.872 2.872 0 0 0 .594-3.023l-.63-1.603M21.562 12.418a2.267 2.267 0 1 0 0-4.534 2.267 2.267 0 0 0 0 4.534Z"></path></svg>