<svg xmlns="http://www.w3.org/2000/svg" width="24" height="24" fill="none" viewBox="0 0 24 24"><title>Rocket</title><path stroke="currentColor" stroke-linecap="round" stroke-linejoin="round" stroke-width="1.5" d="M5.576 21.82c-1.528 1.415-4.433.827-4.433.827s-.65-2.956.826-4.433a2.178 2.178 0 0 1 3.381.227 2.179 2.179 0 0 1 .226 3.38ZM21.303 2.482 22.784 1M21.5 7.658l-.197-5.176-5.177-.198a4.668 4.668 0 0 0-3.83 2.146L6.67 13.744l3.362 3.367 9.314-5.624a4.663 4.663 0 0 0 1.557-1.644c.376-.668.598-1.299.598-2.185Z"></path><path stroke="currentColor" stroke-linecap="round" stroke-linejoin="round" stroke-width="1.5" d="m6.672 13.749-3.003-.737a.647.647 0 0 1-.454-.414.536.536 0 0 1 .113-.559L5.51 9.864a2.154 2.154 0 0 1 2.267-.453L9 9.845M10.035 17.116l.737 3.004a.646.646 0 0 0 .413.454.535.535 0 0 0 .56-.114l2.178-2.186a2.154 2.154 0 0 0 .446-2.267l-.446-1.133M16.171 9.313a1.7 1.7 0 1 0 0-3.4 1.7 1.7 0 0 0 0 3.4Z"></path></svg>