<svg xmlns="http://www.w3.org/2000/svg" width="32" height="32" fill="none" viewBox="0 0 32 32"><title>Three stars with text below</title><path stroke="currentColor" stroke-linecap="round" stroke-linejoin="round" stroke-width="1.5" d="M15.421 2.356a.648.648 0 0 1 1.158 0l1.345 2.712a.644.644 0 0 0 .484.35l3.019.435a.641.641 0 0 1 .518.431.627.627 0 0 1-.161.65L19.6 9.058a.632.632 0 0 0-.184.558l.517 2.996a.631.631 0 0 1-.258.62.65.65 0 0 1-.679.047l-2.695-1.405a.643.643 0 0 0-.602 0L13.01 13.28a.65.65 0 0 1-.897-.32.631.631 0 0 1-.04-.347l.517-2.996a.63.63 0 0 0-.184-.558l-2.191-2.126a.627.627 0 0 1 .037-.938.641.641 0 0 1 .32-.142l3.019-.436a.644.644 0 0 0 .484-.349l1.345-2.712ZM6.979 3.992a.645.645 0 0 0-.579.356L5.053 7.06a.644.644 0 0 1-.485.35l-3.017.435a.641.641 0 0 0-.519.431.63.63 0 0 0 .16.65l2.192 2.12a.627.627 0 0 1 .183.56L3.05 14.6a.632.632 0 0 0 .257.621.654.654 0 0 0 .68.046l2.687-1.4a.653.653 0 0 1 .604 0l1.132.59M25.022 3.992a.646.646 0 0 1 .578.356l1.347 2.707a.644.644 0 0 0 .485.349l3.018.436a.641.641 0 0 1 .518.43.63.63 0 0 1-.16.65l-2.192 2.127a.628.628 0 0 0-.182.558l.516 2.995a.631.631 0 0 1-.258.621.655.655 0 0 1-.68.046l-2.686-1.402a.654.654 0 0 0-.604 0l-1.128.59M4 20h24M4 30h24M4 25h18.667"></path></svg>