<svg xmlns="http://www.w3.org/2000/svg" width="24" height="24" fill="none" viewBox="0 0 24 24"><title>Three stars with text below</title><path stroke="currentColor" stroke-linecap="round" stroke-linejoin="round" stroke-width="1.5" d="M11.566 1.017a.486.486 0 0 1 .868 0l1.01 2.034a.483.483 0 0 0 .362.262l2.264.327a.481.481 0 0 1 .39.323.47.47 0 0 1-.122.487L14.7 6.044a.473.473 0 0 0-.138.42l.388 2.246a.474.474 0 0 1-.194.465.487.487 0 0 1-.509.035l-2.02-1.054a.482.482 0 0 0-.453 0L9.758 9.21a.487.487 0 0 1-.673-.24.474.474 0 0 1-.03-.26l.388-2.247a.473.473 0 0 0-.138-.419L7.662 4.45a.47.47 0 0 1 .028-.704.481.481 0 0 1 .24-.106l2.264-.327a.483.483 0 0 0 .363-.262l1.01-2.034ZM5.234 2.244a.484.484 0 0 0-.434.267L3.79 4.545a.483.483 0 0 1-.364.262l-2.263.327a.48.48 0 0 0-.389.323.472.472 0 0 0 .12.487l1.644 1.591a.471.471 0 0 1 .137.42L2.288 10.2a.474.474 0 0 0 .443.555c.09.006.18-.013.26-.055l2.015-1.05a.49.49 0 0 1 .453 0l.834.435M18.766 2.244a.484.484 0 0 1 .434.267l1.01 2.03a.483.483 0 0 0 .364.262l2.263.327a.481.481 0 0 1 .389.323.471.471 0 0 1-.12.487l-1.644 1.595a.47.47 0 0 0-.137.42l.387 2.245a.474.474 0 0 1-.443.555.491.491 0 0 1-.26-.055l-2.015-1.05a.49.49 0 0 0-.453 0l-.844.44M3 14h18M3 22h18M3 18h14"></path></svg>