<svg xmlns="http://www.w3.org/2000/svg" width="32" height="32" fill="none" viewBox="0 0 32 32"><title>Highlighted vertical rectangle with two rectangles in the background</title><path stroke="currentColor" stroke-linecap="round" stroke-linejoin="round" stroke-width="1.5" d="M9 5a2 2 0 0 1 2-2h10a2 2 0 0 1 2 2v22a2 2 0 0 1-2 2H11a2 2 0 0 1-2-2V5ZM26 7h2.667C29.403 7 30 7.597 30 8.333v16c0 .737-.597 1.334-1.333 1.334H26M6 7H3.333C2.597 7 2 7.597 2 8.333v16c0 .737.597 1.334 1.333 1.334H6"></path></svg>