<svg xmlns="http://www.w3.org/2000/svg" width="32" height="32" fill="none" viewBox="0 0 32 32"><title>Spinning propeller</title><path stroke="currentColor" stroke-linecap="round" stroke-linejoin="round" stroke-width="1.5" d="M16.514 21.233a2.635 2.635 0 1 0 0-5.269 2.635 2.635 0 0 0 0 5.27ZM23.534 9.048a11.844 11.844 0 0 1 4.715 7.879M4.774 16.948a11.848 11.848 0 0 1 4.698-7.885M11.004 29.095a11.85 11.85 0 0 0 10.586.217"></path><path stroke="currentColor" stroke-linecap="round" stroke-linejoin="round" stroke-width="1.5" d="m15.617 16.121-1.56-1.333a3.866 3.866 0 0 1-1.076-4.355l3.152-7.937a1.496 1.496 0 0 1 2.899.627L18 16.425M14.816 20.613l-.378 2.02a3.857 3.857 0 0 1-3.238 3.11L2.755 26.98a1.498 1.498 0 0 1-.908-2.824l12.036-5.76M19.106 19.067l1.94-.683a3.86 3.86 0 0 1 4.308 1.245l5.295 6.696a1.498 1.498 0 0 1-1.992 2.198L17.65 20.98"></path></svg>