<svg xmlns="http://www.w3.org/2000/svg" width="24" height="24" fill="none" viewBox="0 0 24 24"><title>Spinning propeller</title><path stroke="currentColor" stroke-linecap="round" stroke-linejoin="round" stroke-width="1.5" d="M12.386 15.924a1.976 1.976 0 1 0 0-3.952 1.976 1.976 0 0 0 0 3.952ZM17.652 6.786a8.881 8.881 0 0 1 3.53 5.868M3.582 12.71a8.885 8.885 0 0 1 3.52-5.91M8.254 21.82a8.886 8.886 0 0 0 7.93.167"></path><path stroke="currentColor" stroke-linecap="round" stroke-linejoin="round" stroke-width="1.5" d="m11.714 12.09-1.17-1a2.9 2.9 0 0 1-.807-3.265l2.364-5.953a1.122 1.122 0 0 1 2.174.47l-.774 9.976M11.113 15.46l-.284 1.514A2.893 2.893 0 0 1 8.4 19.306l-6.334.928a1.123 1.123 0 0 1-.681-2.118l9.027-4.32M14.33 14.3l1.455-.513a2.894 2.894 0 0 1 3.232.934l3.97 5.022a1.123 1.123 0 0 1-1.494 1.648l-8.254-5.657"></path></svg>