<svg xmlns="http://www.w3.org/2000/svg" width="16" height="16" fill="none" viewBox="0 0 16 16"><title>Question mark</title><path stroke="currentColor" stroke-linecap="round" stroke-linejoin="round" stroke-width="1.5" d="M6 5.764c0-.323.1-.64.292-.917.19-.276.463-.5.789-.65a2.227 2.227 0 0 1 2.074.127c.3.187.535.443.68.74.146.296.196.623.146.943-.05.32-.2.623-.431.874-.232.25-.538.44-.883.548a.997.997 0 0 0-.484.322.813.813 0 0 0-.183.51V9M8 12v.5"></path><path stroke="currentColor" stroke-miterlimit="10" stroke-width="1.5" d="M8 15A7 7 0 1 0 8 1a7 7 0 0 0 0 14Z"></path></svg>