<svg xmlns="http://www.w3.org/2000/svg" width="32" height="32" fill="none" viewBox="0 0 32 32"><title>Sailboat on water</title><path stroke="currentColor" stroke-linecap="round" stroke-linejoin="round" stroke-width="1.5" d="M1 30.972a7.348 7.348 0 0 0 6-2 6.063 6.063 0 0 0 9 0 6.063 6.063 0 0 0 9 0 7.348 7.348 0 0 0 5.949 2.007M29.01 26.983a8.303 8.303 0 0 0 1.905-2.605A1 1 0 0 0 30 22.973H2a1 1 0 0 0-.914 1.405A8.607 8.607 0 0 0 3.43 27.38M15.001 22.972v-6.1M14.681 1.672c.208.288.32.634.32.99l-.003 14.292-11.13.016a1 1 0 0 1-.84-1.548l8.927-13.768a1.69 1.69 0 0 1 2.726.018ZM20.842 7.836A1 1 0 0 0 19 8.378v10.594h7.168a1 1 0 0 0 .84-1.54l-6.167-9.596Z"></path></svg>