<svg xmlns="http://www.w3.org/2000/svg" width="42" height="28" fill="none" viewBox="0 0 42 28"><title>Two birds and a sailboat on water</title><path stroke="currentColor" stroke-linecap="round" stroke-linejoin="round" stroke-width="2" d="m33 23.428 3.119-6.236a.429.429 0 0 0-.383-.62H6.266a.429.429 0 0 0-.384.62L9 23.428"></path><path stroke="currentColor" stroke-linecap="round" stroke-linejoin="round" stroke-width="2" d="M3.857 25.073c1.241.168 2.5.031 3.687-.402a8.299 8.299 0 0 0 3.17-2.1 6.993 6.993 0 0 0 2.329 1.849c.886.43 1.845.653 2.814.653.97 0 1.928-.222 2.814-.653A6.994 6.994 0 0 0 21 22.57a6.993 6.993 0 0 0 2.329 1.849c.886.43 1.844.653 2.814.653s1.928-.222 2.814-.653a6.993 6.993 0 0 0 2.329-1.849 8.3 8.3 0 0 0 3.17 2.1 7.714 7.714 0 0 0 3.64.409M10.732 3.733l1.696 1.696 1.696-1.696M5.592 8.878l1.694 1.693 1.693-1.693M21 2.857l12 10.286H21V2.857Zm0 13.714v-3.428"></path></svg>