<svg xmlns="http://www.w3.org/2000/svg" width="24" height="25" fill="none" viewBox="0 0 24 25"><title>Sailboat on water</title><path stroke="currentColor" stroke-linecap="round" stroke-linejoin="round" stroke-width="1.5" d="M.75 23.262a5.512 5.512 0 0 0 4.5-1.5 4.546 4.546 0 0 0 6.75 0 4.546 4.546 0 0 0 6.75 0 5.511 5.511 0 0 0 4.46 1.505M21.756 20.27a6.228 6.228 0 0 0 1.43-1.954.75.75 0 0 0-.686-1.054h-21a.75.75 0 0 0-.686 1.054 6.455 6.455 0 0 0 1.758 2.252M11.25 17.262v-4.575M11.01 1.288c.156.216.24.475.24.742l-.002 10.718-8.348.013a.75.75 0 0 1-.629-1.161L8.966 1.274a1.267 1.267 0 0 1 2.044.014ZM15.63 5.91a.75.75 0 0 0-1.38.407v7.945h5.376a.751.751 0 0 0 .63-1.155L15.632 5.91Z"></path></svg>