<svg xmlns="http://www.w3.org/2000/svg" width="24" height="24" fill="none" viewBox="0 0 24 24"><title>House with heat waves</title><path stroke="currentColor" stroke-linecap="round" stroke-linejoin="round" stroke-width="1.5" d="m1.044 7.971 10.143-6.726a1.472 1.472 0 0 1 1.627 0l10.142 6.726M8.75 18.377c.491-.609.78-1.357.823-2.138 0-1.335-.823-2.671-.823-4.008a3.725 3.725 0 0 1 .809-2.12M14 18.377c.491-.609.78-1.357.823-2.138 0-1.335-.823-2.671-.823-4.008.043-.77.323-1.509.803-2.113"></path><path fill="currentColor" d="M3.5 23h-.75c0 .414.336.75.75.75V23Zm17 0v.75a.75.75 0 0 0 .75-.75h-.75Zm.75-16.5a.75.75 0 0 0-1.5 0h1.5Zm-18.5 0V23h1.5V6.5h-1.5Zm.75 17.25h17v-1.5h-17v1.5ZM21.25 23V6.5h-1.5V23h1.5Z"></path></svg>