<svg xmlns="http://www.w3.org/2000/svg" width="32" height="32" fill="none" viewBox="0 0 32 32"><title>House with heat waves</title><path stroke="currentColor" stroke-linecap="round" stroke-linejoin="round" stroke-width="1.5" d="M1.367 10.644 14.915 1.66a1.963 1.963 0 0 1 2.17 0l13.547 8.984M11.667 24.503a4.983 4.983 0 0 0 1.097-2.851c0-1.78-1.097-3.561-1.097-5.344a4.966 4.966 0 0 1 1.063-2.807M18.667 24.503a4.983 4.983 0 0 0 1.097-2.851c0-1.78-1.097-3.561-1.097-5.344a4.967 4.967 0 0 1 1.059-2.8"></path><path fill="currentColor" d="M4.667 30.667h-.75c0 .414.336.75.75.75v-.75Zm22.667 0v.75a.75.75 0 0 0 .75-.75h-.75Zm.75-22a.75.75 0 0 0-1.5 0h1.5Zm-24.167 0v22h1.5v-22h-1.5Zm.75 22.75h22.667v-1.5H4.667v1.5Zm23.417-.75v-22h-1.5v22h1.5Z"></path></svg>