<svg xmlns="http://www.w3.org/2000/svg" width="32" height="32" fill="none" viewBox="0 0 32 32"><title>Magnifying glass with a heart</title><path stroke="currentColor" stroke-linecap="round" stroke-linejoin="round" stroke-width="1.5" d="M27.933 14.603c0 7.329-5.955 13.27-13.3 13.27-7.345 0-13.3-5.941-13.3-13.27s5.955-13.27 13.3-13.27c7.345 0 13.3 5.941 13.3 13.27Z"></path><path stroke="currentColor" stroke-linecap="round" stroke-linejoin="round" stroke-width="1.5" d="M20.489 11.534a2.815 2.815 0 0 0-2.038-.867 2.83 2.83 0 0 0-2.038.867l-1.746 1.795-1.747-1.795a2.814 2.814 0 0 0-2.038-.867 2.83 2.83 0 0 0-2.038.867 3.023 3.023 0 0 0 0 4.19l5.202 5.345a.857.857 0 0 0 .958.196.857.857 0 0 0 .283-.196l5.202-5.346a3.023 3.023 0 0 0 0-4.189ZM23.246 24.715l6.088 5.952"></path></svg>