<svg xmlns="http://www.w3.org/2000/svg" width="24" height="24" fill="none" viewBox="0 0 24 24"><title>Magnifying glass with a heart</title><path stroke="currentColor" stroke-linecap="round" stroke-linejoin="round" stroke-width="1.5" d="M20.95 10.952c0 5.497-4.466 9.953-9.975 9.953C5.466 20.905 1 16.449 1 10.952 1 5.456 5.466 1 10.975 1c5.509 0 9.975 4.456 9.975 9.952Z"></path><path stroke="currentColor" stroke-linecap="round" stroke-linejoin="round" stroke-width="1.5" d="M15.367 8.65A2.112 2.112 0 0 0 13.838 8a2.122 2.122 0 0 0-1.528.65L11 9.998 9.69 8.65A2.111 2.111 0 0 0 8.162 8a2.122 2.122 0 0 0-1.529.65 2.267 2.267 0 0 0 0 3.142l3.901 4.01a.645.645 0 0 0 .932 0l3.9-4.01a2.267 2.267 0 0 0 0-3.141ZM17.435 18.537 22 23"></path></svg>