<svg xmlns="http://www.w3.org/2000/svg" width="32" height="32" fill="none" viewBox="0 0 32 32"><title>Airplane seat</title><path stroke="currentColor" stroke-linecap="round" stroke-linejoin="round" stroke-width="1.5" d="M30 27v2.333c0 .737-.597 1.334-1.333 1.334H10.129a2.667 2.667 0 0 1-2.6-2.076L1.703 2.962a1.333 1.333 0 0 1 1.3-1.629H7.61c.619 0 1.156.426 1.298 1.028L14 24h13a3 3 0 0 1 3 3ZM18 19.167h-8"></path><path stroke="currentColor" stroke-linecap="round" stroke-linejoin="round" stroke-width="1.5" d="M9.29 4h3.044a1 1 0 0 1 1 1v3l-2.667 2"></path></svg>