<svg xmlns="http://www.w3.org/2000/svg" width="42" height="28" fill="none" viewBox="0 0 42 28"><title>Shirt</title><path stroke="currentColor" stroke-linecap="round" stroke-linejoin="round" stroke-width="2" d="M14.5 9.938v15.437a.812.812 0 0 0 .813.813h11.374a.812.812 0 0 0 .813-.813V9.937"></path><path stroke="currentColor" stroke-linecap="round" stroke-linejoin="round" stroke-width="2" d="M27.5 14.813h4.063a.812.812 0 0 0 .812-.813V8.312a6.5 6.5 0 0 0-6.5-6.5H24.25a3.25 3.25 0 1 1-6.5 0h-1.625a6.5 6.5 0 0 0-6.5 6.5V14a.812.812 0 0 0 .813.813H14.5m6.5-9.75v3.25m3.25 3.25h-1.625"></path></svg>