<svg xmlns="http://www.w3.org/2000/svg" width="32" height="32" fill="none" viewBox="0 0 32 32"><title>A pair of shoes</title><path stroke="currentColor" stroke-linecap="round" stroke-linejoin="round" stroke-width="2" d="M14 17a5.002 5.002 0 0 1-9.855 1.2A1.58 1.58 0 0 0 2.612 17 1.612 1.612 0 0 0 1 18.612V29a2 2 0 0 0 2 2h26a2 2 0 0 0 2-2v-1.712a4 4 0 0 0-1.973-3.448L14 17ZM1 27h30m-14-5 2.497-2.497M21 24l2.62-2.621M18 15a5.001 5.001 0 0 1 9.854-1.2 1.58 1.58 0 0 0 1.534 1.2 1.612 1.612 0 0 0 1.611-1.612V3a2 2 0 0 0-2-2H3a2 2 0 0 0-2 2v1.712A4 4 0 0 0 2.973 8.16L17.999 15ZM31 5H1m14 5-2.498 2.497M11 8l-2.622 2.621"></path></svg>