<svg xmlns="http://www.w3.org/2000/svg" width="24" height="24" fill="none" viewBox="0 0 24 24"><title>A pair of shoes</title><path stroke="currentColor" stroke-linecap="round" stroke-linejoin="round" stroke-width="1.5" d="M10.5 12.75a3.75 3.75 0 0 1-7.391.9 1.185 1.185 0 0 0-1.15-.9A1.21 1.21 0 0 0 .75 13.959v7.791a1.5 1.5 0 0 0 1.5 1.5h19.5a1.5 1.5 0 0 0 1.5-1.5v-1.284a3 3 0 0 0-1.479-2.586L10.5 12.75Zm-9.75 7.5h22.5m-10.5-3.75 1.873-1.873M15.75 18l1.966-1.966M13.5 11.25a3.75 3.75 0 0 1 7.391-.9 1.185 1.185 0 0 0 1.15.9 1.21 1.21 0 0 0 1.209-1.209V2.25a1.5 1.5 0 0 0-1.5-1.5H2.25a1.5 1.5 0 0 0-1.5 1.5v1.284A3 3 0 0 0 2.229 6.12L13.5 11.25Zm9.75-7.5H.75m10.5 3.75L9.377 9.373M8.25 6 6.284 7.966"></path></svg>