<svg xmlns="http://www.w3.org/2000/svg" width="16" height="16" fill="none" viewBox="0 0 16 16"><title>A pair of shoes</title><path stroke="currentColor" stroke-linecap="round" stroke-linejoin="round" d="M7 8.5a2.5 2.5 0 0 1-4.927.6.79.79 0 0 0-.767-.6.806.806 0 0 0-.806.806V14.5a1 1 0 0 0 1 1h13a1 1 0 0 0 1-1v-.856a2 2 0 0 0-.986-1.724L7 8.5Zm-6.5 5h15m-7-2.5 1.249-1.25M10.5 12l1.31-1.31M9 7.5a2.5 2.5 0 0 1 4.927-.6.79.79 0 0 0 .767.6.806.806 0 0 0 .806-.806V1.5a1 1 0 0 0-1-1h-13a1 1 0 0 0-1 1v.856a2 2 0 0 0 .986 1.724L9 7.5Zm6.5-5H.5m7 2.5L6.25 6.249M5.5 4 4.19 5.31"></path></svg>