<svg xmlns="http://www.w3.org/2000/svg" width="24" height="24" fill="none" viewBox="0 0 24 24"><title>Two skyscrapers with a cloud above</title><path stroke="currentColor" stroke-linecap="round" stroke-linejoin="round" stroke-width="1.5" d="M17 7h2M17 11h2M17 15h2M2 13h8M5 19h2M5 16h2M17 19h2M18 4V2M22 22V4.5a.5.5 0 0 0-.5-.5h-7a.5.5 0 0 0-.5.5V22M10 22V10.5a.5.5 0 0 0-.5-.5h-7a.5.5 0 0 0-.5.5V22M2 22h20M7 3a2 2 0 0 0-1.956 1.57 1.295 1.295 0 0 0-.71-.237 1.333 1.333 0 0 0 0 2.667H7a2 2 0 1 0 0-4Z"></path></svg>