<svg xmlns="http://www.w3.org/2000/svg" width="32" height="32" fill="none" viewBox="0 0 32 32"><title>Two skyscrapers with a cloud above</title><path stroke="currentColor" stroke-linecap="round" stroke-linejoin="round" stroke-width="1.5" d="M22.5 10h4M22.5 15h4.084M22.5 20h4.084M5.5 20h4M5.5 25h4M22.5 25h4.084M2 16h11M24.5 4.5V2M30 30V5.646A.646.646 0 0 0 29.354 5h-9.708a.646.646 0 0 0-.646.646V30M13 30V12.646a.646.646 0 0 0-.646-.646H2.646a.646.646 0 0 0-.646.646V30M2 30h28M9 2a2.999 2.999 0 0 0-2.933 2.356A1.943 1.943 0 0 0 5 4a2 2 0 0 0 0 4h4a3 3 0 1 0 0-6Z"></path></svg>