<svg xmlns="http://www.w3.org/2000/svg" width="24" height="24" fill="none" viewBox="0 0 24 24"><title>Neutral face</title><path stroke="currentColor" stroke-linecap="round" stroke-linejoin="round" stroke-width="1.5" d="M12 23.25c6.213 0 11.25-5.037 11.25-11.25S18.213.75 12 .75.75 5.787.75 12 5.787 23.25 12 23.25ZM7.5 15.75h9"></path><path stroke="currentColor" stroke-linecap="round" stroke-linejoin="round" stroke-width="1.5" d="M18.75 9a2.25 2.25 0 0 1-4.243 0M9.493 9A2.25 2.25 0 0 1 5.25 9"></path><path stroke="currentColor" stroke-linecap="round" stroke-linejoin="round" stroke-width="1.5" d="M14.518 9.03a2.25 2.25 0 0 0 4.221 0M5.267 9.046a2.25 2.25 0 0 0 4.21 0"></path></svg>