<svg xmlns="http://www.w3.org/2000/svg" width="32" height="32" fill="none" viewBox="0 0 32 32"><title>Happy face</title><path stroke="currentColor" stroke-linecap="round" stroke-linejoin="round" stroke-width="1.5" d="M16 31c8.284 0 15-6.716 15-15 0-8.284-6.716-15-15-15C7.716 1 1 7.716 1 16c0 8.284 6.716 15 15 15Z"></path><path stroke="currentColor" stroke-linecap="round" stroke-linejoin="round" stroke-width="1.5" d="M15.997 25.006a9.003 9.003 0 0 0 8.053-4.979L7.93 20a9.003 9.003 0 0 0 8.067 5.006ZM25 14a3 3 0 0 0-5.65-.022M7 14a3 3 0 0 1 5.65-.022"></path></svg>