<svg xmlns="http://www.w3.org/2000/svg" width="25" height="24" fill="none" viewBox="0 0 25 24"><title>Water lily</title><path stroke="currentColor" stroke-linecap="round" stroke-linejoin="round" stroke-width="1.5" d="M12.021 12.631c-4.552.482-8.706-3.092-8.568-7.787a.749.749 0 0 1 .749-.744 8.484 8.484 0 0 1 4.75 1.392M14.942 5.581a8.555 8.555 0 0 1 4.86-1.481.748.748 0 0 1 .747.744 7.907 7.907 0 0 1-2.164 5.663 8.1 8.1 0 0 1-6.24 2.133M19.501 14.656c-.033 2.057-3.378 3.719-7.5 3.719-4.12 0-7.465-1.658-7.499-3.719"></path><path stroke="currentColor" stroke-linecap="round" stroke-linejoin="round" stroke-width="1.5" d="M1.686 11.625c-.6.886-.926 1.93-.936 3 0 4.142 5.037 7.497 11.25 7.497s11.25-3.358 11.25-7.5a5.437 5.437 0 0 0-.922-2.977"></path><path stroke="currentColor" stroke-linecap="round" stroke-linejoin="round" stroke-width="1.5" d="M12.021 12.631a8.157 8.157 0 0 1-3-6 7.985 7.985 0 0 1 2.486-5.546.735.735 0 0 1 1.03 0 7.989 7.989 0 0 1 2.484 5.546 8.157 8.157 0 0 1-3 6Z"></path></svg>