<svg xmlns="http://www.w3.org/2000/svg" width="32" height="32" fill="none" viewBox="0 0 32 32"><title>Water lily</title><path stroke="currentColor" stroke-linecap="round" stroke-linejoin="round" stroke-width="1.5" d="M16.029 17.013C9.931 17.658 4.366 12.871 4.55 6.582a1.003 1.003 0 0 1 1.004-.997c2.28-.025 4.514.636 6.412 1.896M19.94 7.57a11.46 11.46 0 0 1 6.51-1.985 1.002 1.002 0 0 1 1.002.997 10.59 10.59 0 0 1-2.9 7.586 10.85 10.85 0 0 1-8.358 2.858M26.049 19.726c-.045 2.755-4.526 4.982-10.046 4.982-5.521 0-10.002-2.222-10.047-4.982"></path><path stroke="currentColor" stroke-linecap="round" stroke-linejoin="round" stroke-width="1.5" d="M2.184 15.665a7.286 7.286 0 0 0-1.254 4.02c0 5.548 6.747 10.042 15.07 10.042s15.07-4.498 15.07-10.047a7.283 7.283 0 0 0-1.236-3.987"></path><path stroke="currentColor" stroke-linecap="round" stroke-linejoin="round" stroke-width="1.5" d="M16.03 17.013a10.927 10.927 0 0 1-4.018-8.037 10.697 10.697 0 0 1 3.33-7.43.984.984 0 0 1 1.378 0 10.702 10.702 0 0 1 3.33 7.43c-.115 3.11-1.6 6.08-4.02 8.037Z"></path></svg>