<svg xmlns="http://www.w3.org/2000/svg" width="24" height="24" fill="none" viewBox="0 0 24 24"><title>Speedometer</title><path stroke="currentColor" stroke-linecap="round" stroke-linejoin="round" stroke-width="1.5" d="M12 23c6.075 0 11-4.925 11-11S18.075 1 12 1 1 5.925 1 12s4.925 11 11 11ZM12 4v1.5M6 6l1.06 1.06M3.5 12H5M10.5 18h3M19 12h1.5M6 18.06 7.06 17M18 18.06 16.94 17"></path><path stroke="currentColor" stroke-linecap="round" stroke-linejoin="round" stroke-width="1.5" d="M13.841 14.364a2.25 2.25 0 1 1-3.182-3.182C11.538 10.303 17.023 8 17.023 8s-2.304 5.485-3.182 6.364Z"></path></svg>