<svg xmlns="http://www.w3.org/2000/svg" width="32" height="32" fill="none" viewBox="0 0 32 32"><title>Speedometer</title><path stroke="currentColor" stroke-linecap="round" stroke-linejoin="round" stroke-width="1.5" d="M16 30.667c8.1 0 14.667-6.567 14.667-14.667S24.1 1.333 16 1.333 1.334 7.9 1.334 16 7.9 30.667 16 30.667ZM16 5.333v2M8 8l1.414 1.414M4.667 16h2M14 24h4M25.334 16h2M8 24.08l1.414-1.413M24 24.08l-1.414-1.413"></path><path stroke="currentColor" stroke-linecap="round" stroke-linejoin="round" stroke-width="1.5" d="M18.455 19.152a3 3 0 1 1-4.243-4.243c1.172-1.172 8.486-4.242 8.486-4.242s-3.073 7.313-4.243 8.485Z"></path></svg>