<svg xmlns="http://www.w3.org/2000/svg" width="32" height="32" fill="none" viewBox="0 0 32 32"><title>Star with highlighted checkmark</title><path stroke="currentColor" stroke-linecap="round" stroke-linejoin="round" stroke-width="1.5" d="m30.309 13.483.37-.367a1.074 1.074 0 0 0-.666-1.832l-8.587-.85L16.972 1.6a1.093 1.093 0 0 0-1.944 0l-4.462 8.833-8.586.851a1.074 1.074 0 0 0-.667 1.832L8.38 20.12l-2.608 9.517a1.084 1.084 0 0 0 1.534 1.247l4.913-2.433"></path><path stroke="currentColor" stroke-linecap="round" stroke-linejoin="round" stroke-width="1.5" d="M23 31a8 8 0 1 0 0-16 8 8 0 0 0 0 16Z"></path><path stroke="currentColor" stroke-linecap="round" stroke-linejoin="round" stroke-width="1.5" d="m19.184 23.947 2 2a1.003 1.003 0 0 0 1.508-.108l3.85-5.135"></path></svg>