<svg xmlns="http://www.w3.org/2000/svg" width="25" height="24" fill="none" viewBox="0 0 25 24"><title>Star with highlighted checkmark</title><path stroke="currentColor" stroke-linecap="round" stroke-linejoin="round" stroke-width="1.5" d="m22.735 10.112.278-.275a.805.805 0 0 0-.5-1.374l-6.44-.638-3.34-6.625a.819.819 0 0 0-1.459 0L7.928 7.825l-6.44.638a.805.805 0 0 0-.5 1.374l5.3 5.253-1.956 7.138a.813.813 0 0 0 1.151.935l3.653-1.81"></path><path stroke="currentColor" stroke-linecap="round" stroke-linejoin="round" stroke-width="1.5" d="M17.253 23.25a6 6 0 1 0 0-12 6 6 0 0 0 0 12Z"></path><path stroke="currentColor" stroke-linecap="round" stroke-linejoin="round" stroke-width="1.5" d="m14.39 17.96 1.5 1.5a.752.752 0 0 0 1.132-.081l2.842-3.79"></path></svg>