<svg xmlns="http://www.w3.org/2000/svg" width="32" height="32" fill="none" viewBox="0 0 32 32"><title>Storefront building</title><path stroke="currentColor" stroke-linecap="round" stroke-linejoin="round" stroke-width="1.5" d="M27.384 3H4.616a.932.932 0 0 0-.912.734L2 10.188c0 .745.295 1.46.82 1.988a2.794 2.794 0 0 0 3.96 0c.525-.527.82-1.243.82-1.989 0 .746.295 1.462.82 1.99a2.794 2.794 0 0 0 3.96 0c.525-.528.82-1.244.82-1.99 0 .746.295 1.462.82 1.99a2.794 2.794 0 0 0 3.96 0c.525-.528.82-1.244.82-1.99 0 .746.295 1.462.82 1.99a2.794 2.794 0 0 0 3.96 0c.525-.528.82-1.244.82-1.99 0 .746.295 1.462.82 1.99a2.794 2.794 0 0 0 3.96 0c.525-.528.82-1.244.82-1.99l-1.705-6.453a.936.936 0 0 0-.91-.734ZM3 17.258V27.3A2.7 2.7 0 0 0 5.7 30h20.6a2.7 2.7 0 0 0 2.7-2.7V17.258"></path><path stroke="currentColor" stroke-width="1.5" d="M8 19.667c0-.369.298-.667.667-.667h3.666c.368 0 .667.299.667.667v3.666a.667.667 0 0 1-.667.667H8.667A.667.667 0 0 1 8 23.333v-3.666ZM24 30v-8.333a.667.667 0 0 0-.667-.667h-3.666a.667.667 0 0 0-.667.667V30"></path></svg>