<svg xmlns="http://www.w3.org/2000/svg" width="24" height="24" fill="none" viewBox="0 0 24 24"><title>Storefront building</title><path stroke="currentColor" stroke-linecap="round" stroke-linejoin="round" stroke-width="1.5" d="M20.945 2H3.055a.724.724 0 0 0-.459.165.754.754 0 0 0-.257.422L1 7.75c0 .597.232 1.169.644 1.591.413.422.973.659 1.556.659.583 0 1.143-.237 1.556-.659.412-.422.644-.994.644-1.591 0 .597.232 1.169.644 1.591.413.422.973.659 1.556.659.583 0 1.143-.237 1.556-.659.412-.422.644-.994.644-1.591 0 .597.232 1.169.644 1.591.413.422.972.659 1.556.659.584 0 1.143-.237 1.556-.659.412-.422.644-.994.644-1.591 0 .597.232 1.169.644 1.591.413.422.973.659 1.556.659.584 0 1.143-.237 1.556-.659.412-.422.644-.994.644-1.591 0 .597.232 1.169.644 1.591.413.422.973.659 1.556.659.584 0 1.143-.237 1.556-.659.412-.422.644-.994.644-1.591l-1.34-5.163a.751.751 0 0 0-.256-.422.722.722 0 0 0-.46-.165ZM2 13v7a2 2 0 0 0 2 2h16a2 2 0 0 0 2-2v-7"></path><rect width="4" height="4" x="6" y="14" stroke="currentColor" stroke-width="1.5" rx=".5"></rect><path stroke="currentColor" stroke-width="1.5" d="M18 22v-6.5a.5.5 0 0 0-.5-.5h-3a.5.5 0 0 0-.5.5V22"></path></svg>