<svg xmlns="http://www.w3.org/2000/svg" width="42" height="28" fill="none" viewBox="0 0 42 28"><title>Storefront building</title><path stroke="currentColor" stroke-linecap="round" stroke-linejoin="round" stroke-width="2" d="M31.969 14.844v10.125a1.688 1.688 0 0 1-1.688 1.687H11.72a1.687 1.687 0 0 1-1.688-1.687V14.844m21.259-13.5H10.71a.845.845 0 0 0-.825.66l-1.54 6.934a2.531 2.531 0 1 0 5.062 0 2.531 2.531 0 0 0 5.063 0 2.531 2.531 0 1 0 5.062 0 2.532 2.532 0 0 0 5.063 0 2.531 2.531 0 1 0 5.062 0l-1.541-6.934a.843.843 0 0 0-.824-.66Z"></path><path stroke="currentColor" stroke-linecap="round" stroke-linejoin="round" stroke-width="2" d="M28.594 19.063a3.375 3.375 0 0 0-6.75 0v7.593h6.75v-7.593Zm-10.969-.844H14.25a.844.844 0 0 0-.844.843v3.375c0 .466.378.844.844.844h3.375a.844.844 0 0 0 .844-.843v-3.375a.844.844 0 0 0-.844-.844Z"></path><path stroke="currentColor" stroke-linecap="round" stroke-linejoin="round" stroke-width="2" d="M25.719 20.75a.5.5 0 1 1 0 .999.5.5 0 0 1 0-.999Z"></path></svg>