<svg xmlns="http://www.w3.org/2000/svg" width="32" height="32" fill="none" viewBox="0 0 32 32"><title>Stove</title><path stroke="currentColor" stroke-linecap="round" stroke-linejoin="round" stroke-width="1.5" d="M9.334 13.333a4 4 0 1 0 0-8 4 4 0 0 0 0 8ZM9.334 26.667a4 4 0 1 0 0-8 4 4 0 0 0 0 8ZM22.666 13.333a4 4 0 1 0 0-8 4 4 0 0 0 0 8Z"></path><rect width="29.333" height="29.333" x="1.333" y="1.333" stroke="currentColor" stroke-linecap="round" stroke-linejoin="round" stroke-width="1.5" rx="1.5"></rect><path stroke="currentColor" stroke-linecap="round" stroke-linejoin="round" stroke-width="1.5" d="M18.666 26.667v-1.334M22.666 26.667v-1.334M26.666 26.667v-1.334"></path></svg>