<svg xmlns="http://www.w3.org/2000/svg" width="24" height="24" fill="none" viewBox="0 0 24 24"><title>Stove</title><path stroke="currentColor" stroke-linecap="round" stroke-linejoin="round" stroke-width="1.5" d="M7 10a3 3 0 1 0 0-6 3 3 0 0 0 0 6ZM7 20a3 3 0 1 0 0-6 3 3 0 0 0 0 6ZM17 10a3 3 0 1 0 0-6 3 3 0 0 0 0 6Z"></path><rect width="22" height="22" x="1" y="1" stroke="currentColor" stroke-linecap="round" stroke-linejoin="round" stroke-width="1.5" rx="1.5"></rect><path stroke="currentColor" stroke-linecap="round" stroke-linejoin="round" stroke-width="1.5" d="M14 20v-1M17 20v-1M20 20v-1"></path></svg>