<svg xmlns="http://www.w3.org/2000/svg" width="32" height="32" fill="none" viewBox="0 0 32 32"><title>Customer support headset</title><path stroke="currentColor" stroke-linecap="round" stroke-linejoin="round" stroke-width="1.5" d="M8.964 7.303a7 7 0 1 1 10.995 6.421"></path><path stroke="currentColor" stroke-linecap="round" stroke-linejoin="round" stroke-width="1.5" d="M9.919 4.467A11.612 11.612 0 0 0 18.267 8c1.556.002 3.097-.31 4.53-.916M14.43 13a2 2 0 1 0 0 4 2 2 0 0 0 0-4Z"></path><path stroke="currentColor" stroke-linecap="round" stroke-linejoin="round" stroke-width="1.5" d="M6.43 9.563V11a4 4 0 0 0 4 4h1.955M28.933 31a12.988 12.988 0 0 0-6.979-11.515M2.934 31a12.988 12.988 0 0 1 6.96-11.506"></path></svg>