<svg xmlns="http://www.w3.org/2000/svg" width="42" height="30" fill="none" viewBox="0 0 42 30"><title>Sweater</title><g stroke="currentColor" stroke-linecap="round" stroke-linejoin="round" stroke-width="2"><path d="m6.938 24.375 3.75-16.148a5.625 5.625 0 0 1 5.51-4.477h9.603a5.625 5.625 0 0 1 5.5 4.477l3.75 16.148"></path><path d="M7 24.375h3.688l3.75-12.188v12.188a1.875 1.875 0 0 0 1.874 1.875h9.375a1.875 1.875 0 0 0 1.875-1.875V12.187l3.75 12.188H35M14.438 22.5h13.124M16.199 3.75S16.312 8.438 21 8.438s4.801-4.688 4.801-4.688"></path></g></svg>