<svg xmlns="http://www.w3.org/2000/svg" width="24" height="24" fill="none" viewBox="0 0 24 24"><title>Swimming person</title><path stroke="currentColor" stroke-linecap="round" stroke-linejoin="round" stroke-width="1.5" d="M19.5 11.195a2.625 2.625 0 1 0 0-5.25 2.625 2.625 0 0 0 0 5.25ZM7.379 14l3.83-2.4L8.4 8.394a3 3 0 0 1 .917-4.659L13.579 1.6a1.5 1.5 0 1 1 1.342 2.683l-3.4 1.7a.75.75 0 0 0-.221 1.166l5.35 6.114M23.25 17c-1.5 0-2.25 1.5-3.75 1.5S17.25 17 15.75 17 13.5 18.5 12 18.5 9.75 17 8.25 17 6 18.5 4.5 18.5c-1.49 0-2.24-1.482-3.723-1.5M.75 21c1.5 0 2.25 1.5 3.75 1.5S6.75 21 8.25 21s2.25 1.5 3.75 1.5 2.25-1.5 3.75-1.5 2.25 1.5 3.75 1.5c1.492 0 2.242-1.484 3.727-1.5"></path></svg>