<svg xmlns="http://www.w3.org/2000/svg" width="32" height="32" fill="none" viewBox="0 0 32 32"><title>Swimming person</title><path stroke="currentColor" stroke-linecap="round" stroke-linejoin="round" stroke-width="1.5" d="M26 14.927a3.5 3.5 0 1 0 0-7 3.5 3.5 0 0 0 0 7ZM9.839 18.667l5.108-3.2-3.747-4.275a4 4 0 0 1 1.222-6.212l5.683-2.847a2 2 0 1 1 1.79 3.578L15.36 7.977a1.001 1.001 0 0 0-.294 1.555l7.106 8.121M31 22.667c-2 0-3 2-5 2s-3-2-5-2-3 2-5 2-3-2-5-2-3 2-5 2c-1.988 0-2.988-1.977-4.965-2M1 28c2 0 3 2 5 2s3-2 5-2 3 2 5 2 3-2 5-2 3 2 5 2c1.99 0 2.99-1.98 4.969-2"></path></svg>