<svg xmlns="http://www.w3.org/2000/svg" width="32" height="32" fill="none" viewBox="0 0 32 32"><title>Tag</title><path stroke="currentColor" stroke-linecap="round" stroke-linejoin="round" stroke-width="1.5" d="M3.906 1A2.906 2.906 0 0 0 1 3.906v8.082c0 1.285.51 2.516 1.419 3.424l15.02 15.02a1.938 1.938 0 0 0 3.27-.99l1.455-7.278 7.279-1.455a1.938 1.938 0 0 0 .99-3.27l-15.02-15.02A4.843 4.843 0 0 0 11.987 1H3.906Z" clip-rule="evenodd"></path><path stroke="currentColor" stroke-linecap="round" stroke-linejoin="round" stroke-width="1.5" d="M6 8.5a2.5 2.5 0 1 1 5 0 2.5 2.5 0 0 1-5 0Z" clip-rule="evenodd"></path></svg>