<svg xmlns="http://www.w3.org/2000/svg" width="24" height="24" fill="none" viewBox="0 0 24 24"><title>Tag</title><path stroke="currentColor" stroke-linecap="round" stroke-linejoin="round" stroke-width="1.5" d="M3.13.998A2.131 2.131 0 0 0 1 3.13v5.928c0 .942.375 1.845 1.04 2.511l11.017 11.016a1.422 1.422 0 0 0 2.398-.726l1.068-5.338 5.338-1.067a1.421 1.421 0 0 0 .726-2.399L11.57 2.04A3.553 3.553 0 0 0 9.057 1H3.13Z" clip-rule="evenodd"></path><path stroke="currentColor" stroke-linecap="round" stroke-linejoin="round" stroke-width="1.5" d="M4.745 6.66a1.915 1.915 0 1 1 3.83 0 1.915 1.915 0 0 1-3.83 0Z" clip-rule="evenodd"></path></svg>