<svg xmlns="http://www.w3.org/2000/svg" width="32" height="33" fill="none" viewBox="0 0 32 33"><title>List with checkmark</title><path stroke="currentColor" stroke-linecap="round" stroke-linejoin="round" stroke-width="2" d="m28.495 23.187-6.656 6.657a4 4 0 0 1-2.83 1.17H6.334a4 4 0 0 1-4-4v-22a4 4 0 0 1 4-4h19.333a4 4 0 0 1 4 4V20.36a4 4 0 0 1-1.172 2.828Z"></path><path stroke="currentColor" stroke-linecap="round" stroke-linejoin="round" stroke-width="2" d="M20 30.667v-5.334a4 4 0 0 1 4-4h5.258M8 25.334h5.333M8 18.667h10.667M8 1.335v10.333l4-3 4 2.999V1.333"></path></svg>