<svg xmlns="http://www.w3.org/2000/svg" width="24" height="25" fill="none" viewBox="0 0 24 25"><title>List with checkmark</title><path stroke="currentColor" stroke-linecap="round" stroke-linejoin="round" stroke-width="1.5" d="m21.371 17.39-4.992 4.993a3.001 3.001 0 0 1-2.122.878H4.75a3 3 0 0 1-3-3v-16.5a3 3 0 0 1 3-3h14.5a3 3 0 0 1 3 3v11.508a3 3 0 0 1-.879 2.121Z"></path><path stroke="currentColor" stroke-linecap="round" stroke-linejoin="round" stroke-width="1.5" d="M15 23v-4a3 3 0 0 1 3-3h3.86M6 19h4m-4-5h8M6 1.001v7.75l3-2.25 3 2.249V1"></path></svg>