<svg xmlns="http://www.w3.org/2000/svg" width="32" height="32" fill="none" viewBox="0 0 32 32"><title>Costume mask with a smiley face</title><path stroke="currentColor" stroke-linecap="round" stroke-linejoin="round" stroke-width="1.5" d="M11.54 7.695A2 2 0 0 0 9.006 9.62v9.548a9.375 9.375 0 0 0 2.415 6.371 20.374 20.374 0 0 0 7.896 5.333 2 2 0 0 0 1.377 0 20.357 20.357 0 0 0 7.898-5.333 9.375 9.375 0 0 0 2.414-6.37V9.62a2 2 0 0 0-2.54-1.926 30.841 30.841 0 0 1-16.926 0v0Z"></path><path stroke="currentColor" stroke-linecap="round" stroke-linejoin="round" stroke-width="1.5" d="M4.14 19.67a22.145 22.145 0 0 1-.725-.75A9.375 9.375 0 0 1 1 12.55V3a2 2 0 0 1 2.547-1.927 30.816 30.816 0 0 0 16.92 0A2 2 0 0 1 23 3v2.324M16 21.06a4 4 0 0 0 8 0M13 14.968a2 2 0 0 1 4 0M23 14.962a2 2 0 0 1 4 0"></path></svg>