<svg xmlns="http://www.w3.org/2000/svg" width="25" height="25" fill="none" viewBox="0 0 25 25"><title>Costume mask with a smiley face</title><path stroke="currentColor" stroke-linecap="round" stroke-linejoin="round" stroke-width="1.5" d="M9.014 6.012a1.562 1.562 0 0 0-1.979 1.505v7.458a7.322 7.322 0 0 0 1.886 4.976 15.915 15.915 0 0 0 6.167 4.165c.348.128.729.128 1.076 0a15.9 15.9 0 0 0 6.168-4.165 7.323 7.323 0 0 0 1.886-4.976V7.517a1.563 1.563 0 0 0-1.984-1.505 24.089 24.089 0 0 1-13.22 0v0Z"></path><path stroke="currentColor" stroke-linecap="round" stroke-linejoin="round" stroke-width="1.5" d="M3.234 15.366a17.378 17.378 0 0 1-.567-.586A7.323 7.323 0 0 1 .781 9.804V2.345A1.562 1.562 0 0 1 2.771.841a24.07 24.07 0 0 0 13.215 0 1.562 1.562 0 0 1 1.979 1.504v1.823M12.498 16.462a3.124 3.124 0 0 0 6.247 0M10.154 11.694a1.562 1.562 0 0 1 3.124 0M17.964 11.679a1.562 1.562 0 0 1 3.124 0"></path></svg>