<svg xmlns="http://www.w3.org/2000/svg" width="42" height="28" fill="none" viewBox="0 0 42 28"><title>Tools</title><path stroke="currentColor" stroke-linecap="round" stroke-linejoin="round" stroke-width="2" d="m17 12.29-1.136-1.13a4.921 4.921 0 0 1-6.572-6.553l1.544 1.54A1.64 1.64 0 1 0 13.16 3.83l-1.543-1.539a4.92 4.92 0 0 1 6.567 6.551l1.051 1.048m5.361 5.34 1.54 1.537a4.92 4.92 0 0 1 6.572 6.55l-1.544-1.539a1.64 1.64 0 0 0-2.323 2.317l1.543 1.538a4.921 4.921 0 0 1-6.567-6.55l-1.54-1.536M9.566 25.483a2.419 2.419 0 0 1 0-3.43l5.086-5.077a.812.812 0 0 1 1.147 0l2.294 2.287a.808.808 0 0 1 0 1.144l-5.087 5.076a2.439 2.439 0 0 1-3.44 0ZM25.968 2.287l6.74 6.717a1.613 1.613 0 0 1 0 2.287l-2.294 2.289a1.625 1.625 0 0 1-2.294 0l-6.74-6.717a1.614 1.614 0 0 1 0-2.287l2.294-2.287a1.625 1.625 0 0 1 2.294-.002Zm-1.147 8.005-7.983 7.72"></path></svg>