<svg xmlns="http://www.w3.org/2000/svg" width="24" height="25" fill="none" viewBox="0 0 24 25"><title>Headphones</title><path stroke="currentColor" stroke-linecap="round" stroke-linejoin="round" stroke-width="1.5" d="M3.934 23.133C3.46 22.235.767 16.92.75 12.04a11.25 11.25 0 1 1 22.5-.081c.018 4.995-2.767 10.472-3.134 11.172"></path><path stroke="currentColor" stroke-linecap="round" stroke-linejoin="round" stroke-width="1.5" d="m6.086 14.308-1.612.68a1 1 0 0 0-.533 1.31l2.43 5.76a1 1 0 0 0 1.31.532l1.612-.68a1 1 0 0 0 .533-1.31l-2.43-5.759a1 1 0 0 0-1.31-.533ZM14.707 21.91l1.612.681a1 1 0 0 0 1.31-.532l2.43-5.759a1 1 0 0 0-.533-1.31l-1.612-.68a1 1 0 0 0-1.31.532l-2.43 5.759a1 1 0 0 0 .533 1.31Z"></path></svg>