<svg xmlns="http://www.w3.org/2000/svg" width="32" height="32" fill="none" viewBox="0 0 32 32"><title>Browser window with a t-shirt and a highlighted mouse pointer</title><path stroke="currentColor" stroke-linecap="round" stroke-linejoin="round" stroke-width="1.5" d="m20 21.333 3.535 9.194 1.798-3.86 3.859-1.798L20 21.333ZM25.334 26.667l4 4"></path><path stroke="currentColor" stroke-linecap="round" stroke-linejoin="round" stroke-width="1.5" d="M22 18h3.5l-1.813-4.738a1.693 1.693 0 0 0-.597-.913A1.648 1.648 0 0 0 22.067 12H18.36c0 .676-.264 1.324-.735 1.802a2.489 2.489 0 0 1-1.773.746 2.489 2.489 0 0 1-1.774-.746A2.569 2.569 0 0 1 13.343 12H9.641c-.37-.002-.73.12-1.023.35-.293.228-.503.549-.597.912L6.5 18H10v7.333h6.14"></path><path stroke="currentColor" stroke-linecap="round" stroke-linejoin="round" stroke-width="1.5" d="M18.6 29H4.857A1.861 1.861 0 0 1 3 27.133V4.866A1.862 1.862 0 0 1 4.857 3h22.286A1.862 1.862 0 0 1 29 4.866v14.556M3 8h26"></path></svg>