<svg xmlns="http://www.w3.org/2000/svg" width="32" height="32" fill="none" viewBox="0 0 32 32"><title>Truck in motion</title><path stroke="currentColor" stroke-linecap="round" stroke-linejoin="round" stroke-width="1.5" d="M24 28a2.667 2.667 0 1 1 0-5.333A2.667 2.667 0 0 1 24 28ZM9.333 28a2.667 2.667 0 1 1 0-5.333 2.667 2.667 0 0 1 0 5.333ZM21.334 24H12"></path><path stroke="currentColor" stroke-linecap="round" stroke-width="1.5" d="M20 24V8a4 4 0 0 0-4-4H3.5a1 1 0 0 0-1 1v1.667M12 12H1.333M12 16H5.333M27 16h-7M2.5 21.333V23a1 1 0 0 0 1 1h3.167"></path><path stroke="currentColor" stroke-linecap="round" stroke-linejoin="round" stroke-width="1.5" d="M20 11h3.728c.409 0 .81.112 1.157.323.347.212.628.514.811.874L27 16l3.027 1.135c.585.22.973.78.973 1.404V22.5a1.5 1.5 0 0 1-1.5 1.5h-2.625"></path></svg>