<svg xmlns="http://www.w3.org/2000/svg" width="32" height="32" fill="none" viewBox="0 0 32 32"><title>Headphones</title><path stroke="currentColor" stroke-linecap="round" stroke-linejoin="round" stroke-width="1.5" d="M26.768 30.924S31.025 23.063 31 15.936a14.985 14.985 0 0 0-4.432-10.584 15.005 15.005 0 0 0-21.213.077A14.986 14.986 0 0 0 1 16.044c.025 6.878 4.041 14.405 4.324 14.927"></path><path stroke="currentColor" stroke-linecap="round" stroke-linejoin="round" stroke-width="1.5" d="m8.115 19.058-2.15.908a1.333 1.333 0 0 0-.71 1.746l3.24 7.678a1.333 1.333 0 0 0 1.746.71l2.15-.907a1.333 1.333 0 0 0 .71-1.747l-3.24-7.678a1.333 1.333 0 0 0-1.746-.71ZM19.609 29.195l2.15.907a1.333 1.333 0 0 0 1.746-.71l3.24-7.678a1.333 1.333 0 0 0-.71-1.746l-2.15-.908a1.333 1.333 0 0 0-1.747.71l-3.24 7.678c-.286.679.032 1.46.71 1.747Z"></path></svg>