<svg xmlns="http://www.w3.org/2000/svg" width="32" height="32" fill="none" viewBox="0 0 32 32"><title>Food mixer</title><path stroke="currentColor" stroke-linecap="round" stroke-linejoin="round" stroke-width="1.5" d="M17.667 31V13a2 2 0 0 0-2-2H2V3a2 2 0 0 1 2-2h25a2 2 0 0 1 2 2v26a2 2 0 0 1-2 2H17.667ZM9 11v15.333"></path><path stroke="currentColor" stroke-linecap="round" stroke-linejoin="round" stroke-width="1.5" d="M10.588 15H7.412A2.412 2.412 0 0 0 5 17.412v5.176A2.412 2.412 0 0 0 7.412 25h3.176A2.412 2.412 0 0 0 13 22.588v-5.176A2.412 2.412 0 0 0 10.588 15ZM1.333 31H17.5M24 26a3 3 0 1 0 0-6 3 3 0 0 0 0 6ZM6 5v2M23 5v2M19 5v2M27 5v2"></path></svg>