<svg xmlns="http://www.w3.org/2000/svg" width="32" height="32" fill="none" viewBox="0 0 32 32"><title>Three people</title><path stroke="currentColor" stroke-linecap="round" stroke-linejoin="round" stroke-width="1.5" d="M16 8a2.667 2.667 0 1 0 0-5.333A2.667 2.667 0 0 0 16 8ZM21 18.667V16a5 5 0 1 0-10 0v2.667h2l1 8h4l1-8h2ZM6.667 10.667a2.667 2.667 0 1 0 0-5.334 2.667 2.667 0 0 0 0 5.334ZM5.261 13.057A5.004 5.004 0 0 0 1 18v.667h2l1 6.666h4l.501-3.341M25.333 10.667a2.667 2.667 0 1 0 0-5.334 2.667 2.667 0 0 0 0 5.334ZM26.739 13.057A5.004 5.004 0 0 1 30.999 18v.667h-2l-1 6.666h-4l-.5-3.341M5 30h21.333"></path></svg>