<svg xmlns="http://www.w3.org/2000/svg" width="24" height="24" fill="none" viewBox="0 0 24 24"><title>Truck in motion</title><path stroke="currentColor" stroke-linecap="round" stroke-linejoin="round" stroke-width="1.5" d="M18 21a2 2 0 1 1 0-4 2 2 0 0 1 0 4ZM7 21a2 2 0 1 1 0-4 2 2 0 0 1 0 4ZM16 18H9"></path><path stroke="currentColor" stroke-linecap="round" stroke-width="1.5" d="M15 18V7a4 4 0 0 0-4-4H3a1 1 0 0 0-1 1v1M9 9H1M9 12H4M20 12h-5M2 16v1a1 1 0 0 0 1 1h2"></path><path stroke="currentColor" stroke-linecap="round" stroke-linejoin="round" stroke-width="1.5" d="M15 8h2.711c.297 0 .589.086.842.249.252.162.457.395.59.672L20 12l1.974.658A1.5 1.5 0 0 1 23 14.081V16.5a1.5 1.5 0 0 1-1.5 1.5H20"></path></svg>