<svg xmlns="http://www.w3.org/2000/svg" width="32" height="32" fill="none" viewBox="0 0 32 32"><title>Browser with highlighted shield in the bottom right corner</title><path stroke="currentColor" stroke-linecap="round" stroke-linejoin="round" stroke-width="1.5" d="M27 10.333V3a2 2 0 0 0-2-2H3a2 2 0 0 0-2 2v16a2 2 0 0 0 2 2h7.547M1.333 6h25.334M5.333 12H12M5.333 16h4M26 20l-3.5 4.5-2-2"></path><path stroke="currentColor" stroke-linejoin="round" stroke-width="1.5" d="M31 23.667V16a1 1 0 0 0-1-1H16a1 1 0 0 0-1 1v7.667a6 6 0 0 0 3.692 5.538l3.923 1.635a1 1 0 0 0 .77 0l3.923-1.635A6 6 0 0 0 31 23.667Z"></path></svg>