<svg xmlns="http://www.w3.org/2000/svg" width="24" height="24" fill="none" viewBox="0 0 24 24"><title>Browser with highlighted shield in the bottom right corner</title><path stroke="currentColor" stroke-linecap="round" stroke-linejoin="round" stroke-width="1.5" d="M20 8V2.5c0-.398-.154-.78-.428-1.06A1.443 1.443 0 0 0 18.538 1H2.462c-.388 0-.76.158-1.034.44A1.52 1.52 0 0 0 1 2.5v12c0 .398.154.78.428 1.06.274.282.646.44 1.034.44H7.96M1 5h19M4 9h5M4 12h3M19.5 15 17 18.5 15.5 17"></path><path stroke="currentColor" stroke-linejoin="round" stroke-width="1.5" d="M23 16.5V12a1 1 0 0 0-1-1H12a1 1 0 0 0-1 1v4.5a6 6 0 0 0 3.692 5.538l1.923.802a1 1 0 0 0 .77 0l1.923-.802A6 6 0 0 0 23 16.5Z"></path></svg>