<svg xmlns="http://www.w3.org/2000/svg" width="32" height="32" fill="none" viewBox="0 0 32 32"><title>Floor lamp</title><path stroke="currentColor" stroke-linecap="round" stroke-linejoin="round" stroke-width="1.5" d="M16 1v29.667M8 31h16M6.688 18.636l-5.32-5.32a1.242 1.242 0 0 1 .365-2.012l4.903-2.188a1.243 1.243 0 0 1 1.384.256l2.533 2.533a1.241 1.241 0 0 1 .266 1.36l-2.11 4.976a1.24 1.24 0 0 1-2.021.395v0ZM30.299 9.572l-5.26 5.26a1.23 1.23 0 0 1-2-.384l-2.07-4.823a1.227 1.227 0 0 1 .266-1.354l2.51-2.51a1.232 1.232 0 0 1 1.355-.266l4.815 2.078a1.229 1.229 0 0 1 .384 1.999v0ZM14.666 4h4.172a2 2 0 0 1 1.414.585l2.193 2.395M17.333 8h-4.501a2 2 0 0 0-1.413.585L9.38 10.64"></path></svg>