<svg xmlns="http://www.w3.org/2000/svg" width="16" height="16" fill="none" viewBox="0 0 16 16"><title>Truck in motion</title><path stroke="currentColor" stroke-linecap="round" stroke-linejoin="round" stroke-width="1.5" d="M11.5 14a1.5 1.5 0 1 1 0-3 1.5 1.5 0 0 1 0 3ZM4.5 14a1.5 1.5 0 1 1 0-3 1.5 1.5 0 0 1 0 3ZM10 12H6M3 12H1.5"></path><path stroke="currentColor" stroke-linecap="round" stroke-width="1.5" d="M10 12V4a2 2 0 0 0-2-2H1.5M7 5H1M7 8H4"></path><path stroke="currentColor" stroke-linecap="round" stroke-linejoin="round" stroke-width="1.5" d="M13.125 11.792H14.5a.5.5 0 0 0 .5-.5v-2.3a.5.5 0 0 0-.297-.457L13.5 8l-.886-2.658A.5.5 0 0 0 12.14 5H10"></path></svg>