<svg xmlns="http://www.w3.org/2000/svg" width="24" height="24" fill="none" viewBox="0 0 24 24"><title>Floor lamp</title><path stroke="currentColor" stroke-linecap="round" stroke-linejoin="round" stroke-width="1.5" d="M12 1v22M6 23h12M5.016 13.977l-3.99-3.99A.932.932 0 0 1 1.3 8.478l3.677-1.641a.932.932 0 0 1 1.038.192l1.9 1.9a.93.93 0 0 1 .2 1.02l-1.583 3.732a.93.93 0 0 1-1.516.296v0ZM22.724 7.179l-3.945 3.945a.922.922 0 0 1-1.5-.288l-1.553-3.617a.92.92 0 0 1 .2-1.016l1.882-1.882a.924.924 0 0 1 1.017-.2l3.611 1.559a.922.922 0 0 1 .288 1.499v0ZM11 3h3.129a1.5 1.5 0 0 1 1.06.439l1.624 1.774M13 6H9.624a1.5 1.5 0 0 0-1.06.439L7.019 7.996"></path></svg>