<svg xmlns="http://www.w3.org/2000/svg" width="32" height="32" fill="none" viewBox="0 0 32 32"><title>Shopping cart</title><path stroke="currentColor" stroke-linecap="round" stroke-linejoin="round" stroke-width="1.5" d="M25.833 30.333a2.667 2.667 0 1 1 0-5.333 2.667 2.667 0 0 1 0 5.333ZM12.833 30.333a2.667 2.667 0 1 1 0-5.333 2.667 2.667 0 0 1 0 5.333ZM1.5 1.541h1.384a2.999 2.999 0 0 1 2.899 2.227l4.356 16.248a2 2 0 0 0 1.937 1.484H26.5a2 2 0 0 0 1.933-1.484l2.56-10.484M30.992 9.484 7.5 9.5"></path></svg>