<svg xmlns="http://www.w3.org/2000/svg" width="24" height="24" fill="none" viewBox="0 0 24 24"><title>Browser window with a t-shirt and a highlighted mouse pointer</title><path stroke="currentColor" stroke-linecap="round" stroke-linejoin="round" stroke-width="1.5" d="m19 20 3 3M15 16l2.651 6.895L19 20l2.894-1.348L15 16Z"></path><path stroke="currentColor" stroke-linecap="round" stroke-linejoin="round" stroke-width="1.5" d="M12.219 19H7.625v-5.556H5l1.016-3.497a1.27 1.27 0 0 1 .448-.685c.22-.172.49-.264.767-.262h2.777c0 .507.198.993.55 1.351.353.359.832.56 1.33.56.5 0 .978-.201 1.331-.56.353-.358.551-.844.551-1.351h2.78c.277-.002.547.09.767.262.22.171.378.412.448.685L19 13.444h-2.59"></path><path stroke="currentColor" stroke-linecap="round" stroke-linejoin="round" stroke-width="1.5" d="M14 22H3.428A1.434 1.434 0 0 1 2 20.564V3.436A1.432 1.432 0 0 1 3.428 2h17.144A1.432 1.432 0 0 1 22 3.436V14.5M2 5h20"></path></svg>