<svg xmlns="http://www.w3.org/2000/svg" width="24" height="24" fill="none" viewBox="0 0 24 24"><title>Hand holding a small box</title><path stroke="currentColor" stroke-linecap="round" stroke-linejoin="round" stroke-width="1.5" d="m1.062 20.049 7.993 2.664a3 3 0 0 0 2-.037l10.434-3.913c.368-.138.67-.41.844-.76a1.552 1.552 0 0 0-1.509-2.248L13.9 16.87"></path><path stroke="currentColor" stroke-linecap="round" stroke-linejoin="round" stroke-width="1.5" d="m1.877 13.398 3.528-.588a4.502 4.502 0 0 1 1.924.1l5.938 1.62a1.333 1.333 0 0 1-.35 2.621H7.15M21 12.75V2.89c-.012-.378-.2-.737-.523-.998a1.857 1.857 0 0 0-1.2-.392H4.722a1.857 1.857 0 0 0-1.2.393c-.323.26-.511.62-.523.998v7.055"></path><path stroke="currentColor" stroke-linecap="round" stroke-linejoin="round" stroke-width="1.5" d="M15 1.5v5.25H9V1.5"></path></svg>