<svg xmlns="http://www.w3.org/2000/svg" width="24" height="24" fill="none" viewBox="0 0 24 24"><title>Three people</title><path stroke="currentColor" stroke-linecap="round" stroke-linejoin="round" stroke-width="1.5" d="M12 6a2 2 0 1 0 0-4 2 2 0 0 0 0 4ZM15.75 14v-2a3.75 3.75 0 0 0-7.5 0v2h1.5l.75 6h3l.75-6h1.5ZM5 8a2 2 0 1 0 0-4 2 2 0 0 0 0 4ZM3.946 9.793A3.753 3.753 0 0 0 .75 13.5v.5h1.5L3 19h3l.376-2.506M19 8a2 2 0 1 0 0-4 2 2 0 0 0 0 4ZM20.054 9.793A3.753 3.753 0 0 1 23.25 13.5v.5h-1.5L21 19h-3l-.376-2.506M4 23h16"></path></svg>