<svg xmlns="http://www.w3.org/2000/svg" width="24" height="24" fill="none" viewBox="0 0 24 24"><title>Two townhouses</title><path stroke="currentColor" stroke-linecap="round" stroke-linejoin="round" stroke-width="1.5" d="m1 7 4.94-4.77a.793.793 0 0 1 .863-.17c.096.04.184.097.257.17L12 7M12 9l4.94-4.77a.792.792 0 0 1 .863-.17c.096.04.184.097.257.17L23 9M1 7v16h11V7M12 23h11V9"></path><path stroke="currentColor" stroke-linecap="round" stroke-width="1.5" d="M5 23v-3.5a.5.5 0 0 1 .5-.5h2a.5.5 0 0 1 .5.5V23M16 23v-3.5a.5.5 0 0 1 .5-.5h2a.5.5 0 0 1 .5.5V23M15.5 12h4M4.5 10h4M16.5 9h2M5.5 7h2M12 7V4M23 9V6"></path></svg>