<svg xmlns="http://www.w3.org/2000/svg" width="32" height="32" fill="none" viewBox="0 0 32 32"><title>Two townhouses</title><path stroke="currentColor" stroke-linecap="round" stroke-linejoin="round" stroke-width="1.5" d="m2 9 6.287-6.678c.093-.102.205-.183.327-.238a.936.936 0 0 1 .772 0c.122.055.234.136.327.238L16 9M16 12l6.287-6.678c.094-.102.205-.183.327-.238a.936.936 0 0 1 .772 0c.122.055.233.136.327.238L30 12M2 9v22h14V9M16 31h14V12"></path><path stroke="currentColor" stroke-linecap="round" stroke-width="1.5" d="M7 31v-5.7a.3.3 0 0 1 .3-.3h3.4a.3.3 0 0 1 .3.3V31M21 31v-5.7a.3.3 0 0 1 .3-.3h3.4a.3.3 0 0 1 .3.3V31M21 16h4M6.5 13h5M22 12h2M8 9h2M16 9.333v-4M30 12V8"></path></svg>