<svg xmlns="http://www.w3.org/2000/svg" width="42" height="28" fill="none" viewBox="0 0 42 28"><title>Tractor</title><path stroke="currentColor" stroke-linecap="round" stroke-linejoin="round" stroke-width="2" d="M17 22h12M17 19.5a7.5 7.5 0 1 1-15 0 7.5 7.5 0 0 1 15 0v0ZM40 21.5a5.5 5.5 0 1 1-11 0 5.5 5.5 0 0 1 11 0v0ZM29.5 7.5V2h2.469"></path><path stroke="currentColor" stroke-linecap="round" stroke-width="2" d="M6 12.5V4a2 2 0 0 1 2-2h11.058a2 2 0 0 1 1.898 1.368L23.5 11"></path><path stroke="currentColor" stroke-linecap="round" stroke-width="2" d="m37.5 16.5-.84-4.196a1 1 0 0 0-.98-.804H18.5l-1.5-4"></path><path stroke="currentColor" stroke-linecap="round" stroke-linejoin="round" stroke-width="2" d="M27 11V7.5h5V11"></path></svg>