<svg xmlns="http://www.w3.org/2000/svg" width="24" height="24" fill="none" viewBox="0 0 24 24"><title>Flat screen TV</title><path stroke="currentColor" stroke-linecap="round" stroke-linejoin="round" stroke-width="1.5" d="M22.25 2.625H1.75a1 1 0 0 0-1 1v13a1 1 0 0 0 1 1h20.5a1 1 0 0 0 1-1v-13a1 1 0 0 0-1-1ZM7.5 21.375h9M12 17.625v3.75"></path><path stroke="currentColor" stroke-linecap="round" stroke-linejoin="round" stroke-width="1.5" d="M22.25 2.625H1.75a1 1 0 0 0-1 1v13a1 1 0 0 0 1 1h20.5a1 1 0 0 0 1-1v-13a1 1 0 0 0-1-1ZM7.5 21.375h9M12 17.625v3.75"></path></svg>