<svg xmlns="http://www.w3.org/2000/svg" width="24" height="24" fill="none" viewBox="0 0 24 24"><title>Woman with braids</title><path stroke="currentColor" stroke-linecap="round" stroke-linejoin="round" stroke-width="1.5" d="M12 11a5 5 0 1 0 0-10 5 5 0 0 0 0 10ZM3.75 23.25c-.828 0-1.512-.675-1.385-1.494a9.75 9.75 0 0 1 19.27 0"></path><path stroke="currentColor" stroke-linecap="round" stroke-linejoin="round" stroke-width="1.5" d="M7.5 3.5c-.667-.667-2.821-1.344-3.821.383-1.134 1.959 0 6.5 1 8L7 7.5M16.5 3.5c.667-.667 2.821-1.344 3.821.383 1.134 1.959 0 6.5-1 8L17 7.5M12 4c-.167.833-1 2.5-4.6 2.5M12 4c.167.833 1 2.5 4.6 2.5M16.5 15c-.5 1.167-2.1 2.5-4.5 2.5S8 16.167 7.5 15"></path></svg>