<svg xmlns="http://www.w3.org/2000/svg" width="32" height="32" fill="none" viewBox="0 0 32 32"><title>Woman with braids</title><path stroke="currentColor" stroke-linecap="round" stroke-linejoin="round" stroke-width="1.5" d="M16 15a7 7 0 1 0 0-14 7 7 0 0 0 0 14ZM5 31c-1.105 0-2.016-.9-1.846-1.992a13 13 0 0 1 25.692 0"></path><path stroke="currentColor" stroke-linecap="round" stroke-linejoin="round" stroke-width="1.5" d="M9.8 4.667c-.89-.89-3.762-1.792-5.095.51-1.512 2.612 0 8.668 1.333 10.667L9.133 10M22.3 4.667c.889-.89 3.761-1.792 5.095.51 1.512 2.612 0 8.668-1.334 10.667L22.966 10M16 5.333c-.222 1.111-1.333 3.334-6.133 3.334M16 5.333c.222 1.111 1.333 3.334 6.133 3.334M22 20c-.667 1.556-2.8 3.333-6 3.333S10.667 21.556 10 20"></path></svg>