<svg xmlns="http://www.w3.org/2000/svg" width="32" height="32" fill="none" viewBox="0 0 32 32"><title>User profile</title><path stroke="currentColor" stroke-width="2" d="M16 18C9.432 18 3.99 22.774 3.02 29.007 2.852 30.1 3.773 31 4.889 31h22.225c1.116 0 2.037-.9 1.867-1.993C28.012 22.774 22.57 18 16 18Zm7.072-10c0 3.866-3.166 7-7.072 7-3.905 0-7.071-3.134-7.071-7S12.095 1 16 1c3.906 0 7.072 3.134 7.072 7Z"></path><path stroke="currentColor" stroke-width="2" d="M9.434 5.5c2.189 1.667 7.88 4.2 13.133 1"></path></svg>