<svg xmlns="http://www.w3.org/2000/svg" width="24" height="24" fill="none" viewBox="0 0 24 24"><title>Vacuum cleaner</title><g stroke="currentColor" stroke-linecap="round" stroke-linejoin="round" stroke-width="1.5"><path d="M15.75 20.25h6l1.5 3h-9l1.5-3Zm-6-4.5a4.5 4.5 0 1 0-9 0v6a1.5 1.5 0 0 0 1.5 1.5h6a1.5 1.5 0 0 0 1.5-1.5v-6Z"></path><path d="M5.25 11.25V7.5a3.75 3.75 0 0 1 7.5 0v6.75a1.5 1.5 0 1 0 3 0v-12a1.5 1.5 0 1 1 3 0v18m-18 0h9m-4.5-4.875a.375.375 0 1 1 0 .75.375.375 0 0 1 0-.75Z"></path></g></svg>