<svg xmlns="http://www.w3.org/2000/svg" width="42" height="28" fill="none" viewBox="0 0 42 28"><title>Camper van</title><path stroke="currentColor" stroke-width="2" d="M14 23h15.102"></path><path fill="currentColor" d="M36 23a3 3 0 0 1-3 3v2a5 5 0 0 0 5-5h-2Zm-3 3a3 3 0 0 1-3-3h-2a5 5 0 0 0 5 5v-2Zm-3-3a3 3 0 0 1 3-3v-2a5 5 0 0 0-5 5h2Zm3-3a3 3 0 0 1 3 3h2a5 5 0 0 0-5-5v2Z"></path><path stroke="currentColor" stroke-width="2" d="M14 23a4 4 0 1 1-8 0 4 4 0 0 1 8 0ZM33.5 7l2.5 6M6 11.5v-3A1.5 1.5 0 0 1 7.5 7h4A1.5 1.5 0 0 1 13 8.5v3a1.5 1.5 0 0 1-1.5 1.5h-4A1.5 1.5 0 0 1 6 11.5Z"></path><path stroke="currentColor" stroke-linejoin="round" stroke-width="2" d="M5.5 23H3a2 2 0 0 1-2-2V8a6 6 0 0 1 6-6h29a2 2 0 0 1 2 2v3h-9v6h7l5 3v7h-4"></path></svg>