<svg xmlns="http://www.w3.org/2000/svg" width="42" height="28" fill="none" viewBox="0 0 42 28"><title>Vase</title><path stroke="currentColor" stroke-linecap="round" stroke-linejoin="round" stroke-width="2" d="M9.923 12.375h22.154M10.51 20.5h20.98m.85-3.25h-5.947a.53.53 0 0 1-.53-.53v-.565a.53.53 0 0 0-.53-.53h-2.192a.53.53 0 0 0-.53.53v.565a.53.53 0 0 1-.528.53h-2.182a.53.53 0 0 1-.53-.53v-.565a.529.529 0 0 0-.53-.53h-2.195a.53.53 0 0 0-.53.53v.565a.53.53 0 0 1-.533.53H9.66"></path><path stroke="currentColor" stroke-linecap="round" stroke-linejoin="round" stroke-width="2" d="M23.438 1.813v1.462a3.25 3.25 0 0 0 1.504 2.742l4.422 2.817a6.5 6.5 0 0 1 3.011 5.485v2.118a9.75 9.75 0 0 1-9.75 9.75h-3.25a9.75 9.75 0 0 1-9.75-9.75v-2.119a6.5 6.5 0 0 1 3.01-5.483l4.423-2.817a3.25 3.25 0 0 0 1.505-2.743V1.813m-2.438 0h9.75"></path></svg>