<svg xmlns="http://www.w3.org/2000/svg" width="32" height="32" fill="none" viewBox="0 0 32 32"><title>Blue shield with checkmark</title><path fill="currentColor" d="M5.857 21.682c-2.36-4.148-3.68-8.857-3.843-13.685a.98.98 0 0 1 .528-.898L15.534.246a1 1 0 0 1 .932 0L29.459 7.1a.98.98 0 0 1 .528.898 29.73 29.73 0 0 1-3.843 13.685c-2.36 4.15-5.68 7.597-9.643 10.02a.958.958 0 0 1-1 0c-3.964-2.424-7.283-5.87-9.643-10.02Z"></path><path stroke="#fff" stroke-linecap="round" stroke-linejoin="round" stroke-width="2" d="m11 17 4 3 8-8"></path></svg>