<svg xmlns="http://www.w3.org/2000/svg" width="24" height="24" fill="none" viewBox="0 0 24 24"><title>Blue shield with checkmark</title><path fill="currentColor" d="M4.393 16.261a22.292 22.292 0 0 1-2.877-10.11.974.974 0 0 1 .526-.898L11.534.246a1 1 0 0 1 .932 0l9.493 5.007c.332.175.54.522.524.898a22.29 22.29 0 0 1-2.875 10.11c-1.746 3.07-4.191 5.626-7.11 7.44a.944.944 0 0 1-.997 0c-2.918-1.814-5.363-4.37-7.108-7.44Z"></path><path stroke="#fff" stroke-linecap="round" stroke-linejoin="round" stroke-width="2" d="m8.25 12.75 3 2.25 6-6"></path></svg>