<svg xmlns="http://www.w3.org/2000/svg" width="24" height="24" fill="none" viewBox="0 0 24 24"><title>Wallet</title><path stroke="currentColor" stroke-linecap="round" stroke-linejoin="round" stroke-width="1.5" d="M21.75 18v3a1.5 1.5 0 0 1-1.5 1.5H3a2.25 2.25 0 0 1-2.25-2.25V3.75A2.25 2.25 0 0 1 3 1.5h15.75a1.5 1.5 0 0 1 1.5 1.5v2"></path><path stroke="currentColor" stroke-linecap="round" stroke-linejoin="round" stroke-width="1.5" d="M21.75 18a1.5 1.5 0 0 0 1.5-1.5V12a1.5 1.5 0 0 0-1.5-1.5H18a3.75 3.75 0 0 0 0 7.5h3.75ZM4.01 4.355a1.756 1.756 0 0 0 1.615.895H20.25a1.5 1.5 0 0 1 1.5 1.5v3.566M14.25 14.25H17"></path></svg>