<svg xmlns="http://www.w3.org/2000/svg" width="32" height="32" fill="none" viewBox="0 0 32 32"><title>Wallet</title><path stroke="currentColor" stroke-linecap="round" stroke-linejoin="round" stroke-width="1.5" d="M29 24v4a2 2 0 0 1-2 2H4a3 3 0 0 1-3-3V5a3 3 0 0 1 3-3h21a2 2 0 0 1 2 2v3"></path><path stroke="currentColor" stroke-linecap="round" stroke-linejoin="round" stroke-width="1.5" d="M29 24a2 2 0 0 0 2-2v-6a2 2 0 0 0-2-2h-5a5 5 0 1 0 0 10h5ZM5.348 5.807A2.341 2.341 0 0 0 7.5 7H27a2 2 0 0 1 2 2v4.813M19 19h3"></path></svg>