<svg xmlns="http://www.w3.org/2000/svg" width="32" height="32" fill="none" viewBox="0 0 32 32"><title>Ribbon with checkmark</title><path stroke="currentColor" stroke-width="1.5" d="M14.456 1.877a2 2 0 0 1 3.088 0l2.187 2.657a2 2 0 0 0 1.738.72l3.426-.333a2 2 0 0 1 2.184 2.184l-.333 3.426a2 2 0 0 0 .72 1.738l2.657 2.187a2 2 0 0 1 0 3.088l-2.657 2.187a2 2 0 0 0-.72 1.738l.333 3.426a2 2 0 0 1-2.184 2.184l-3.426-.333a2 2 0 0 0-1.738.72l-2.187 2.657a2 2 0 0 1-3.088 0l-2.187-2.657a2 2 0 0 0-1.738-.72l-3.426.333a2 2 0 0 1-2.184-2.184l.333-3.426a2 2 0 0 0-.72-1.738l-2.657-2.187a2 2 0 0 1 0-3.088l2.657-2.187a2 2 0 0 0 .72-1.738L4.92 7.105a2 2 0 0 1 2.184-2.184l3.426.333a2 2 0 0 0 1.738-.72l2.187-2.657Z"></path><path stroke="currentColor" stroke-linecap="round" stroke-width="1.5" d="m11 17 3.185 3.185a1 1 0 0 0 1.507-.107L21 13"></path></svg>