<svg xmlns="http://www.w3.org/2000/svg" width="25" height="24" fill="none" viewBox="0 0 25 24"><title>Ribbon with checkmark</title><path stroke="currentColor" stroke-width="1.5" d="M10.46 1.507a2 2 0 0 1 3.084 0l1.2 1.453a2 2 0 0 0 1.735.717l1.878-.182A2 2 0 0 1 20.54 5.68l-.18 1.851a2 2 0 0 0 .722 1.741l1.441 1.181a2 2 0 0 1 0 3.094l-1.44 1.18a2 2 0 0 0-.723 1.742l.18 1.851a2 2 0 0 1-2.183 2.185l-1.878-.182a2 2 0 0 0-1.734.717l-1.2 1.453a2 2 0 0 1-3.084 0l-1.2-1.453a2 2 0 0 0-1.735-.717l-1.878.182a2 2 0 0 1-2.183-2.185l.18-1.851a2 2 0 0 0-.722-1.741l-1.44-1.181a2 2 0 0 1 0-3.094l1.44-1.18a2 2 0 0 0 .723-1.742l-.18-1.851a2 2 0 0 1 2.182-2.185l1.878.182a2 2 0 0 0 1.735-.717l1.2-1.453Z"></path><path stroke="currentColor" stroke-linecap="round" stroke-width="1.5" d="m8.125 12.773 2.289 2.279a1 1 0 0 0 1.504-.107l3.962-5.262"></path></svg>