<svg xmlns="http://www.w3.org/2000/svg" width="24" height="24" fill="none" viewBox="0 0 24 24"><title>Two spruce trees</title><path stroke="currentColor" stroke-linecap="round" stroke-linejoin="round" stroke-width="1.5" d="M7.374 1.084a.75.75 0 0 0-1.248 0L2.25 7.5H4.5l-2.9 4.128a.75.75 0 0 0 .65 1.122h9a.75.75 0 0 0 .651-1.122L9.001 7.5h2.25L7.373 1.084ZM6.75 12.75v4.582M19.262 1.023a.614.614 0 0 0-1.02 0L15.068 6h1.841l-2.578 3.582a.613.613 0 0 0 .533.918h7.77a.614.614 0 0 0 .533-.918L20.592 6h1.841l-3.17-4.977ZM18.751 10.5v4.035M.805 18a13.517 13.517 0 0 1 15.646 5.213"></path><path stroke="currentColor" stroke-linecap="round" stroke-linejoin="round" stroke-width="1.5" d="M23.25 14.32a15.93 15.93 0 0 0-1.5-.07 15.7 15.7 0 0 0-10.709 4.2"></path></svg>