<svg xmlns="http://www.w3.org/2000/svg" width="32" height="32" fill="none" viewBox="0 0 32 32"><title>Two spruce trees</title><path stroke="currentColor" stroke-linecap="round" stroke-linejoin="round" stroke-width="1.5" d="M9.832 1.445a1 1 0 0 0-1.664 0L3 10h3l-3.867 5.504A1 1 0 0 0 3 17h12a1 1 0 0 0 .868-1.496L12 10h3L9.832 1.445ZM9 17v6.11M25.683 1.364a.819.819 0 0 0-1.362 0L20.092 8h2.455l-3.438 4.776A.818.818 0 0 0 19.82 14h10.36a.818.818 0 0 0 .71-1.224L27.457 8h2.455l-4.228-6.636ZM25.001 14v5.38M1.073 24a18.023 18.023 0 0 1 20.87 6.963"></path><path stroke="currentColor" stroke-linecap="round" stroke-linejoin="round" stroke-width="1.5" d="M31 19.093A21.264 21.264 0 0 0 29 19a20.934 20.934 0 0 0-14.3 5.622"></path></svg>