<svg xmlns="http://www.w3.org/2000/svg" width="24" height="24" fill="none" viewBox="0 0 24 24"><title>YouTube logo</title><path fill="#3F3F46" fill-rule="evenodd" d="M11.749 4c-.994.003-4.796.031-7.451.23-.43.053-1.368.057-2.205.964-.66.69-.874 2.258-.874 2.258S1.017 9.14 1 10.898v2.198c.017 1.759.219 3.446.219 3.446s.214 1.568.874 2.258c.837.907 1.937.878 2.427.973 1.61.16 6.533.218 7.36.227h.41c1.059-.006 4.793-.04 7.411-.236.43-.053 1.368-.057 2.205-.964.66-.69.874-2.258.874-2.258S23 14.7 23 12.86v-1.726c0-1.842-.22-3.682-.22-3.682s-.214-1.568-.874-2.258c-.837-.907-1.775-.91-2.205-.964-2.656-.199-6.457-.227-7.452-.23h-.5ZM9.727 8.56l5.945 3.208-5.944 3.187-.001-6.395Z" clip-rule="evenodd"></path></svg>